<svg xmlns="http://www.w3.org/2000/svg" preserveAspectRatio="none" viewBox="0 0 100 1"><rect fill="#2563EB" height="0.5494803365824288" stroke="#EFF6FF" stroke-width="0.01" width="1" x="0" y="0.4505196634175712"/><rect fill="#2563EB" height="0.8360122459457441" stroke="#EFF6FF" stroke-width="0.01" width="1" x="1" y="0.16398775405425592"/><rect fill="#2563EB" height="0.6607359178097385" stroke="#EFF6FF" stroke-width="0.01" width="1" x="2" y="0.3392640821902615"/><rect fill="#2563EB" height="0.6757277553388886" stroke="#EFF6FF" stroke-width="0.01" width="1" x="3" y="0.3242722446611114"/><rect fill="#2563EB" height="0.6160713969324081" stroke="#EFF6FF" stroke-width="0.01" width="1" x="4" y="0.3839286030675919"/><rect fill="#2563EB" height="0.5926111396823808" stroke="#EFF6FF" stroke-width="0.01" width="1" x="5" y="0.40738886031761923"/><rect fill="#2563EB" height="0.8061483308464066" stroke="#EFF6FF" stroke-width="0.01" width="1" x="6" y="0.19385166915359342"/><rect fill="#2563EB" height="0.6596790851673113" stroke="#EFF6FF" stroke-width="0.01" width="1" x="7" y="0.34032091483268867"/><rect fill="#2563EB" height="0.5843368568856863" stroke="#EFF6FF" stroke-width="0.01" width="1" x="8" y="0.41566314311431374"/><rect fill="#2563EB" height="0.6486756672633033" stroke="#EFF6FF" stroke-width="0.01" width="1" x="9" y="0.3513243327366967"/><rect fill="#2563EB" height="0.605470811070418" stroke="#EFF6FF" stroke-width="0.01" width="1" x="10" y="0.394529188929582"/><rect fill="#2563EB" height="0.5960524558540277" stroke="#EFF6FF" stroke-width="0.01" width="1" x="11" y="0.40394754414597234"/><rect fill="#2563EB" height="0.7817530261873942" stroke="#EFF6FF" stroke-width="0.01" width="1" x="12" y="0.21824697381260583"/><rect fill="#2563EB" height="0.7860527833387392" stroke="#EFF6FF" stroke-width="0.01" width="1" x="13" y="0.21394721666126082"/><rect fill="#2563EB" height="0.6710436447228335" stroke="#EFF6FF" stroke-width="0.01" width="1" x="14" y="0.3289563552771665"/><rect fill="#2563EB" height="0.6074371008956742" stroke="#EFF6FF" stroke-width="0.01" width="1" x="15" y="0.39256289910432585"/><rect fill="#2563EB" height="0.6400424181787353" stroke="#EFF6FF" stroke-width="0.01" width="1" x="16" y="0.3599575818212647"/><rect fill="#2563EB" height="0.7014969999768206" stroke="#EFF6FF" stroke-width="0.01" width="1" x="17" y="0.2985030000231794"/><rect fill="#2563EB" height="0.7058173069376505" stroke="#EFF6FF" stroke-width="0.01" width="1" x="18" y="0.29418269306234945"/><rect fill="#2563EB" height="0.787432482884184" stroke="#EFF6FF" stroke-width="0.01" width="1" x="19" y="0.212567517115816"/><rect fill="#2563EB" height="0.6050058080633852" stroke="#EFF6FF" stroke-width="0.01" width="1" x="20" y="0.3949941919366148"/><rect fill="#2563EB" height="0.6077800154492815" stroke="#EFF6FF" stroke-width="0.01" width="1" x="21" y="0.3922199845507185"/><rect fill="#2563EB" height="0.6074242279103955" stroke="#EFF6FF" stroke-width="0.01" width="1" x="22" y="0.3925757720896045"/><rect fill="#2563EB" height="0.5842785335742314" stroke="#EFF6FF" stroke-width="0.01" width="1" x="23" y="0.41572146642576857"/><rect fill="#2563EB" height="0.6082909336975282" stroke="#EFF6FF" stroke-width="0.01" width="1" x="24" y="0.3917090663024718"/><rect fill="#2563EB" height="0.772589941876143" stroke="#EFF6FF" stroke-width="0.01" width="1" x="25" y="0.22741005812385695"/><rect fill="#2563EB" height="0.7995299682956749" stroke="#EFF6FF" stroke-width="0.01" width="1" x="26" y="0.2004700317043251"/><rect fill="#2563EB" height="0.6989014817660323" stroke="#EFF6FF" stroke-width="0.01" width="1" x="27" y="0.3010985182339677"/><rect fill="#2563EB" height="0.674812182985187" stroke="#EFF6FF" stroke-width="0.01" width="1" x="28" y="0.32518781701481303"/><rect fill="#2563EB" height="0.5968298215571399" stroke="#EFF6FF" stroke-width="0.01" width="1" x="29" y="0.40317017844286007"/><rect fill="#2563EB" height="0.6452058503014741" stroke="#EFF6FF" stroke-width="0.01" width="1" x="30" y="0.35479414969852585"/><rect fill="#2563EB" height="0.741131742501029" stroke="#EFF6FF" stroke-width="0.01" width="1" x="31" y="0.258868257498971"/><rect fill="#2563EB" height="0.6719235022909706" stroke="#EFF6FF" stroke-width="0.01" width="1" x="32" y="0.32807649770902936"/><rect fill="#2563EB" height="0.6420906445166424" stroke="#EFF6FF" stroke-width="0.01" width="1" x="33" y="0.35790935548335756"/><rect fill="#2563EB" height="0.5785302756661268" stroke="#EFF6FF" stroke-width="0.01" width="1" x="34" y="0.4214697243338732"/><rect fill="#2563EB" height="0.6006182100125576" stroke="#EFF6FF" stroke-width="0.01" width="1" x="35" y="0.39938178998744245"/><rect fill="#2563EB" height="0.6673611595465144" stroke="#EFF6FF" stroke-width="0.01" width="1" x="36" y="0.3326388404534856"/><rect fill="#2563EB" height="0.6587521862686815" stroke="#EFF6FF" stroke-width="0.01" width="1" x="37" y="0.3412478137313185"/><rect fill="#2563EB" height="0.6947908735977235" stroke="#EFF6FF" stroke-width="0.01" width="1" x="38" y="0.3052091264022765"/><rect fill="#2563EB" height="0.6919760052497814" stroke="#EFF6FF" stroke-width="0.01" width="1" x="39" y="0.3080239947502186"/><rect fill="#2563EB" height="0.8730788913162844" stroke="#EFF6FF" stroke-width="0.01" width="1" x="40" y="0.12692110868371564"/><rect fill="#2563EB" height="0.716112726794127" stroke="#EFF6FF" stroke-width="0.01" width="1" x="41" y="0.28388727320587304"/><rect fill="#2563EB" height="0.7285667682449177" stroke="#EFF6FF" stroke-width="0.01" width="1" x="42" y="0.27143323175508227"/><rect fill="#2563EB" height="0.7688251209976361" stroke="#EFF6FF" stroke-width="0.01" width="1" x="43" y="0.2311748790023639"/><rect fill="#2563EB" height="0.9628567533878881" stroke="#EFF6FF" stroke-width="0.01" width="1" x="44" y="0.03714324661211188"/><rect fill="#2563EB" height="0.9469165768650691" stroke="#EFF6FF" stroke-width="0.01" width="1" x="45" y="0.05308342313493086"/><rect fill="#2563EB" height="0.7689426737760852" stroke="#EFF6FF" stroke-width="0.01" width="1" x="46" y="0.23105732622391484"/><rect fill="#2563EB" height="0.7376675130297983" stroke="#EFF6FF" stroke-width="0.01" width="1" x="47" y="0.26233248697020173"/><rect fill="#2563EB" height="0.6405482938083815" stroke="#EFF6FF" stroke-width="0.01" width="1" x="48" y="0.3594517061916185"/><rect fill="#2563EB" height="0.6487529810924302" stroke="#EFF6FF" stroke-width="0.01" width="1" x="49" y="0.3512470189075698"/><rect fill="#2563EB" height="0.8319747038430869" stroke="#EFF6FF" stroke-width="0.01" width="1" x="50" y="0.16802529615691308"/><rect fill="#2563EB" height="0.949342246519682" stroke="#EFF6FF" stroke-width="0.01" width="1" x="51" y="0.05065775348031798"/><rect fill="#2563EB" height="0.8935936880224461" stroke="#EFF6FF" stroke-width="0.01" width="1" x="52" y="0.1064063119775539"/><rect fill="#2563EB" height="0.81310480003298" stroke="#EFF6FF" stroke-width="0.01" width="1" x="53" y="0.18689519996701998"/><rect fill="#2563EB" height="0.7602868000034566" stroke="#EFF6FF" stroke-width="0.01" width="1" x="54" y="0.2397131999965434"/><rect fill="#2563EB" height="0.8236846349546602" stroke="#EFF6FF" stroke-width="0.01" width="1" x="55" y="0.17631536504533984"/><rect fill="#2563EB" height="0.8208541997065559" stroke="#EFF6FF" stroke-width="0.01" width="1" x="56" y="0.17914580029344407"/><rect fill="#2563EB" height="0.9454155270805709" stroke="#EFF6FF" stroke-width="0.01" width="1" x="57" y="0.05458447291942914"/><rect fill="#2563EB" height="0.9696187607246728" stroke="#EFF6FF" stroke-width="0.01" width="1" x="58" y="0.03038123927532721"/><rect fill="#2563EB" height="0.7584393148378279" stroke="#EFF6FF" stroke-width="0.01" width="1" x="59" y="0.2415606851621721"/><rect fill="#2563EB" height="0.737696380765312" stroke="#EFF6FF" stroke-width="0.01" width="1" x="60" y="0.26230361923468803"/><rect fill="#2563EB" height="0.7337883072996545" stroke="#EFF6FF" stroke-width="0.01" width="1" x="61" y="0.2662116927003455"/><rect fill="#2563EB" height="0.7578582309076545" stroke="#EFF6FF" stroke-width="0.01" width="1" x="62" y="0.24214176909234553"/><rect fill="#2563EB" height="0.8715729654376976" stroke="#EFF6FF" stroke-width="0.01" width="1" x="63" y="0.12842703456230242"/><rect fill="#2563EB" height="0.9072226791411736" stroke="#EFF6FF" stroke-width="0.01" width="1" x="64" y="0.0927773208588264"/><rect fill="#2563EB" height="0.8988855143290524" stroke="#EFF6FF" stroke-width="0.01" width="1" x="65" y="0.10111448567094761"/><rect fill="#2563EB" height="0.7705771656277706" stroke="#EFF6FF" stroke-width="0.01" width="1" x="66" y="0.22942283437222943"/><rect fill="#2563EB" height="0.7251274508640742" stroke="#EFF6FF" stroke-width="0.01" width="1" x="67" y="0.27487254913592585"/><rect fill="#2563EB" height="0.718232663342663" stroke="#EFF6FF" stroke-width="0.01" width="1" x="68" y="0.281767336657337"/><rect fill="#2563EB" height="0.8701609083932526" stroke="#EFF6FF" stroke-width="0.01" width="1" x="69" y="0.12983909160674745"/><rect fill="#2563EB" height="0.9429937137858624" stroke="#EFF6FF" stroke-width="0.01" width="1" x="70" y="0.057006286214137614"/><rect fill="#2563EB" height="0.8691848564091644" stroke="#EFF6FF" stroke-width="0.01" width="1" x="71" y="0.13081514359083557"/><rect fill="#2563EB" height="0.8332994576517434" stroke="#EFF6FF" stroke-width="0.01" width="1" x="72" y="0.1667005423482566"/><rect fill="#2563EB" height="0.806346496805064" stroke="#EFF6FF" stroke-width="0.01" width="1" x="73" y="0.19365350319493602"/><rect fill="#2563EB" height="0.8012556567649404" stroke="#EFF6FF" stroke-width="0.01" width="1" x="74" y="0.19874434323505963"/><rect fill="#2563EB" height="0.8723710177379741" stroke="#EFF6FF" stroke-width="0.01" width="1" x="75" y="0.1276289822620259"/><rect fill="#2563EB" height="0.902873572498822" stroke="#EFF6FF" stroke-width="0.01" width="1" x="76" y="0.09712642750117795"/><rect fill="#2563EB" height="0.9805901115863846" stroke="#EFF6FF" stroke-width="0.01" width="1" x="77" y="0.01940988841361535"/><rect fill="#2563EB" height="0.8134128000553777" stroke="#EFF6FF" stroke-width="0.01" width="1" x="78" y="0.18658719994462225"/><rect fill="#2563EB" height="0.7416456979134339" stroke="#EFF6FF" stroke-width="0.01" width="1" x="79" y="0.25835430208656607"/><rect fill="#2563EB" height="0.849822875241263" stroke="#EFF6FF" stroke-width="0.01" width="1" x="80" y="0.150177124758737"/><rect fill="#2563EB" height="0.8347230555703435" stroke="#EFF6FF" stroke-width="0.01" width="1" x="81" y="0.16527694442965646"/><rect fill="#2563EB" height="0.9547332477467885" stroke="#EFF6FF" stroke-width="0.01" width="1" x="82" y="0.04526675225321153"/><rect fill="#2563EB" height="0.9362690897029438" stroke="#EFF6FF" stroke-width="0.01" width="1" x="83" y="0.06373091029705624"/><rect fill="#2563EB" height="0.846112750446942" stroke="#EFF6FF" stroke-width="0.01" width="1" x="84" y="0.153887249553058"/><rect fill="#2563EB" height="0.7766986040581647" stroke="#EFF6FF" stroke-width="0.01" width="1" x="85" y="0.2233013959418353"/><rect fill="#2563EB" height="0.7606711551566443" stroke="#EFF6FF" stroke-width="0.01" width="1" x="86" y="0.2393288448433557"/><rect fill="#2563EB" height="0.8269084703852629" stroke="#EFF6FF" stroke-width="0.01" width="1" x="87" y="0.17309152961473706"/><rect fill="#2563EB" height="1" stroke="#EFF6FF" stroke-width="0.01" width="1" x="88" y="0"/><rect fill="#2563EB" height="0.9135462581476088" stroke="#EFF6FF" stroke-width="0.01" width="1" x="89" y="0.08645374185239119"/><rect fill="#2563EB" height="0.4810709836735769" stroke="#EFF6FF" stroke-width="0.01" width="1" x="90" y="0.5189290163264231"/><rect fill="#2563EB" height="0.41878274500859064" stroke="#EFF6FF" stroke-width="0.01" width="1" x="91" y="0.5812172549914094"/><rect fill="#2563EB" height="0.3391933802236188" stroke="#EFF6FF" stroke-width="0.01" width="1" x="92" y="0.6608066197763812"/><rect fill="#2563EB" height="0.3953986299836368" stroke="#EFF6FF" stroke-width="0.01" width="1" x="93" y="0.6046013700163633"/><rect fill="#2563EB" height="0.4454148585894483" stroke="#EFF6FF" stroke-width="0.01" width="1" x="94" y="0.5545851414105517"/><rect fill="#2563EB" height="0.5072690020298541" stroke="#EFF6FF" stroke-width="0.01" width="1" x="95" y="0.49273099797014586"/><rect fill="#2563EB" height="0.4067872342951988" stroke="#EFF6FF" stroke-width="0.01" width="1" x="96" y="0.5932127657048012"/><rect fill="#2563EB" height="0.36964959715185997" stroke="#EFF6FF" stroke-width="0.01" width="1" x="97" y="0.63035040284814"/><rect fill="#2563EB" height="0.32178700818462774" stroke="#EFF6FF" stroke-width="0.01" width="1" x="98" y="0.6782129918153723"/><rect fill="#2563EB" height="0.4991581733504078" stroke="#EFF6FF" stroke-width="0.01" width="1" x="99" y="0.5008418266495922"/></svg>