<svg xmlns="http://www.w3.org/2000/svg" preserveAspectRatio="none" viewBox="0 0 100 1"><rect fill="#2563EB" height="0.587249863182513" stroke="#EFF6FF" stroke-width="0.01" width="1" x="0" y="0.41275013681748696"/><rect fill="#2563EB" height="0.5526236911930126" stroke="#EFF6FF" stroke-width="0.01" width="1" x="1" y="0.4473763088069874"/><rect fill="#2563EB" height="0.5932986205118024" stroke="#EFF6FF" stroke-width="0.01" width="1" x="2" y="0.4067013794881976"/><rect fill="#2563EB" height="0.724087863400978" stroke="#EFF6FF" stroke-width="0.01" width="1" x="3" y="0.27591213659902203"/><rect fill="#2563EB" height="0.6557189460337322" stroke="#EFF6FF" stroke-width="0.01" width="1" x="4" y="0.34428105396626785"/><rect fill="#2563EB" height="0.6891049463895181" stroke="#EFF6FF" stroke-width="0.01" width="1" x="5" y="0.31089505361048186"/><rect fill="#2563EB" height="0.5111607102530786" stroke="#EFF6FF" stroke-width="0.01" width="1" x="6" y="0.48883928974692137"/><rect fill="#2563EB" height="0.7194538554655732" stroke="#EFF6FF" stroke-width="0.01" width="1" x="7" y="0.28054614453442683"/><rect fill="#2563EB" height="0.6310936650835405" stroke="#EFF6FF" stroke-width="0.01" width="1" x="8" y="0.3689063349164595"/><rect fill="#2563EB" height="0.6688516538980795" stroke="#EFF6FF" stroke-width="0.01" width="1" x="9" y="0.33114834610192045"/><rect fill="#2563EB" height="0.5771030892951132" stroke="#EFF6FF" stroke-width="0.01" width="1" x="10" y="0.4228969107048868"/><rect fill="#2563EB" height="0.8059744752099582" stroke="#EFF6FF" stroke-width="0.01" width="1" x="11" y="0.19402552479004176"/><rect fill="#2563EB" height="0.8105303599144319" stroke="#EFF6FF" stroke-width="0.01" width="1" x="12" y="0.1894696400855681"/><rect fill="#2563EB" height="0.9024349660608783" stroke="#EFF6FF" stroke-width="0.01" width="1" x="13" y="0.09756503393912175"/><rect fill="#2563EB" height="0.9125681121529936" stroke="#EFF6FF" stroke-width="0.01" width="1" x="14" y="0.0874318878470064"/><rect fill="#2563EB" height="0.9812645213854753" stroke="#EFF6FF" stroke-width="0.01" width="1" x="15" y="0.018735478614524737"/><rect fill="#2563EB" height="1" stroke="#EFF6FF" stroke-width="0.01" width="1" x="16" y="0"/><rect fill="#2563EB" height="0.8790606501298334" stroke="#EFF6FF" stroke-width="0.01" width="1" x="17" y="0.12093934987016663"/><rect fill="#2563EB" height="0.8929891324929411" stroke="#EFF6FF" stroke-width="0.01" width="1" x="18" y="0.1070108675070589"/><rect fill="#2563EB" height="0.7974346060390155" stroke="#EFF6FF" stroke-width="0.01" width="1" x="19" y="0.2025653939609845"/><rect fill="#2563EB" height="0.8195829557109835" stroke="#EFF6FF" stroke-width="0.01" width="1" x="20" y="0.1804170442890165"/><rect fill="#2563EB" height="0.9265877775200912" stroke="#EFF6FF" stroke-width="0.01" width="1" x="21" y="0.07341222247990875"/><rect fill="#2563EB" height="0.9882537181282595" stroke="#EFF6FF" stroke-width="0.01" width="1" x="22" y="0.011746281871740538"/><rect fill="#2563EB" height="0.8315092886180597" stroke="#EFF6FF" stroke-width="0.01" width="1" x="23" y="0.16849071138194027"/><rect fill="#2563EB" height="0.8964428336341794" stroke="#EFF6FF" stroke-width="0.01" width="1" x="24" y="0.10355716636582057"/><rect fill="#2563EB" height="0.8626056235847499" stroke="#EFF6FF" stroke-width="0.01" width="1" x="25" y="0.1373943764152501"/><rect fill="#2563EB" height="0.9537202215718555" stroke="#EFF6FF" stroke-width="0.01" width="1" x="26" y="0.04627977842814446"/><rect fill="#2563EB" height="0.7795702920342115" stroke="#EFF6FF" stroke-width="0.01" width="1" x="27" y="0.22042970796578853"/><rect fill="#2563EB" height="0.7144359609169678" stroke="#EFF6FF" stroke-width="0.01" width="1" x="28" y="0.2855640390830322"/><rect fill="#2563EB" height="0.8701492524015507" stroke="#EFF6FF" stroke-width="0.01" width="1" x="29" y="0.12985074759844928"/><rect fill="#2563EB" height="0.7326469065428304" stroke="#EFF6FF" stroke-width="0.01" width="1" x="30" y="0.2673530934571696"/><rect fill="#2563EB" height="0.7205172964237551" stroke="#EFF6FF" stroke-width="0.01" width="1" x="31" y="0.27948270357624494"/><rect fill="#2563EB" height="0.7366945014968753" stroke="#EFF6FF" stroke-width="0.01" width="1" x="32" y="0.2633054985031247"/><rect fill="#2563EB" height="0.706825573312597" stroke="#EFF6FF" stroke-width="0.01" width="1" x="33" y="0.293174426687403"/><rect fill="#2563EB" height="0.7350835662550999" stroke="#EFF6FF" stroke-width="0.01" width="1" x="34" y="0.26491643374490015"/><rect fill="#2563EB" height="0.7872057372906863" stroke="#EFF6FF" stroke-width="0.01" width="1" x="35" y="0.21279426270931368"/><rect fill="#2563EB" height="0.8141626768933085" stroke="#EFF6FF" stroke-width="0.01" width="1" x="36" y="0.18583732310669154"/><rect fill="#2563EB" height="0.76035501414668" stroke="#EFF6FF" stroke-width="0.01" width="1" x="37" y="0.23964498585331995"/><rect fill="#2563EB" height="0.7974661524692932" stroke="#EFF6FF" stroke-width="0.01" width="1" x="38" y="0.2025338475307068"/><rect fill="#2563EB" height="0.663819497578444" stroke="#EFF6FF" stroke-width="0.01" width="1" x="39" y="0.33618050242155595"/><rect fill="#2563EB" height="0.6442970710666395" stroke="#EFF6FF" stroke-width="0.01" width="1" x="40" y="0.35570292893336053"/><rect fill="#2563EB" height="0.7519203858567624" stroke="#EFF6FF" stroke-width="0.01" width="1" x="41" y="0.24807961414323765"/><rect fill="#2563EB" height="0.7884593139847664" stroke="#EFF6FF" stroke-width="0.01" width="1" x="42" y="0.21154068601523357"/><rect fill="#2563EB" height="0.8638381933637594" stroke="#EFF6FF" stroke-width="0.01" width="1" x="43" y="0.13616180663624056"/><rect fill="#2563EB" height="0.8490542468354696" stroke="#EFF6FF" stroke-width="0.01" width="1" x="44" y="0.1509457531645304"/><rect fill="#2563EB" height="0.6808661071402612" stroke="#EFF6FF" stroke-width="0.01" width="1" x="45" y="0.3191338928597388"/><rect fill="#2563EB" height="0.7767145012730843" stroke="#EFF6FF" stroke-width="0.01" width="1" x="46" y="0.22328549872691572"/><rect fill="#2563EB" height="0.67800350019833" stroke="#EFF6FF" stroke-width="0.01" width="1" x="47" y="0.32199649980167"/><rect fill="#2563EB" height="0.7824458536985403" stroke="#EFF6FF" stroke-width="0.01" width="1" x="48" y="0.21755414630145975"/><rect fill="#2563EB" height="0.8456486520105626" stroke="#EFF6FF" stroke-width="0.01" width="1" x="49" y="0.1543513479894374"/><rect fill="#2563EB" height="0.8600938827681871" stroke="#EFF6FF" stroke-width="0.01" width="1" x="50" y="0.1399061172318129"/><rect fill="#2563EB" height="0.7437840556105045" stroke="#EFF6FF" stroke-width="0.01" width="1" x="51" y="0.25621594438949546"/><rect fill="#2563EB" height="0.6497786747297348" stroke="#EFF6FF" stroke-width="0.01" width="1" x="52" y="0.35022132527026517"/><rect fill="#2563EB" height="0.7351291527765571" stroke="#EFF6FF" stroke-width="0.01" width="1" x="53" y="0.2648708472234429"/><rect fill="#2563EB" height="0.9406195046768793" stroke="#EFF6FF" stroke-width="0.01" width="1" x="54" y="0.05938049532312073"/><rect fill="#2563EB" height="0.8565337660654255" stroke="#EFF6FF" stroke-width="0.01" width="1" x="55" y="0.14346623393457447"/><rect fill="#2563EB" height="0.8885248743179212" stroke="#EFF6FF" stroke-width="0.01" width="1" x="56" y="0.11147512568207885"/><rect fill="#2563EB" height="0.8492914554536432" stroke="#EFF6FF" stroke-width="0.01" width="1" x="57" y="0.15070854454635685"/><rect fill="#2563EB" height="0.8532176963491153" stroke="#EFF6FF" stroke-width="0.01" width="1" x="58" y="0.14678230365088474"/><rect fill="#2563EB" height="0.7379282405787785" stroke="#EFF6FF" stroke-width="0.01" width="1" x="59" y="0.2620717594212215"/><rect fill="#2563EB" height="0.7573869242111392" stroke="#EFF6FF" stroke-width="0.01" width="1" x="60" y="0.24261307578886082"/><rect fill="#2563EB" height="0.7949422576696703" stroke="#EFF6FF" stroke-width="0.01" width="1" x="61" y="0.2050577423303297"/><rect fill="#2563EB" height="0.818085760557409" stroke="#EFF6FF" stroke-width="0.01" width="1" x="62" y="0.181914239442591"/><rect fill="#2563EB" height="0.9373793578485516" stroke="#EFF6FF" stroke-width="0.01" width="1" x="63" y="0.06262064215144836"/><rect fill="#2563EB" height="0.7677225216900184" stroke="#EFF6FF" stroke-width="0.01" width="1" x="64" y="0.23227747830998158"/><rect fill="#2563EB" height="0.8291495830380097" stroke="#EFF6FF" stroke-width="0.01" width="1" x="65" y="0.17085041696199033"/><rect fill="#2563EB" height="0.8883691205758145" stroke="#EFF6FF" stroke-width="0.01" width="1" x="66" y="0.11163087942418548"/><rect fill="#2563EB" height="0.6425816797128896" stroke="#EFF6FF" stroke-width="0.01" width="1" x="67" y="0.3574183202871104"/><rect fill="#2563EB" height="0.5706479151226872" stroke="#EFF6FF" stroke-width="0.01" width="1" x="68" y="0.4293520848773128"/><rect fill="#2563EB" height="0.6116882329204425" stroke="#EFF6FF" stroke-width="0.01" width="1" x="69" y="0.3883117670795575"/><rect fill="#2563EB" height="0.585571545523946" stroke="#EFF6FF" stroke-width="0.01" width="1" x="70" y="0.41442845447605403"/><rect fill="#2563EB" height="0.6474514901862947" stroke="#EFF6FF" stroke-width="0.01" width="1" x="71" y="0.35254850981370534"/><rect fill="#2563EB" height="0.6016697993513959" stroke="#EFF6FF" stroke-width="0.01" width="1" x="72" y="0.39833020064860414"/><rect fill="#2563EB" height="0.6047102273569674" stroke="#EFF6FF" stroke-width="0.01" width="1" x="73" y="0.39528977264303256"/><rect fill="#2563EB" height="0.615021233741587" stroke="#EFF6FF" stroke-width="0.01" width="1" x="74" y="0.384978766258413"/><rect fill="#2563EB" height="0.5960132363793547" stroke="#EFF6FF" stroke-width="0.01" width="1" x="75" y="0.40398676362064534"/><rect fill="#2563EB" height="0.6185859384662789" stroke="#EFF6FF" stroke-width="0.01" width="1" x="76" y="0.38141406153372115"/><rect fill="#2563EB" height="0.5988723260172649" stroke="#EFF6FF" stroke-width="0.01" width="1" x="77" y="0.4011276739827351"/><rect fill="#2563EB" height="0.6651853387601094" stroke="#EFF6FF" stroke-width="0.01" width="1" x="78" y="0.33481466123989057"/><rect fill="#2563EB" height="0.5743087198259631" stroke="#EFF6FF" stroke-width="0.01" width="1" x="79" y="0.4256912801740369"/><rect fill="#2563EB" height="0.5843789884961146" stroke="#EFF6FF" stroke-width="0.01" width="1" x="80" y="0.4156210115038854"/><rect fill="#2563EB" height="0.581211311462807" stroke="#EFF6FF" stroke-width="0.01" width="1" x="81" y="0.418788688537193"/><rect fill="#2563EB" height="0.600263739201337" stroke="#EFF6FF" stroke-width="0.01" width="1" x="82" y="0.399736260798663"/><rect fill="#2563EB" height="0.6838625763692155" stroke="#EFF6FF" stroke-width="0.01" width="1" x="83" y="0.31613742363078445"/><rect fill="#2563EB" height="0.7135959652113163" stroke="#EFF6FF" stroke-width="0.01" width="1" x="84" y="0.2864040347886837"/><rect fill="#2563EB" height="0.6952265848785134" stroke="#EFF6FF" stroke-width="0.01" width="1" x="85" y="0.3047734151214866"/><rect fill="#2563EB" height="0.6755429990758767" stroke="#EFF6FF" stroke-width="0.01" width="1" x="86" y="0.32445700092412333"/><rect fill="#2563EB" height="0.5972773305226714" stroke="#EFF6FF" stroke-width="0.01" width="1" x="87" y="0.4027226694773286"/><rect fill="#2563EB" height="0.6238104205995421" stroke="#EFF6FF" stroke-width="0.01" width="1" x="88" y="0.37618957940045794"/><rect fill="#2563EB" height="0.5640091999727982" stroke="#EFF6FF" stroke-width="0.01" width="1" x="89" y="0.4359908000272018"/><rect fill="#2563EB" height="0.7019775803702547" stroke="#EFF6FF" stroke-width="0.01" width="1" x="90" y="0.2980224196297453"/><rect fill="#2563EB" height="0.7102067020334129" stroke="#EFF6FF" stroke-width="0.01" width="1" x="91" y="0.28979329796658715"/><rect fill="#2563EB" height="0.7252606439054343" stroke="#EFF6FF" stroke-width="0.01" width="1" x="92" y="0.2747393560945657"/><rect fill="#2563EB" height="0.6273691256144154" stroke="#EFF6FF" stroke-width="0.01" width="1" x="93" y="0.3726308743855846"/><rect fill="#2563EB" height="0.5910110311542917" stroke="#EFF6FF" stroke-width="0.01" width="1" x="94" y="0.40898896884570834"/><rect fill="#2563EB" height="0.6665399184989369" stroke="#EFF6FF" stroke-width="0.01" width="1" x="95" y="0.3334600815010631"/><rect fill="#2563EB" height="0.3691621150989434" stroke="#EFF6FF" stroke-width="0.01" width="1" x="96" y="0.6308378849010565"/><rect fill="#2563EB" height="0.3662342069276903" stroke="#EFF6FF" stroke-width="0.01" width="1" x="97" y="0.6337657930723097"/><rect fill="#2563EB" height="0.48502840810660186" stroke="#EFF6FF" stroke-width="0.01" width="1" x="98" y="0.5149715918933981"/><rect fill="#2563EB" height="0.4143623527774791" stroke="#EFF6FF" stroke-width="0.01" width="1" x="99" y="0.5856376472225209"/></svg>