<svg xmlns="http://www.w3.org/2000/svg" preserveAspectRatio="none" viewBox="0 0 100 1"><rect fill="#2563EB" height="0.3396235228114753" stroke="#EFF6FF" stroke-width="0.01" width="1" x="0" y="0.6603764771885248"/><rect fill="#2563EB" height="0.5723861303564532" stroke="#EFF6FF" stroke-width="0.01" width="1" x="1" y="0.42761386964354675"/><rect fill="#2563EB" height="0.7614616170632846" stroke="#EFF6FF" stroke-width="0.01" width="1" x="2" y="0.23853838293671537"/><rect fill="#2563EB" height="0.5815475102831947" stroke="#EFF6FF" stroke-width="0.01" width="1" x="3" y="0.41845248971680526"/><rect fill="#2563EB" height="0.5587689449100102" stroke="#EFF6FF" stroke-width="0.01" width="1" x="4" y="0.44123105508998983"/><rect fill="#2563EB" height="0.5592629921546025" stroke="#EFF6FF" stroke-width="0.01" width="1" x="5" y="0.4407370078453975"/><rect fill="#2563EB" height="0.5990303114178582" stroke="#EFF6FF" stroke-width="0.01" width="1" x="6" y="0.40096968858214177"/><rect fill="#2563EB" height="0.615504291954599" stroke="#EFF6FF" stroke-width="0.01" width="1" x="7" y="0.384495708045401"/><rect fill="#2563EB" height="0.5235001039158806" stroke="#EFF6FF" stroke-width="0.01" width="1" x="8" y="0.47649989608411936"/><rect fill="#2563EB" height="0.41342101778444007" stroke="#EFF6FF" stroke-width="0.01" width="1" x="9" y="0.5865789822155599"/><rect fill="#2563EB" height="0.44737472545959417" stroke="#EFF6FF" stroke-width="0.01" width="1" x="10" y="0.5526252745404059"/><rect fill="#2563EB" height="0.6042923615937338" stroke="#EFF6FF" stroke-width="0.01" width="1" x="11" y="0.3957076384062662"/><rect fill="#2563EB" height="0.7094310473593114" stroke="#EFF6FF" stroke-width="0.01" width="1" x="12" y="0.2905689526406886"/><rect fill="#2563EB" height="0.6301066097246222" stroke="#EFF6FF" stroke-width="0.01" width="1" x="13" y="0.3698933902753778"/><rect fill="#2563EB" height="0.6708787677637181" stroke="#EFF6FF" stroke-width="0.01" width="1" x="14" y="0.32912123223628187"/><rect fill="#2563EB" height="0.7059836497164891" stroke="#EFF6FF" stroke-width="0.01" width="1" x="15" y="0.2940163502835109"/><rect fill="#2563EB" height="0.5771125464189842" stroke="#EFF6FF" stroke-width="0.01" width="1" x="16" y="0.42288745358101576"/><rect fill="#2563EB" height="0.6645131366004863" stroke="#EFF6FF" stroke-width="0.01" width="1" x="17" y="0.3354868633995137"/><rect fill="#2563EB" height="0.6440354800816033" stroke="#EFF6FF" stroke-width="0.01" width="1" x="18" y="0.3559645199183967"/><rect fill="#2563EB" height="0.48273153445478334" stroke="#EFF6FF" stroke-width="0.01" width="1" x="19" y="0.5172684655452167"/><rect fill="#2563EB" height="0.5609502567075585" stroke="#EFF6FF" stroke-width="0.01" width="1" x="20" y="0.4390497432924415"/><rect fill="#2563EB" height="0.4318847569346298" stroke="#EFF6FF" stroke-width="0.01" width="1" x="21" y="0.5681152430653702"/><rect fill="#2563EB" height="0.5729204860172866" stroke="#EFF6FF" stroke-width="0.01" width="1" x="22" y="0.4270795139827134"/><rect fill="#2563EB" height="0.6985494265080289" stroke="#EFF6FF" stroke-width="0.01" width="1" x="23" y="0.30145057349197113"/><rect fill="#2563EB" height="0.450546302955552" stroke="#EFF6FF" stroke-width="0.01" width="1" x="24" y="0.549453697044448"/><rect fill="#2563EB" height="0.39629779416270194" stroke="#EFF6FF" stroke-width="0.01" width="1" x="25" y="0.6037022058372981"/><rect fill="#2563EB" height="0.47312635031444167" stroke="#EFF6FF" stroke-width="0.01" width="1" x="26" y="0.5268736496855584"/><rect fill="#2563EB" height="0.5289364273618006" stroke="#EFF6FF" stroke-width="0.01" width="1" x="27" y="0.4710635726381994"/><rect fill="#2563EB" height="0.6220774808714276" stroke="#EFF6FF" stroke-width="0.01" width="1" x="28" y="0.37792251912857244"/><rect fill="#2563EB" height="0.343204140486556" stroke="#EFF6FF" stroke-width="0.01" width="1" x="29" y="0.656795859513444"/><rect fill="#2563EB" height="0.5538742011033063" stroke="#EFF6FF" stroke-width="0.01" width="1" x="30" y="0.4461257988966937"/><rect fill="#2563EB" height="0.5086194207845192" stroke="#EFF6FF" stroke-width="0.01" width="1" x="31" y="0.49138057921548084"/><rect fill="#2563EB" height="0.555923923497857" stroke="#EFF6FF" stroke-width="0.01" width="1" x="32" y="0.444076076502143"/><rect fill="#2563EB" height="0.595012265338789" stroke="#EFF6FF" stroke-width="0.01" width="1" x="33" y="0.40498773466121096"/><rect fill="#2563EB" height="0.6907207965678411" stroke="#EFF6FF" stroke-width="0.01" width="1" x="34" y="0.30927920343215887"/><rect fill="#2563EB" height="0.5832126865906184" stroke="#EFF6FF" stroke-width="0.01" width="1" x="35" y="0.4167873134093816"/><rect fill="#2563EB" height="0.43191096776827453" stroke="#EFF6FF" stroke-width="0.01" width="1" x="36" y="0.5680890322317255"/><rect fill="#2563EB" height="0.4811424521279703" stroke="#EFF6FF" stroke-width="0.01" width="1" x="37" y="0.5188575478720296"/><rect fill="#2563EB" height="0.42714703873530946" stroke="#EFF6FF" stroke-width="0.01" width="1" x="38" y="0.5728529612646905"/><rect fill="#2563EB" height="0.6514086532110678" stroke="#EFF6FF" stroke-width="0.01" width="1" x="39" y="0.3485913467889322"/><rect fill="#2563EB" height="0.6515908145825573" stroke="#EFF6FF" stroke-width="0.01" width="1" x="40" y="0.3484091854174427"/><rect fill="#2563EB" height="0.8208954301586932" stroke="#EFF6FF" stroke-width="0.01" width="1" x="41" y="0.17910456984130685"/><rect fill="#2563EB" height="0.6458238646841268" stroke="#EFF6FF" stroke-width="0.01" width="1" x="42" y="0.3541761353158732"/><rect fill="#2563EB" height="0.6752426697575836" stroke="#EFF6FF" stroke-width="0.01" width="1" x="43" y="0.3247573302424164"/><rect fill="#2563EB" height="0.39693032895301333" stroke="#EFF6FF" stroke-width="0.01" width="1" x="44" y="0.6030696710469867"/><rect fill="#2563EB" height="0.43517660220604726" stroke="#EFF6FF" stroke-width="0.01" width="1" x="45" y="0.5648233977939527"/><rect fill="#2563EB" height="0.6605575049547913" stroke="#EFF6FF" stroke-width="0.01" width="1" x="46" y="0.33944249504520874"/><rect fill="#2563EB" height="0.5856404713112232" stroke="#EFF6FF" stroke-width="0.01" width="1" x="47" y="0.4143595286887768"/><rect fill="#2563EB" height="0.688690212567448" stroke="#EFF6FF" stroke-width="0.01" width="1" x="48" y="0.311309787432552"/><rect fill="#2563EB" height="0.8175774637787281" stroke="#EFF6FF" stroke-width="0.01" width="1" x="49" y="0.1824225362212719"/><rect fill="#2563EB" height="0.635317249251167" stroke="#EFF6FF" stroke-width="0.01" width="1" x="50" y="0.36468275074883305"/><rect fill="#2563EB" height="0.6417296274700033" stroke="#EFF6FF" stroke-width="0.01" width="1" x="51" y="0.3582703725299967"/><rect fill="#2563EB" height="0.6018167907828196" stroke="#EFF6FF" stroke-width="0.01" width="1" x="52" y="0.3981832092171804"/><rect fill="#2563EB" height="0.8518917735602816" stroke="#EFF6FF" stroke-width="0.01" width="1" x="53" y="0.14810822643971844"/><rect fill="#2563EB" height="0.5923211768371702" stroke="#EFF6FF" stroke-width="0.01" width="1" x="54" y="0.4076788231628298"/><rect fill="#2563EB" height="0.5025808956797888" stroke="#EFF6FF" stroke-width="0.01" width="1" x="55" y="0.4974191043202112"/><rect fill="#2563EB" height="0.7193478129026244" stroke="#EFF6FF" stroke-width="0.01" width="1" x="56" y="0.2806521870973756"/><rect fill="#2563EB" height="1" stroke="#EFF6FF" stroke-width="0.01" width="1" x="57" y="0"/><rect fill="#2563EB" height="0.7473641152448522" stroke="#EFF6FF" stroke-width="0.01" width="1" x="58" y="0.25263588475514775"/><rect fill="#2563EB" height="0.7151410728756127" stroke="#EFF6FF" stroke-width="0.01" width="1" x="59" y="0.2848589271243873"/><rect fill="#2563EB" height="0.42850213728906283" stroke="#EFF6FF" stroke-width="0.01" width="1" x="60" y="0.5714978627109372"/><rect fill="#2563EB" height="0.5493636545482881" stroke="#EFF6FF" stroke-width="0.01" width="1" x="61" y="0.45063634545171194"/><rect fill="#2563EB" height="0.49975467848218147" stroke="#EFF6FF" stroke-width="0.01" width="1" x="62" y="0.5002453215178185"/><rect fill="#2563EB" height="0.5962214143952117" stroke="#EFF6FF" stroke-width="0.01" width="1" x="63" y="0.4037785856047883"/><rect fill="#2563EB" height="0.6114710590308872" stroke="#EFF6FF" stroke-width="0.01" width="1" x="64" y="0.38852894096911283"/><rect fill="#2563EB" height="0.6870107319901472" stroke="#EFF6FF" stroke-width="0.01" width="1" x="65" y="0.31298926800985283"/><rect fill="#2563EB" height="0.7006900378408015" stroke="#EFF6FF" stroke-width="0.01" width="1" x="66" y="0.2993099621591985"/><rect fill="#2563EB" height="0.36254603642672134" stroke="#EFF6FF" stroke-width="0.01" width="1" x="67" y="0.6374539635732787"/><rect fill="#2563EB" height="0.7265270581262602" stroke="#EFF6FF" stroke-width="0.01" width="1" x="68" y="0.2734729418737398"/><rect fill="#2563EB" height="0.5620381376077974" stroke="#EFF6FF" stroke-width="0.01" width="1" x="69" y="0.4379618623922026"/><rect fill="#2563EB" height="0.5831708395128754" stroke="#EFF6FF" stroke-width="0.01" width="1" x="70" y="0.4168291604871246"/><rect fill="#2563EB" height="0.5939646036222292" stroke="#EFF6FF" stroke-width="0.01" width="1" x="71" y="0.40603539637777075"/><rect fill="#2563EB" height="0.7099202663415571" stroke="#EFF6FF" stroke-width="0.01" width="1" x="72" y="0.29007973365844286"/><rect fill="#2563EB" height="0.6912206612356856" stroke="#EFF6FF" stroke-width="0.01" width="1" x="73" y="0.3087793387643144"/><rect fill="#2563EB" height="0.6303614464668814" stroke="#EFF6FF" stroke-width="0.01" width="1" x="74" y="0.3696385535331186"/><rect fill="#2563EB" height="0.6756093479978377" stroke="#EFF6FF" stroke-width="0.01" width="1" x="75" y="0.3243906520021623"/><rect fill="#2563EB" height="0.7092352328023002" stroke="#EFF6FF" stroke-width="0.01" width="1" x="76" y="0.29076476719769984"/><rect fill="#2563EB" height="0.5018201952384905" stroke="#EFF6FF" stroke-width="0.01" width="1" x="77" y="0.49817980476150947"/><rect fill="#2563EB" height="0.7917896617959134" stroke="#EFF6FF" stroke-width="0.01" width="1" x="78" y="0.20821033820408663"/><rect fill="#2563EB" height="0.690586546361184" stroke="#EFF6FF" stroke-width="0.01" width="1" x="79" y="0.309413453638816"/><rect fill="#2563EB" height="0.6535712798714732" stroke="#EFF6FF" stroke-width="0.01" width="1" x="80" y="0.34642872012852677"/><rect fill="#2563EB" height="0.7970675956971587" stroke="#EFF6FF" stroke-width="0.01" width="1" x="81" y="0.20293240430284132"/><rect fill="#2563EB" height="0.4355163524205809" stroke="#EFF6FF" stroke-width="0.01" width="1" x="82" y="0.564483647579419"/><rect fill="#2563EB" height="0.4451606584355558" stroke="#EFF6FF" stroke-width="0.01" width="1" x="83" y="0.5548393415644441"/><rect fill="#2563EB" height="0.6036325557827551" stroke="#EFF6FF" stroke-width="0.01" width="1" x="84" y="0.3963674442172449"/><rect fill="#2563EB" height="0.4182218835456003" stroke="#EFF6FF" stroke-width="0.01" width="1" x="85" y="0.5817781164543997"/><rect fill="#2563EB" height="0.23931356494274583" stroke="#EFF6FF" stroke-width="0.01" width="1" x="86" y="0.7606864350572542"/><rect fill="#2563EB" height="0.5142200147058703" stroke="#EFF6FF" stroke-width="0.01" width="1" x="87" y="0.4857799852941297"/><rect fill="#2563EB" height="0.5463741063975527" stroke="#EFF6FF" stroke-width="0.01" width="1" x="88" y="0.4536258936024473"/><rect fill="#2563EB" height="0.2693999887415255" stroke="#EFF6FF" stroke-width="0.01" width="1" x="89" y="0.7306000112584745"/><rect fill="#2563EB" height="0.530253879434727" stroke="#EFF6FF" stroke-width="0.01" width="1" x="90" y="0.469746120565273"/><rect fill="#2563EB" height="0.5892132163073182" stroke="#EFF6FF" stroke-width="0.01" width="1" x="91" y="0.41078678369268185"/><rect fill="#2563EB" height="0.5580454308125979" stroke="#EFF6FF" stroke-width="0.01" width="1" x="92" y="0.44195456918740206"/><rect fill="#2563EB" height="0.3453416944809732" stroke="#EFF6FF" stroke-width="0.01" width="1" x="93" y="0.6546583055190268"/><rect fill="#2563EB" height="0.35961354546151747" stroke="#EFF6FF" stroke-width="0.01" width="1" x="94" y="0.6403864545384825"/><rect fill="#2563EB" height="0.30672616914249945" stroke="#EFF6FF" stroke-width="0.01" width="1" x="95" y="0.6932738308575006"/><rect fill="#2563EB" height="0.4816094304148596" stroke="#EFF6FF" stroke-width="0.01" width="1" x="96" y="0.5183905695851404"/><rect fill="#2563EB" height="0.39331904955478925" stroke="#EFF6FF" stroke-width="0.01" width="1" x="97" y="0.6066809504452108"/><rect fill="#2563EB" height="0.3460472383642236" stroke="#EFF6FF" stroke-width="0.01" width="1" x="98" y="0.6539527616357764"/><rect fill="#2563EB" height="0.3494108274540812" stroke="#EFF6FF" stroke-width="0.01" width="1" x="99" y="0.6505891725459187"/></svg>