<svg xmlns="http://www.w3.org/2000/svg" preserveAspectRatio="none" viewBox="0 0 100 1"><rect fill="#2563EB" height="0.15085753248074185" stroke="#EFF6FF" stroke-width="0.01" width="1" x="0" y="0.8491424675192581"/><rect fill="#2563EB" height="0.2987336513053511" stroke="#EFF6FF" stroke-width="0.01" width="1" x="1" y="0.7012663486946489"/><rect fill="#2563EB" height="0.3483820909873386" stroke="#EFF6FF" stroke-width="0.01" width="1" x="2" y="0.6516179090126615"/><rect fill="#2563EB" height="0.4445760105019555" stroke="#EFF6FF" stroke-width="0.01" width="1" x="3" y="0.5554239894980445"/><rect fill="#2563EB" height="0.29094174430585534" stroke="#EFF6FF" stroke-width="0.01" width="1" x="4" y="0.7090582556941447"/><rect fill="#2563EB" height="0.32932250193444645" stroke="#EFF6FF" stroke-width="0.01" width="1" x="5" y="0.6706774980655535"/><rect fill="#2563EB" height="0.23330547487981154" stroke="#EFF6FF" stroke-width="0.01" width="1" x="6" y="0.7666945251201884"/><rect fill="#2563EB" height="0.36670279958723323" stroke="#EFF6FF" stroke-width="0.01" width="1" x="7" y="0.6332972004127668"/><rect fill="#2563EB" height="0.24416983123461472" stroke="#EFF6FF" stroke-width="0.01" width="1" x="8" y="0.7558301687653852"/><rect fill="#2563EB" height="0.30681046933986267" stroke="#EFF6FF" stroke-width="0.01" width="1" x="9" y="0.6931895306601373"/><rect fill="#2563EB" height="0.313113136251265" stroke="#EFF6FF" stroke-width="0.01" width="1" x="10" y="0.686886863748735"/><rect fill="#2563EB" height="0.4496224233310623" stroke="#EFF6FF" stroke-width="0.01" width="1" x="11" y="0.5503775766689377"/><rect fill="#2563EB" height="0.38507840195286447" stroke="#EFF6FF" stroke-width="0.01" width="1" x="12" y="0.6149215980471355"/><rect fill="#2563EB" height="0.44944465959340923" stroke="#EFF6FF" stroke-width="0.01" width="1" x="13" y="0.5505553404065908"/><rect fill="#2563EB" height="0.3328250980510623" stroke="#EFF6FF" stroke-width="0.01" width="1" x="14" y="0.6671749019489377"/><rect fill="#2563EB" height="0.43809805300739674" stroke="#EFF6FF" stroke-width="0.01" width="1" x="15" y="0.5619019469926032"/><rect fill="#2563EB" height="0.40517864723467567" stroke="#EFF6FF" stroke-width="0.01" width="1" x="16" y="0.5948213527653243"/><rect fill="#2563EB" height="0.5550245397038635" stroke="#EFF6FF" stroke-width="0.01" width="1" x="17" y="0.44497546029613655"/><rect fill="#2563EB" height="0.5513859720286008" stroke="#EFF6FF" stroke-width="0.01" width="1" x="18" y="0.44861402797139915"/><rect fill="#2563EB" height="0.5494492796557218" stroke="#EFF6FF" stroke-width="0.01" width="1" x="19" y="0.45055072034427823"/><rect fill="#2563EB" height="0.5043672433095225" stroke="#EFF6FF" stroke-width="0.01" width="1" x="20" y="0.49563275669047746"/><rect fill="#2563EB" height="0.4987773995473075" stroke="#EFF6FF" stroke-width="0.01" width="1" x="21" y="0.5012226004526925"/><rect fill="#2563EB" height="0.4650704518769003" stroke="#EFF6FF" stroke-width="0.01" width="1" x="22" y="0.5349295481230997"/><rect fill="#2563EB" height="0.5551798372825664" stroke="#EFF6FF" stroke-width="0.01" width="1" x="23" y="0.44482016271743363"/><rect fill="#2563EB" height="0.4864228764544972" stroke="#EFF6FF" stroke-width="0.01" width="1" x="24" y="0.5135771235455028"/><rect fill="#2563EB" height="0.5441028437553821" stroke="#EFF6FF" stroke-width="0.01" width="1" x="25" y="0.4558971562446179"/><rect fill="#2563EB" height="0.6529726758785942" stroke="#EFF6FF" stroke-width="0.01" width="1" x="26" y="0.3470273241214058"/><rect fill="#2563EB" height="0.655013938420794" stroke="#EFF6FF" stroke-width="0.01" width="1" x="27" y="0.34498606157920597"/><rect fill="#2563EB" height="0.4609421946757407" stroke="#EFF6FF" stroke-width="0.01" width="1" x="28" y="0.5390578053242593"/><rect fill="#2563EB" height="0.49912898069107303" stroke="#EFF6FF" stroke-width="0.01" width="1" x="29" y="0.500871019308927"/><rect fill="#2563EB" height="0.39934607496938185" stroke="#EFF6FF" stroke-width="0.01" width="1" x="30" y="0.6006539250306182"/><rect fill="#2563EB" height="0.5849432408741279" stroke="#EFF6FF" stroke-width="0.01" width="1" x="31" y="0.41505675912587214"/><rect fill="#2563EB" height="0.625626244336561" stroke="#EFF6FF" stroke-width="0.01" width="1" x="32" y="0.374373755663439"/><rect fill="#2563EB" height="0.6330688457842144" stroke="#EFF6FF" stroke-width="0.01" width="1" x="33" y="0.3669311542157856"/><rect fill="#2563EB" height="0.6603135984992774" stroke="#EFF6FF" stroke-width="0.01" width="1" x="34" y="0.3396864015007226"/><rect fill="#2563EB" height="0.6015873712697606" stroke="#EFF6FF" stroke-width="0.01" width="1" x="35" y="0.3984126287302394"/><rect fill="#2563EB" height="0.5180956112648112" stroke="#EFF6FF" stroke-width="0.01" width="1" x="36" y="0.4819043887351888"/><rect fill="#2563EB" height="0.6217893612146405" stroke="#EFF6FF" stroke-width="0.01" width="1" x="37" y="0.37821063878535954"/><rect fill="#2563EB" height="0.5460604202443733" stroke="#EFF6FF" stroke-width="0.01" width="1" x="38" y="0.4539395797556267"/><rect fill="#2563EB" height="0.7082614907496831" stroke="#EFF6FF" stroke-width="0.01" width="1" x="39" y="0.29173850925031686"/><rect fill="#2563EB" height="0.7459252372245149" stroke="#EFF6FF" stroke-width="0.01" width="1" x="40" y="0.25407476277548513"/><rect fill="#2563EB" height="0.8323444720837068" stroke="#EFF6FF" stroke-width="0.01" width="1" x="41" y="0.16765552791629323"/><rect fill="#2563EB" height="0.9039070513514604" stroke="#EFF6FF" stroke-width="0.01" width="1" x="42" y="0.09609294864853957"/><rect fill="#2563EB" height="0.7368330780128302" stroke="#EFF6FF" stroke-width="0.01" width="1" x="43" y="0.26316692198716984"/><rect fill="#2563EB" height="0.6436177420745874" stroke="#EFF6FF" stroke-width="0.01" width="1" x="44" y="0.35638225792541256"/><rect fill="#2563EB" height="0.7289692079277278" stroke="#EFF6FF" stroke-width="0.01" width="1" x="45" y="0.2710307920722722"/><rect fill="#2563EB" height="0.8984826832127611" stroke="#EFF6FF" stroke-width="0.01" width="1" x="46" y="0.10151731678723885"/><rect fill="#2563EB" height="0.8105739631597828" stroke="#EFF6FF" stroke-width="0.01" width="1" x="47" y="0.1894260368402172"/><rect fill="#2563EB" height="0.6857835502046766" stroke="#EFF6FF" stroke-width="0.01" width="1" x="48" y="0.31421644979532337"/><rect fill="#2563EB" height="0.6106519697708165" stroke="#EFF6FF" stroke-width="0.01" width="1" x="49" y="0.3893480302291835"/><rect fill="#2563EB" height="0.6762041378007007" stroke="#EFF6FF" stroke-width="0.01" width="1" x="50" y="0.32379586219929934"/><rect fill="#2563EB" height="0.5980812786219365" stroke="#EFF6FF" stroke-width="0.01" width="1" x="51" y="0.4019187213780635"/><rect fill="#2563EB" height="0.6109673003155498" stroke="#EFF6FF" stroke-width="0.01" width="1" x="52" y="0.3890326996844502"/><rect fill="#2563EB" height="0.6591866350853979" stroke="#EFF6FF" stroke-width="0.01" width="1" x="53" y="0.3408133649146021"/><rect fill="#2563EB" height="0.6198047842838816" stroke="#EFF6FF" stroke-width="0.01" width="1" x="54" y="0.38019521571611836"/><rect fill="#2563EB" height="0.7787700800286166" stroke="#EFF6FF" stroke-width="0.01" width="1" x="55" y="0.22122991997138342"/><rect fill="#2563EB" height="0.8869708454840112" stroke="#EFF6FF" stroke-width="0.01" width="1" x="56" y="0.11302915451598883"/><rect fill="#2563EB" height="1" stroke="#EFF6FF" stroke-width="0.01" width="1" x="57" y="0"/><rect fill="#2563EB" height="0.7065343977016812" stroke="#EFF6FF" stroke-width="0.01" width="1" x="58" y="0.29346560229831875"/><rect fill="#2563EB" height="0.6447769184515428" stroke="#EFF6FF" stroke-width="0.01" width="1" x="59" y="0.35522308154845716"/><rect fill="#2563EB" height="0.5580636090542098" stroke="#EFF6FF" stroke-width="0.01" width="1" x="60" y="0.4419363909457902"/><rect fill="#2563EB" height="0.6792686279043995" stroke="#EFF6FF" stroke-width="0.01" width="1" x="61" y="0.32073137209560054"/><rect fill="#2563EB" height="0.7428658154213829" stroke="#EFF6FF" stroke-width="0.01" width="1" x="62" y="0.25713418457861714"/><rect fill="#2563EB" height="0.6778121221603166" stroke="#EFF6FF" stroke-width="0.01" width="1" x="63" y="0.3221878778396834"/><rect fill="#2563EB" height="0.49713207425347616" stroke="#EFF6FF" stroke-width="0.01" width="1" x="64" y="0.5028679257465238"/><rect fill="#2563EB" height="0.5225709142194179" stroke="#EFF6FF" stroke-width="0.01" width="1" x="65" y="0.4774290857805821"/><rect fill="#2563EB" height="0.6612168228898011" stroke="#EFF6FF" stroke-width="0.01" width="1" x="66" y="0.3387831771101989"/><rect fill="#2563EB" height="0.6517926142802871" stroke="#EFF6FF" stroke-width="0.01" width="1" x="67" y="0.3482073857197129"/><rect fill="#2563EB" height="0.5059543226149938" stroke="#EFF6FF" stroke-width="0.01" width="1" x="68" y="0.49404567738500615"/><rect fill="#2563EB" height="0.5624009374169158" stroke="#EFF6FF" stroke-width="0.01" width="1" x="69" y="0.43759906258308423"/><rect fill="#2563EB" height="0.6233443858122775" stroke="#EFF6FF" stroke-width="0.01" width="1" x="70" y="0.37665561418772253"/><rect fill="#2563EB" height="0.702186085126401" stroke="#EFF6FF" stroke-width="0.01" width="1" x="71" y="0.297813914873599"/><rect fill="#2563EB" height="0.7412670738035044" stroke="#EFF6FF" stroke-width="0.01" width="1" x="72" y="0.25873292619649557"/><rect fill="#2563EB" height="0.6675546503121632" stroke="#EFF6FF" stroke-width="0.01" width="1" x="73" y="0.3324453496878368"/><rect fill="#2563EB" height="0.6904085103158273" stroke="#EFF6FF" stroke-width="0.01" width="1" x="74" y="0.3095914896841727"/><rect fill="#2563EB" height="0.5851180168475709" stroke="#EFF6FF" stroke-width="0.01" width="1" x="75" y="0.4148819831524291"/><rect fill="#2563EB" height="0.6961691160390397" stroke="#EFF6FF" stroke-width="0.01" width="1" x="76" y="0.30383088396096025"/><rect fill="#2563EB" height="0.7558730787510288" stroke="#EFF6FF" stroke-width="0.01" width="1" x="77" y="0.24412692124897117"/><rect fill="#2563EB" height="0.808164676727278" stroke="#EFF6FF" stroke-width="0.01" width="1" x="78" y="0.191835323272722"/><rect fill="#2563EB" height="0.681775685378045" stroke="#EFF6FF" stroke-width="0.01" width="1" x="79" y="0.318224314621955"/><rect fill="#2563EB" height="0.5695168368454502" stroke="#EFF6FF" stroke-width="0.01" width="1" x="80" y="0.4304831631545498"/><rect fill="#2563EB" height="0.8218714384952247" stroke="#EFF6FF" stroke-width="0.01" width="1" x="81" y="0.1781285615047753"/><rect fill="#2563EB" height="0.8140552693826382" stroke="#EFF6FF" stroke-width="0.01" width="1" x="82" y="0.18594473061736183"/><rect fill="#2563EB" height="0.7120752776043712" stroke="#EFF6FF" stroke-width="0.01" width="1" x="83" y="0.28792472239562883"/><rect fill="#2563EB" height="0.6639642907729786" stroke="#EFF6FF" stroke-width="0.01" width="1" x="84" y="0.3360357092270214"/><rect fill="#2563EB" height="0.6275985170918957" stroke="#EFF6FF" stroke-width="0.01" width="1" x="85" y="0.37240148290810426"/><rect fill="#2563EB" height="0.6564994140122857" stroke="#EFF6FF" stroke-width="0.01" width="1" x="86" y="0.34350058598771427"/><rect fill="#2563EB" height="0.664121028306054" stroke="#EFF6FF" stroke-width="0.01" width="1" x="87" y="0.335878971693946"/><rect fill="#2563EB" height="0.6154996160228423" stroke="#EFF6FF" stroke-width="0.01" width="1" x="88" y="0.3845003839771577"/><rect fill="#2563EB" height="0.6961376215982139" stroke="#EFF6FF" stroke-width="0.01" width="1" x="89" y="0.3038623784017861"/><rect fill="#2563EB" height="0.7252577274437563" stroke="#EFF6FF" stroke-width="0.01" width="1" x="90" y="0.2747422725562437"/><rect fill="#2563EB" height="0.576586710016388" stroke="#EFF6FF" stroke-width="0.01" width="1" x="91" y="0.42341328998361205"/><rect fill="#2563EB" height="0.5674083027483755" stroke="#EFF6FF" stroke-width="0.01" width="1" x="92" y="0.4325916972516245"/><rect fill="#2563EB" height="0.5672745885090051" stroke="#EFF6FF" stroke-width="0.01" width="1" x="93" y="0.43272541149099486"/><rect fill="#2563EB" height="0.6081943218156923" stroke="#EFF6FF" stroke-width="0.01" width="1" x="94" y="0.39180567818430767"/><rect fill="#2563EB" height="0.349728997107474" stroke="#EFF6FF" stroke-width="0.01" width="1" x="95" y="0.650271002892526"/><rect fill="#2563EB" height="0.2186663961141908" stroke="#EFF6FF" stroke-width="0.01" width="1" x="96" y="0.7813336038858092"/><rect fill="#2563EB" height="0.19704397494732764" stroke="#EFF6FF" stroke-width="0.01" width="1" x="97" y="0.8029560250526724"/><rect fill="#2563EB" height="0.1829387722726473" stroke="#EFF6FF" stroke-width="0.01" width="1" x="98" y="0.8170612277273527"/><rect fill="#2563EB" height="0.1844547561937869" stroke="#EFF6FF" stroke-width="0.01" width="1" x="99" y="0.8155452438062131"/></svg>