<svg xmlns="http://www.w3.org/2000/svg" preserveAspectRatio="none" viewBox="0 0 100 1"><rect fill="#2563EB" height="0.504484317899265" stroke="#EFF6FF" stroke-width="0.01" width="1" x="0" y="0.49551568210073504"/><rect fill="#2563EB" height="0.51897733700644" stroke="#EFF6FF" stroke-width="0.01" width="1" x="1" y="0.48102266299356"/><rect fill="#2563EB" height="0.5748964259328231" stroke="#EFF6FF" stroke-width="0.01" width="1" x="2" y="0.4251035740671769"/><rect fill="#2563EB" height="0.7218057597659244" stroke="#EFF6FF" stroke-width="0.01" width="1" x="3" y="0.2781942402340756"/><rect fill="#2563EB" height="0.639887688090168" stroke="#EFF6FF" stroke-width="0.01" width="1" x="4" y="0.36011231190983195"/><rect fill="#2563EB" height="0.825847842862792" stroke="#EFF6FF" stroke-width="0.01" width="1" x="5" y="0.174152157137208"/><rect fill="#2563EB" height="0.8738169599819727" stroke="#EFF6FF" stroke-width="0.01" width="1" x="6" y="0.12618304001802727"/><rect fill="#2563EB" height="0.8289401281457636" stroke="#EFF6FF" stroke-width="0.01" width="1" x="7" y="0.17105987185423643"/><rect fill="#2563EB" height="0.8114242582391875" stroke="#EFF6FF" stroke-width="0.01" width="1" x="8" y="0.1885757417608125"/><rect fill="#2563EB" height="0.832104079515497" stroke="#EFF6FF" stroke-width="0.01" width="1" x="9" y="0.16789592048450297"/><rect fill="#2563EB" height="0.9952729726755541" stroke="#EFF6FF" stroke-width="0.01" width="1" x="10" y="0.004727027324445854"/><rect fill="#2563EB" height="0.8321923882591613" stroke="#EFF6FF" stroke-width="0.01" width="1" x="11" y="0.1678076117408387"/><rect fill="#2563EB" height="0.7383439192226318" stroke="#EFF6FF" stroke-width="0.01" width="1" x="12" y="0.26165608077736824"/><rect fill="#2563EB" height="0.6150969359732539" stroke="#EFF6FF" stroke-width="0.01" width="1" x="13" y="0.3849030640267461"/><rect fill="#2563EB" height="0.5929437629372548" stroke="#EFF6FF" stroke-width="0.01" width="1" x="14" y="0.4070562370627452"/><rect fill="#2563EB" height="0.5165019653135298" stroke="#EFF6FF" stroke-width="0.01" width="1" x="15" y="0.48349803468647023"/><rect fill="#2563EB" height="0.5822934537492588" stroke="#EFF6FF" stroke-width="0.01" width="1" x="16" y="0.4177065462507412"/><rect fill="#2563EB" height="0.6272004229824708" stroke="#EFF6FF" stroke-width="0.01" width="1" x="17" y="0.3727995770175292"/><rect fill="#2563EB" height="0.5940736593135221" stroke="#EFF6FF" stroke-width="0.01" width="1" x="18" y="0.4059263406864779"/><rect fill="#2563EB" height="0.6608263819527544" stroke="#EFF6FF" stroke-width="0.01" width="1" x="19" y="0.33917361804724555"/><rect fill="#2563EB" height="0.7805540330966679" stroke="#EFF6FF" stroke-width="0.01" width="1" x="20" y="0.21944596690333207"/><rect fill="#2563EB" height="0.6600301020747741" stroke="#EFF6FF" stroke-width="0.01" width="1" x="21" y="0.3399698979252259"/><rect fill="#2563EB" height="0.8122273365447163" stroke="#EFF6FF" stroke-width="0.01" width="1" x="22" y="0.18777266345528365"/><rect fill="#2563EB" height="0.7364037224579929" stroke="#EFF6FF" stroke-width="0.01" width="1" x="23" y="0.2635962775420071"/><rect fill="#2563EB" height="0.6955510187383886" stroke="#EFF6FF" stroke-width="0.01" width="1" x="24" y="0.30444898126161135"/><rect fill="#2563EB" height="0.8063530420106552" stroke="#EFF6FF" stroke-width="0.01" width="1" x="25" y="0.19364695798934484"/><rect fill="#2563EB" height="0.8710185111170529" stroke="#EFF6FF" stroke-width="0.01" width="1" x="26" y="0.12898148888294714"/><rect fill="#2563EB" height="0.8404499135673422" stroke="#EFF6FF" stroke-width="0.01" width="1" x="27" y="0.15955008643265778"/><rect fill="#2563EB" height="0.7770489899647468" stroke="#EFF6FF" stroke-width="0.01" width="1" x="28" y="0.2229510100352532"/><rect fill="#2563EB" height="0.7762964341675682" stroke="#EFF6FF" stroke-width="0.01" width="1" x="29" y="0.22370356583243178"/><rect fill="#2563EB" height="0.8711572908000892" stroke="#EFF6FF" stroke-width="0.01" width="1" x="30" y="0.1288427091999108"/><rect fill="#2563EB" height="0.695158149244184" stroke="#EFF6FF" stroke-width="0.01" width="1" x="31" y="0.30484185075581605"/><rect fill="#2563EB" height="0.675506826866137" stroke="#EFF6FF" stroke-width="0.01" width="1" x="32" y="0.32449317313386306"/><rect fill="#2563EB" height="0.5689877473904313" stroke="#EFF6FF" stroke-width="0.01" width="1" x="33" y="0.43101225260956866"/><rect fill="#2563EB" height="0.49510726306850333" stroke="#EFF6FF" stroke-width="0.01" width="1" x="34" y="0.5048927369314966"/><rect fill="#2563EB" height="0.5213265006126333" stroke="#EFF6FF" stroke-width="0.01" width="1" x="35" y="0.4786734993873667"/><rect fill="#2563EB" height="0.5548494191499875" stroke="#EFF6FF" stroke-width="0.01" width="1" x="36" y="0.44515058085001247"/><rect fill="#2563EB" height="0.620081426528604" stroke="#EFF6FF" stroke-width="0.01" width="1" x="37" y="0.379918573471396"/><rect fill="#2563EB" height="0.5988495091797279" stroke="#EFF6FF" stroke-width="0.01" width="1" x="38" y="0.4011504908202721"/><rect fill="#2563EB" height="0.7900883520269139" stroke="#EFF6FF" stroke-width="0.01" width="1" x="39" y="0.20991164797308615"/><rect fill="#2563EB" height="0.6889828916230167" stroke="#EFF6FF" stroke-width="0.01" width="1" x="40" y="0.31101710837698326"/><rect fill="#2563EB" height="0.6951056379652641" stroke="#EFF6FF" stroke-width="0.01" width="1" x="41" y="0.30489436203473586"/><rect fill="#2563EB" height="0.8001882269015463" stroke="#EFF6FF" stroke-width="0.01" width="1" x="42" y="0.19981177309845366"/><rect fill="#2563EB" height="0.6642429200228165" stroke="#EFF6FF" stroke-width="0.01" width="1" x="43" y="0.3357570799771835"/><rect fill="#2563EB" height="0.8761114854389663" stroke="#EFF6FF" stroke-width="0.01" width="1" x="44" y="0.12388851456103367"/><rect fill="#2563EB" height="0.9527571290603645" stroke="#EFF6FF" stroke-width="0.01" width="1" x="45" y="0.04724287093963553"/><rect fill="#2563EB" height="0.8456234787517982" stroke="#EFF6FF" stroke-width="0.01" width="1" x="46" y="0.15437652124820178"/><rect fill="#2563EB" height="0.8271810662676855" stroke="#EFF6FF" stroke-width="0.01" width="1" x="47" y="0.1728189337323145"/><rect fill="#2563EB" height="0.763168035968809" stroke="#EFF6FF" stroke-width="0.01" width="1" x="48" y="0.236831964031191"/><rect fill="#2563EB" height="1" stroke="#EFF6FF" stroke-width="0.01" width="1" x="49" y="0"/><rect fill="#2563EB" height="0.763416258006371" stroke="#EFF6FF" stroke-width="0.01" width="1" x="50" y="0.23658374199362897"/><rect fill="#2563EB" height="0.7120172948666775" stroke="#EFF6FF" stroke-width="0.01" width="1" x="51" y="0.28798270513332247"/><rect fill="#2563EB" height="0.5830840660090372" stroke="#EFF6FF" stroke-width="0.01" width="1" x="52" y="0.41691593399096283"/><rect fill="#2563EB" height="0.45250911912058106" stroke="#EFF6FF" stroke-width="0.01" width="1" x="53" y="0.547490880879419"/><rect fill="#2563EB" height="0.46391671825571834" stroke="#EFF6FF" stroke-width="0.01" width="1" x="54" y="0.5360832817442817"/><rect fill="#2563EB" height="0.5959902006658873" stroke="#EFF6FF" stroke-width="0.01" width="1" x="55" y="0.40400979933411274"/><rect fill="#2563EB" height="0.6144825213129624" stroke="#EFF6FF" stroke-width="0.01" width="1" x="56" y="0.38551747868703756"/><rect fill="#2563EB" height="0.6578082297083926" stroke="#EFF6FF" stroke-width="0.01" width="1" x="57" y="0.3421917702916074"/><rect fill="#2563EB" height="0.7234288968006999" stroke="#EFF6FF" stroke-width="0.01" width="1" x="58" y="0.2765711031993001"/><rect fill="#2563EB" height="0.773902832759442" stroke="#EFF6FF" stroke-width="0.01" width="1" x="59" y="0.22609716724055795"/><rect fill="#2563EB" height="0.7416477419987392" stroke="#EFF6FF" stroke-width="0.01" width="1" x="60" y="0.2583522580012608"/><rect fill="#2563EB" height="0.9874723594060549" stroke="#EFF6FF" stroke-width="0.01" width="1" x="61" y="0.012527640593945066"/><rect fill="#2563EB" height="0.9049331343845185" stroke="#EFF6FF" stroke-width="0.01" width="1" x="62" y="0.0950668656154815"/><rect fill="#2563EB" height="0.8773709056048045" stroke="#EFF6FF" stroke-width="0.01" width="1" x="63" y="0.12262909439519554"/><rect fill="#2563EB" height="0.944060641545546" stroke="#EFF6FF" stroke-width="0.01" width="1" x="64" y="0.05593935845445397"/><rect fill="#2563EB" height="0.8092442388281872" stroke="#EFF6FF" stroke-width="0.01" width="1" x="65" y="0.1907557611718128"/><rect fill="#2563EB" height="0.7998830059202894" stroke="#EFF6FF" stroke-width="0.01" width="1" x="66" y="0.20011699407971062"/><rect fill="#2563EB" height="0.8673148748987615" stroke="#EFF6FF" stroke-width="0.01" width="1" x="67" y="0.13268512510123853"/><rect fill="#2563EB" height="0.8183928350043181" stroke="#EFF6FF" stroke-width="0.01" width="1" x="68" y="0.18160716499568186"/><rect fill="#2563EB" height="0.8045192323243244" stroke="#EFF6FF" stroke-width="0.01" width="1" x="69" y="0.19548076767567557"/><rect fill="#2563EB" height="0.6568871291436401" stroke="#EFF6FF" stroke-width="0.01" width="1" x="70" y="0.3431128708563599"/><rect fill="#2563EB" height="0.6748174041027808" stroke="#EFF6FF" stroke-width="0.01" width="1" x="71" y="0.3251825958972192"/><rect fill="#2563EB" height="0.4641543518410604" stroke="#EFF6FF" stroke-width="0.01" width="1" x="72" y="0.5358456481589395"/><rect fill="#2563EB" height="0.2876063675696666" stroke="#EFF6FF" stroke-width="0.01" width="1" x="73" y="0.7123936324303334"/><rect fill="#2563EB" height="0.24096190003153836" stroke="#EFF6FF" stroke-width="0.01" width="1" x="74" y="0.7590380999684616"/><rect fill="#2563EB" height="0.2734299119118708" stroke="#EFF6FF" stroke-width="0.01" width="1" x="75" y="0.7265700880881292"/><rect fill="#2563EB" height="0.27932417431379525" stroke="#EFF6FF" stroke-width="0.01" width="1" x="76" y="0.7206758256862047"/><rect fill="#2563EB" height="0.23822539149022834" stroke="#EFF6FF" stroke-width="0.01" width="1" x="77" y="0.7617746085097716"/><rect fill="#2563EB" height="0.3901556894658201" stroke="#EFF6FF" stroke-width="0.01" width="1" x="78" y="0.60984431053418"/><rect fill="#2563EB" height="0.5035523057654592" stroke="#EFF6FF" stroke-width="0.01" width="1" x="79" y="0.4964476942345408"/><rect fill="#2563EB" height="0.5249151390198" stroke="#EFF6FF" stroke-width="0.01" width="1" x="80" y="0.4750848609802"/><rect fill="#2563EB" height="0.5388990594716878" stroke="#EFF6FF" stroke-width="0.01" width="1" x="81" y="0.4611009405283122"/><rect fill="#2563EB" height="0.4118499629471544" stroke="#EFF6FF" stroke-width="0.01" width="1" x="82" y="0.5881500370528456"/><rect fill="#2563EB" height="0.6377362456490504" stroke="#EFF6FF" stroke-width="0.01" width="1" x="83" y="0.3622637543509496"/><rect fill="#2563EB" height="0.5549188865465619" stroke="#EFF6FF" stroke-width="0.01" width="1" x="84" y="0.44508111345343815"/><rect fill="#2563EB" height="0.43820816687840636" stroke="#EFF6FF" stroke-width="0.01" width="1" x="85" y="0.5617918331215936"/><rect fill="#2563EB" height="0.4857935767682258" stroke="#EFF6FF" stroke-width="0.01" width="1" x="86" y="0.5142064232317742"/><rect fill="#2563EB" height="0.4804187224757486" stroke="#EFF6FF" stroke-width="0.01" width="1" x="87" y="0.5195812775242514"/><rect fill="#2563EB" height="0.5921298579022597" stroke="#EFF6FF" stroke-width="0.01" width="1" x="88" y="0.4078701420977403"/><rect fill="#2563EB" height="0.535790222302265" stroke="#EFF6FF" stroke-width="0.01" width="1" x="89" y="0.46420977769773497"/><rect fill="#2563EB" height="0.5143168901681777" stroke="#EFF6FF" stroke-width="0.01" width="1" x="90" y="0.4856831098318223"/><rect fill="#2563EB" height="0.43149897372915025" stroke="#EFF6FF" stroke-width="0.01" width="1" x="91" y="0.5685010262708498"/><rect fill="#2563EB" height="0.33531602580585473" stroke="#EFF6FF" stroke-width="0.01" width="1" x="92" y="0.6646839741941453"/><rect fill="#2563EB" height="0.4537278515008804" stroke="#EFF6FF" stroke-width="0.01" width="1" x="93" y="0.5462721484991195"/><rect fill="#2563EB" height="0.3214546399157724" stroke="#EFF6FF" stroke-width="0.01" width="1" x="94" y="0.6785453600842276"/><rect fill="#2563EB" height="0.33213302204394973" stroke="#EFF6FF" stroke-width="0.01" width="1" x="95" y="0.6678669779560502"/><rect fill="#2563EB" height="0.4125122205943587" stroke="#EFF6FF" stroke-width="0.01" width="1" x="96" y="0.5874877794056412"/><rect fill="#2563EB" height="0.4191142081686399" stroke="#EFF6FF" stroke-width="0.01" width="1" x="97" y="0.5808857918313601"/><rect fill="#2563EB" height="0.41743986866640626" stroke="#EFF6FF" stroke-width="0.01" width="1" x="98" y="0.5825601313335937"/><rect fill="#2563EB" height="0.5373621801228606" stroke="#EFF6FF" stroke-width="0.01" width="1" x="99" y="0.46263781987713937"/></svg>