<svg xmlns="http://www.w3.org/2000/svg" preserveAspectRatio="none" viewBox="0 0 100 1"><rect fill="#2563EB" height="0.7189853617953724" stroke="#EFF6FF" stroke-width="0.01" width="1" x="0" y="0.2810146382046276"/><rect fill="#2563EB" height="0.8503418959975017" stroke="#EFF6FF" stroke-width="0.01" width="1" x="1" y="0.14965810400249835"/><rect fill="#2563EB" height="0.9876781244661358" stroke="#EFF6FF" stroke-width="0.01" width="1" x="2" y="0.012321875533864213"/><rect fill="#2563EB" height="0.8571712984964268" stroke="#EFF6FF" stroke-width="0.01" width="1" x="3" y="0.14282870150357319"/><rect fill="#2563EB" height="0.8027637866682953" stroke="#EFF6FF" stroke-width="0.01" width="1" x="4" y="0.1972362133317047"/><rect fill="#2563EB" height="0.8039130917393871" stroke="#EFF6FF" stroke-width="0.01" width="1" x="5" y="0.19608690826061292"/><rect fill="#2563EB" height="0.9541725260773374" stroke="#EFF6FF" stroke-width="0.01" width="1" x="6" y="0.04582747392266262"/><rect fill="#2563EB" height="0.9350097686555359" stroke="#EFF6FF" stroke-width="0.01" width="1" x="7" y="0.06499023134446413"/><rect fill="#2563EB" height="0.8617913723244264" stroke="#EFF6FF" stroke-width="0.01" width="1" x="8" y="0.13820862767557363"/><rect fill="#2563EB" height="0.9030894193258133" stroke="#EFF6FF" stroke-width="0.01" width="1" x="9" y="0.09691058067418667"/><rect fill="#2563EB" height="0.9802416016161016" stroke="#EFF6FF" stroke-width="0.01" width="1" x="10" y="0.019758398383898368"/><rect fill="#2563EB" height="0.8446844000534384" stroke="#EFF6FF" stroke-width="0.01" width="1" x="11" y="0.15531559994656163"/><rect fill="#2563EB" height="0.9019937359692382" stroke="#EFF6FF" stroke-width="0.01" width="1" x="12" y="0.09800626403076185"/><rect fill="#2563EB" height="0.8802683535581508" stroke="#EFF6FF" stroke-width="0.01" width="1" x="13" y="0.1197316464418492"/><rect fill="#2563EB" height="0.8355397301014394" stroke="#EFF6FF" stroke-width="0.01" width="1" x="14" y="0.16446026989856055"/><rect fill="#2563EB" height="0.8277885100133899" stroke="#EFF6FF" stroke-width="0.01" width="1" x="15" y="0.17221148998661007"/><rect fill="#2563EB" height="0.7080228376336831" stroke="#EFF6FF" stroke-width="0.01" width="1" x="16" y="0.2919771623663169"/><rect fill="#2563EB" height="0.7313864820933914" stroke="#EFF6FF" stroke-width="0.01" width="1" x="17" y="0.2686135179066086"/><rect fill="#2563EB" height="0.7367303254620586" stroke="#EFF6FF" stroke-width="0.01" width="1" x="18" y="0.26326967453794137"/><rect fill="#2563EB" height="0.7196173823445948" stroke="#EFF6FF" stroke-width="0.01" width="1" x="19" y="0.2803826176554052"/><rect fill="#2563EB" height="0.7317247072126385" stroke="#EFF6FF" stroke-width="0.01" width="1" x="20" y="0.2682752927873615"/><rect fill="#2563EB" height="0.8178766093275137" stroke="#EFF6FF" stroke-width="0.01" width="1" x="21" y="0.18212339067248628"/><rect fill="#2563EB" height="0.7564858163137684" stroke="#EFF6FF" stroke-width="0.01" width="1" x="22" y="0.24351418368623157"/><rect fill="#2563EB" height="0.7803574353495266" stroke="#EFF6FF" stroke-width="0.01" width="1" x="23" y="0.21964256465047338"/><rect fill="#2563EB" height="0.8024390743213153" stroke="#EFF6FF" stroke-width="0.01" width="1" x="24" y="0.19756092567868466"/><rect fill="#2563EB" height="0.8038630206472683" stroke="#EFF6FF" stroke-width="0.01" width="1" x="25" y="0.19613697935273167"/><rect fill="#2563EB" height="0.9401546001005864" stroke="#EFF6FF" stroke-width="0.01" width="1" x="26" y="0.05984539989941362"/><rect fill="#2563EB" height="0.8053672782611592" stroke="#EFF6FF" stroke-width="0.01" width="1" x="27" y="0.19463272173884083"/><rect fill="#2563EB" height="0.8305077109421615" stroke="#EFF6FF" stroke-width="0.01" width="1" x="28" y="0.16949228905783853"/><rect fill="#2563EB" height="0.8783385828046997" stroke="#EFF6FF" stroke-width="0.01" width="1" x="29" y="0.12166141719530033"/><rect fill="#2563EB" height="0.7931375089556751" stroke="#EFF6FF" stroke-width="0.01" width="1" x="30" y="0.20686249104432486"/><rect fill="#2563EB" height="0.8336706807325985" stroke="#EFF6FF" stroke-width="0.01" width="1" x="31" y="0.16632931926740147"/><rect fill="#2563EB" height="0.7345212663187528" stroke="#EFF6FF" stroke-width="0.01" width="1" x="32" y="0.2654787336812472"/><rect fill="#2563EB" height="0.8910119345037997" stroke="#EFF6FF" stroke-width="0.01" width="1" x="33" y="0.10898806549620033"/><rect fill="#2563EB" height="0.8117866977565055" stroke="#EFF6FF" stroke-width="0.01" width="1" x="34" y="0.18821330224349453"/><rect fill="#2563EB" height="0.7224706411042194" stroke="#EFF6FF" stroke-width="0.01" width="1" x="35" y="0.27752935889578056"/><rect fill="#2563EB" height="0.6144368935370266" stroke="#EFF6FF" stroke-width="0.01" width="1" x="36" y="0.3855631064629734"/><rect fill="#2563EB" height="0.6961125106234566" stroke="#EFF6FF" stroke-width="0.01" width="1" x="37" y="0.3038874893765434"/><rect fill="#2563EB" height="0.8532370254147144" stroke="#EFF6FF" stroke-width="0.01" width="1" x="38" y="0.14676297458528564"/><rect fill="#2563EB" height="0.9015882425324447" stroke="#EFF6FF" stroke-width="0.01" width="1" x="39" y="0.09841175746755526"/><rect fill="#2563EB" height="0.8118187938114151" stroke="#EFF6FF" stroke-width="0.01" width="1" x="40" y="0.18818120618858492"/><rect fill="#2563EB" height="0.7874839342622842" stroke="#EFF6FF" stroke-width="0.01" width="1" x="41" y="0.21251606573771575"/><rect fill="#2563EB" height="0.9570232044765766" stroke="#EFF6FF" stroke-width="0.01" width="1" x="42" y="0.04297679552342337"/><rect fill="#2563EB" height="0.7905065265851265" stroke="#EFF6FF" stroke-width="0.01" width="1" x="43" y="0.20949347341487345"/><rect fill="#2563EB" height="0.7261308873869062" stroke="#EFF6FF" stroke-width="0.01" width="1" x="44" y="0.27386911261309377"/><rect fill="#2563EB" height="0.7363879117303986" stroke="#EFF6FF" stroke-width="0.01" width="1" x="45" y="0.26361208826960136"/><rect fill="#2563EB" height="0.7842528602205291" stroke="#EFF6FF" stroke-width="0.01" width="1" x="46" y="0.2157471397794709"/><rect fill="#2563EB" height="0.6615671143104734" stroke="#EFF6FF" stroke-width="0.01" width="1" x="47" y="0.33843288568952656"/><rect fill="#2563EB" height="0.6196895214712402" stroke="#EFF6FF" stroke-width="0.01" width="1" x="48" y="0.38031047852875977"/><rect fill="#2563EB" height="0.8216434552142826" stroke="#EFF6FF" stroke-width="0.01" width="1" x="49" y="0.17835654478571739"/><rect fill="#2563EB" height="0.9476394676963593" stroke="#EFF6FF" stroke-width="0.01" width="1" x="50" y="0.05236053230364068"/><rect fill="#2563EB" height="0.9716037011331555" stroke="#EFF6FF" stroke-width="0.01" width="1" x="51" y="0.02839629886684447"/><rect fill="#2563EB" height="0.8246260125129999" stroke="#EFF6FF" stroke-width="0.01" width="1" x="52" y="0.17537398748700006"/><rect fill="#2563EB" height="0.776947560305674" stroke="#EFF6FF" stroke-width="0.01" width="1" x="53" y="0.22305243969432598"/><rect fill="#2563EB" height="1" stroke="#EFF6FF" stroke-width="0.01" width="1" x="54" y="0"/><rect fill="#2563EB" height="0.8964075197367194" stroke="#EFF6FF" stroke-width="0.01" width="1" x="55" y="0.1035924802632806"/><rect fill="#2563EB" height="0.8187361859146499" stroke="#EFF6FF" stroke-width="0.01" width="1" x="56" y="0.18126381408535008"/><rect fill="#2563EB" height="0.7694791763338575" stroke="#EFF6FF" stroke-width="0.01" width="1" x="57" y="0.23052082366614246"/><rect fill="#2563EB" height="0.9015374098196685" stroke="#EFF6FF" stroke-width="0.01" width="1" x="58" y="0.09846259018033154"/><rect fill="#2563EB" height="0.8210228262210874" stroke="#EFF6FF" stroke-width="0.01" width="1" x="59" y="0.17897717377891265"/><rect fill="#2563EB" height="0.7730753344549802" stroke="#EFF6FF" stroke-width="0.01" width="1" x="60" y="0.22692466554501978"/><rect fill="#2563EB" height="0.8007900797923792" stroke="#EFF6FF" stroke-width="0.01" width="1" x="61" y="0.19920992020762085"/><rect fill="#2563EB" height="0.8622436172570406" stroke="#EFF6FF" stroke-width="0.01" width="1" x="62" y="0.13775638274295943"/><rect fill="#2563EB" height="0.6997388725487663" stroke="#EFF6FF" stroke-width="0.01" width="1" x="63" y="0.3002611274512337"/><rect fill="#2563EB" height="0.8118369971999158" stroke="#EFF6FF" stroke-width="0.01" width="1" x="64" y="0.18816300280008424"/><rect fill="#2563EB" height="0.7710702421603041" stroke="#EFF6FF" stroke-width="0.01" width="1" x="65" y="0.22892975783969594"/><rect fill="#2563EB" height="0.7509732592810051" stroke="#EFF6FF" stroke-width="0.01" width="1" x="66" y="0.2490267407189949"/><rect fill="#2563EB" height="0.6374115696051114" stroke="#EFF6FF" stroke-width="0.01" width="1" x="67" y="0.36258843039488864"/><rect fill="#2563EB" height="0.7107349511452717" stroke="#EFF6FF" stroke-width="0.01" width="1" x="68" y="0.28926504885472826"/><rect fill="#2563EB" height="0.7308140716080377" stroke="#EFF6FF" stroke-width="0.01" width="1" x="69" y="0.2691859283919623"/><rect fill="#2563EB" height="0.8756804941329974" stroke="#EFF6FF" stroke-width="0.01" width="1" x="70" y="0.12431950586700258"/><rect fill="#2563EB" height="0.7677411838403069" stroke="#EFF6FF" stroke-width="0.01" width="1" x="71" y="0.23225881615969313"/><rect fill="#2563EB" height="0.7974695139573662" stroke="#EFF6FF" stroke-width="0.01" width="1" x="72" y="0.2025304860426338"/><rect fill="#2563EB" height="0.8761452033245143" stroke="#EFF6FF" stroke-width="0.01" width="1" x="73" y="0.12385479667548571"/><rect fill="#2563EB" height="0.8667231526218707" stroke="#EFF6FF" stroke-width="0.01" width="1" x="74" y="0.13327684737812928"/><rect fill="#2563EB" height="0.9051378417881861" stroke="#EFF6FF" stroke-width="0.01" width="1" x="75" y="0.09486215821181387"/><rect fill="#2563EB" height="0.8664232643079482" stroke="#EFF6FF" stroke-width="0.01" width="1" x="76" y="0.13357673569205175"/><rect fill="#2563EB" height="0.8502410560458419" stroke="#EFF6FF" stroke-width="0.01" width="1" x="77" y="0.14975894395415812"/><rect fill="#2563EB" height="0.9234989259066639" stroke="#EFF6FF" stroke-width="0.01" width="1" x="78" y="0.07650107409333606"/><rect fill="#2563EB" height="0.7556166996945914" stroke="#EFF6FF" stroke-width="0.01" width="1" x="79" y="0.24438330030540856"/><rect fill="#2563EB" height="0.8338879666387901" stroke="#EFF6FF" stroke-width="0.01" width="1" x="80" y="0.16611203336120994"/><rect fill="#2563EB" height="0.74234561459187" stroke="#EFF6FF" stroke-width="0.01" width="1" x="81" y="0.25765438540813"/><rect fill="#2563EB" height="0.7395223548156272" stroke="#EFF6FF" stroke-width="0.01" width="1" x="82" y="0.2604776451843728"/><rect fill="#2563EB" height="0.5978612846752638" stroke="#EFF6FF" stroke-width="0.01" width="1" x="83" y="0.4021387153247362"/><rect fill="#2563EB" height="0.6578476056033894" stroke="#EFF6FF" stroke-width="0.01" width="1" x="84" y="0.3421523943966106"/><rect fill="#2563EB" height="0.6825721103554278" stroke="#EFF6FF" stroke-width="0.01" width="1" x="85" y="0.31742788964457225"/><rect fill="#2563EB" height="0.861327879559247" stroke="#EFF6FF" stroke-width="0.01" width="1" x="86" y="0.13867212044075305"/><rect fill="#2563EB" height="0.7036997765352847" stroke="#EFF6FF" stroke-width="0.01" width="1" x="87" y="0.2963002234647153"/><rect fill="#2563EB" height="0.7978779230615014" stroke="#EFF6FF" stroke-width="0.01" width="1" x="88" y="0.2021220769384986"/><rect fill="#2563EB" height="0.8365843822162975" stroke="#EFF6FF" stroke-width="0.01" width="1" x="89" y="0.1634156177837025"/><rect fill="#2563EB" height="0.8276135960043601" stroke="#EFF6FF" stroke-width="0.01" width="1" x="90" y="0.17238640399563987"/><rect fill="#2563EB" height="0.7742523785413258" stroke="#EFF6FF" stroke-width="0.01" width="1" x="91" y="0.22574762145867422"/><rect fill="#2563EB" height="0.8681274991162772" stroke="#EFF6FF" stroke-width="0.01" width="1" x="92" y="0.13187250088372282"/><rect fill="#2563EB" height="0.7136991616091721" stroke="#EFF6FF" stroke-width="0.01" width="1" x="93" y="0.28630083839082787"/><rect fill="#2563EB" height="0.8970474658178051" stroke="#EFF6FF" stroke-width="0.01" width="1" x="94" y="0.10295253418219485"/><rect fill="#2563EB" height="0.38486546454678944" stroke="#EFF6FF" stroke-width="0.01" width="1" x="95" y="0.6151345354532105"/><rect fill="#2563EB" height="0.34863134444171034" stroke="#EFF6FF" stroke-width="0.01" width="1" x="96" y="0.6513686555582896"/><rect fill="#2563EB" height="0.4437878216323597" stroke="#EFF6FF" stroke-width="0.01" width="1" x="97" y="0.5562121783676404"/><rect fill="#2563EB" height="0.40936884684956626" stroke="#EFF6FF" stroke-width="0.01" width="1" x="98" y="0.5906311531504338"/><rect fill="#2563EB" height="0.38947236402938373" stroke="#EFF6FF" stroke-width="0.01" width="1" x="99" y="0.6105276359706162"/></svg>