<svg xmlns="http://www.w3.org/2000/svg" preserveAspectRatio="none" viewBox="0 0 100 1"><rect fill="#2563EB" height="0.5146797339090118" stroke="#EFF6FF" stroke-width="0.01" width="1" x="0" y="0.4853202660909882"/><rect fill="#2563EB" height="0.7667462094824087" stroke="#EFF6FF" stroke-width="0.01" width="1" x="1" y="0.23325379051759132"/><rect fill="#2563EB" height="0.5642873575687635" stroke="#EFF6FF" stroke-width="0.01" width="1" x="2" y="0.43571264243123653"/><rect fill="#2563EB" height="0.5449345629351464" stroke="#EFF6FF" stroke-width="0.01" width="1" x="3" y="0.4550654370648536"/><rect fill="#2563EB" height="0.5466321211791006" stroke="#EFF6FF" stroke-width="0.01" width="1" x="4" y="0.45336787882089935"/><rect fill="#2563EB" height="0.4877107329750204" stroke="#EFF6FF" stroke-width="0.01" width="1" x="5" y="0.5122892670249797"/><rect fill="#2563EB" height="0.5630343299204719" stroke="#EFF6FF" stroke-width="0.01" width="1" x="6" y="0.43696567007952813"/><rect fill="#2563EB" height="0.5939859122017055" stroke="#EFF6FF" stroke-width="0.01" width="1" x="7" y="0.4060140877982945"/><rect fill="#2563EB" height="0.5520117893712002" stroke="#EFF6FF" stroke-width="0.01" width="1" x="8" y="0.4479882106287998"/><rect fill="#2563EB" height="0.6834926062240577" stroke="#EFF6FF" stroke-width="0.01" width="1" x="9" y="0.3165073937759423"/><rect fill="#2563EB" height="0.45356634827542275" stroke="#EFF6FF" stroke-width="0.01" width="1" x="10" y="0.5464336517245773"/><rect fill="#2563EB" height="0.6426189748658989" stroke="#EFF6FF" stroke-width="0.01" width="1" x="11" y="0.3573810251341011"/><rect fill="#2563EB" height="0.6741211599165692" stroke="#EFF6FF" stroke-width="0.01" width="1" x="12" y="0.3258788400834308"/><rect fill="#2563EB" height="0.5055874688920492" stroke="#EFF6FF" stroke-width="0.01" width="1" x="13" y="0.4944125311079508"/><rect fill="#2563EB" height="0.5944974603819164" stroke="#EFF6FF" stroke-width="0.01" width="1" x="14" y="0.4055025396180836"/><rect fill="#2563EB" height="0.6580749762575484" stroke="#EFF6FF" stroke-width="0.01" width="1" x="15" y="0.3419250237424516"/><rect fill="#2563EB" height="0.5286517082235184" stroke="#EFF6FF" stroke-width="0.01" width="1" x="16" y="0.47134829177648163"/><rect fill="#2563EB" height="0.5253494435178069" stroke="#EFF6FF" stroke-width="0.01" width="1" x="17" y="0.4746505564821931"/><rect fill="#2563EB" height="0.5638054892512524" stroke="#EFF6FF" stroke-width="0.01" width="1" x="18" y="0.4361945107487476"/><rect fill="#2563EB" height="0.5903179179378831" stroke="#EFF6FF" stroke-width="0.01" width="1" x="19" y="0.40968208206211687"/><rect fill="#2563EB" height="0.6849020394421701" stroke="#EFF6FF" stroke-width="0.01" width="1" x="20" y="0.3150979605578299"/><rect fill="#2563EB" height="0.708572733461707" stroke="#EFF6FF" stroke-width="0.01" width="1" x="21" y="0.291427266538293"/><rect fill="#2563EB" height="0.6380380800027705" stroke="#EFF6FF" stroke-width="0.01" width="1" x="22" y="0.3619619199972295"/><rect fill="#2563EB" height="0.6324752217322617" stroke="#EFF6FF" stroke-width="0.01" width="1" x="23" y="0.36752477826773833"/><rect fill="#2563EB" height="0.5794678066122715" stroke="#EFF6FF" stroke-width="0.01" width="1" x="24" y="0.4205321933877285"/><rect fill="#2563EB" height="0.6233003701509455" stroke="#EFF6FF" stroke-width="0.01" width="1" x="25" y="0.3766996298490545"/><rect fill="#2563EB" height="0.8008274002965305" stroke="#EFF6FF" stroke-width="0.01" width="1" x="26" y="0.19917259970346946"/><rect fill="#2563EB" height="0.8814888813835651" stroke="#EFF6FF" stroke-width="0.01" width="1" x="27" y="0.11851111861643493"/><rect fill="#2563EB" height="0.7679430095383344" stroke="#EFF6FF" stroke-width="0.01" width="1" x="28" y="0.2320569904616656"/><rect fill="#2563EB" height="0.6678790798884744" stroke="#EFF6FF" stroke-width="0.01" width="1" x="29" y="0.3321209201115256"/><rect fill="#2563EB" height="0.7879835831951199" stroke="#EFF6FF" stroke-width="0.01" width="1" x="30" y="0.21201641680488015"/><rect fill="#2563EB" height="0.713908390398272" stroke="#EFF6FF" stroke-width="0.01" width="1" x="31" y="0.28609160960172797"/><rect fill="#2563EB" height="0.7320641808915077" stroke="#EFF6FF" stroke-width="0.01" width="1" x="32" y="0.2679358191084923"/><rect fill="#2563EB" height="0.8066174567915106" stroke="#EFF6FF" stroke-width="0.01" width="1" x="33" y="0.19338254320848935"/><rect fill="#2563EB" height="0.8599764128826768" stroke="#EFF6FF" stroke-width="0.01" width="1" x="34" y="0.1400235871173232"/><rect fill="#2563EB" height="0.6471321099704244" stroke="#EFF6FF" stroke-width="0.01" width="1" x="35" y="0.35286789002957564"/><rect fill="#2563EB" height="0.7894721529522631" stroke="#EFF6FF" stroke-width="0.01" width="1" x="36" y="0.21052784704773686"/><rect fill="#2563EB" height="0.7993372236376289" stroke="#EFF6FF" stroke-width="0.01" width="1" x="37" y="0.20066277636237106"/><rect fill="#2563EB" height="0.6369640344911507" stroke="#EFF6FF" stroke-width="0.01" width="1" x="38" y="0.3630359655088493"/><rect fill="#2563EB" height="0.8661929951865995" stroke="#EFF6FF" stroke-width="0.01" width="1" x="39" y="0.13380700481340047"/><rect fill="#2563EB" height="0.794195086417726" stroke="#EFF6FF" stroke-width="0.01" width="1" x="40" y="0.20580491358227404"/><rect fill="#2563EB" height="0.6137276524296695" stroke="#EFF6FF" stroke-width="0.01" width="1" x="41" y="0.38627234757033047"/><rect fill="#2563EB" height="0.7316781207697549" stroke="#EFF6FF" stroke-width="0.01" width="1" x="42" y="0.2683218792302451"/><rect fill="#2563EB" height="0.7816753665849665" stroke="#EFF6FF" stroke-width="0.01" width="1" x="43" y="0.2183246334150335"/><rect fill="#2563EB" height="0.7095809413385483" stroke="#EFF6FF" stroke-width="0.01" width="1" x="44" y="0.2904190586614517"/><rect fill="#2563EB" height="0.8958478116653985" stroke="#EFF6FF" stroke-width="0.01" width="1" x="45" y="0.10415218833460149"/><rect fill="#2563EB" height="0.7330896527725191" stroke="#EFF6FF" stroke-width="0.01" width="1" x="46" y="0.26691034722748086"/><rect fill="#2563EB" height="0.7469413564604798" stroke="#EFF6FF" stroke-width="0.01" width="1" x="47" y="0.25305864353952023"/><rect fill="#2563EB" height="0.7798764925187559" stroke="#EFF6FF" stroke-width="0.01" width="1" x="48" y="0.2201235074812441"/><rect fill="#2563EB" height="0.7823631860546937" stroke="#EFF6FF" stroke-width="0.01" width="1" x="49" y="0.21763681394530632"/><rect fill="#2563EB" height="0.7374207124035581" stroke="#EFF6FF" stroke-width="0.01" width="1" x="50" y="0.2625792875964419"/><rect fill="#2563EB" height="0.8546363290830853" stroke="#EFF6FF" stroke-width="0.01" width="1" x="51" y="0.1453636709169147"/><rect fill="#2563EB" height="0.7856989594863284" stroke="#EFF6FF" stroke-width="0.01" width="1" x="52" y="0.2143010405136716"/><rect fill="#2563EB" height="0.7966400592800695" stroke="#EFF6FF" stroke-width="0.01" width="1" x="53" y="0.20335994071993047"/><rect fill="#2563EB" height="0.5839428742836172" stroke="#EFF6FF" stroke-width="0.01" width="1" x="54" y="0.41605712571638276"/><rect fill="#2563EB" height="0.776950656603902" stroke="#EFF6FF" stroke-width="0.01" width="1" x="55" y="0.22304934339609805"/><rect fill="#2563EB" height="0.8087264732236111" stroke="#EFF6FF" stroke-width="0.01" width="1" x="56" y="0.19127352677638887"/><rect fill="#2563EB" height="0.598117338993947" stroke="#EFF6FF" stroke-width="0.01" width="1" x="57" y="0.40188266100605297"/><rect fill="#2563EB" height="0.8328468271094133" stroke="#EFF6FF" stroke-width="0.01" width="1" x="58" y="0.16715317289058673"/><rect fill="#2563EB" height="0.8661514587100049" stroke="#EFF6FF" stroke-width="0.01" width="1" x="59" y="0.13384854128999513"/><rect fill="#2563EB" height="0.6508793355671199" stroke="#EFF6FF" stroke-width="0.01" width="1" x="60" y="0.34912066443288015"/><rect fill="#2563EB" height="0.7747442025496701" stroke="#EFF6FF" stroke-width="0.01" width="1" x="61" y="0.22525579745032986"/><rect fill="#2563EB" height="0.7683166788337074" stroke="#EFF6FF" stroke-width="0.01" width="1" x="62" y="0.23168332116629264"/><rect fill="#2563EB" height="0.7927028207197298" stroke="#EFF6FF" stroke-width="0.01" width="1" x="63" y="0.20729717928027025"/><rect fill="#2563EB" height="0.8593271818482068" stroke="#EFF6FF" stroke-width="0.01" width="1" x="64" y="0.14067281815179322"/><rect fill="#2563EB" height="0.8364351059343259" stroke="#EFF6FF" stroke-width="0.01" width="1" x="65" y="0.1635648940656741"/><rect fill="#2563EB" height="0.7511023594075393" stroke="#EFF6FF" stroke-width="0.01" width="1" x="66" y="0.24889764059246067"/><rect fill="#2563EB" height="0.7599385602382017" stroke="#EFF6FF" stroke-width="0.01" width="1" x="67" y="0.24006143976179828"/><rect fill="#2563EB" height="0.8069317512891272" stroke="#EFF6FF" stroke-width="0.01" width="1" x="68" y="0.1930682487108728"/><rect fill="#2563EB" height="0.710278684897313" stroke="#EFF6FF" stroke-width="0.01" width="1" x="69" y="0.28972131510268695"/><rect fill="#2563EB" height="0.789799612953695" stroke="#EFF6FF" stroke-width="0.01" width="1" x="70" y="0.21020038704630495"/><rect fill="#2563EB" height="1" stroke="#EFF6FF" stroke-width="0.01" width="1" x="71" y="0"/><rect fill="#2563EB" height="0.8152534102341644" stroke="#EFF6FF" stroke-width="0.01" width="1" x="72" y="0.18474658976583558"/><rect fill="#2563EB" height="0.7417475422136856" stroke="#EFF6FF" stroke-width="0.01" width="1" x="73" y="0.25825245778631445"/><rect fill="#2563EB" height="0.8132541919193289" stroke="#EFF6FF" stroke-width="0.01" width="1" x="74" y="0.1867458080806711"/><rect fill="#2563EB" height="0.7839306272638388" stroke="#EFF6FF" stroke-width="0.01" width="1" x="75" y="0.21606937273616122"/><rect fill="#2563EB" height="0.7219303045844369" stroke="#EFF6FF" stroke-width="0.01" width="1" x="76" y="0.27806969541556315"/><rect fill="#2563EB" height="0.8819599329249429" stroke="#EFF6FF" stroke-width="0.01" width="1" x="77" y="0.1180400670750571"/><rect fill="#2563EB" height="0.9399764762260058" stroke="#EFF6FF" stroke-width="0.01" width="1" x="78" y="0.060023523773994225"/><rect fill="#2563EB" height="0.6988650736149298" stroke="#EFF6FF" stroke-width="0.01" width="1" x="79" y="0.3011349263850702"/><rect fill="#2563EB" height="0.7686966940712358" stroke="#EFF6FF" stroke-width="0.01" width="1" x="80" y="0.23130330592876425"/><rect fill="#2563EB" height="0.8374036582281675" stroke="#EFF6FF" stroke-width="0.01" width="1" x="81" y="0.16259634177183246"/><rect fill="#2563EB" height="0.6611661474691374" stroke="#EFF6FF" stroke-width="0.01" width="1" x="82" y="0.3388338525308626"/><rect fill="#2563EB" height="0.8393456028322682" stroke="#EFF6FF" stroke-width="0.01" width="1" x="83" y="0.16065439716773178"/><rect fill="#2563EB" height="0.9378988163882666" stroke="#EFF6FF" stroke-width="0.01" width="1" x="84" y="0.062101183611733446"/><rect fill="#2563EB" height="0.7895902994491024" stroke="#EFF6FF" stroke-width="0.01" width="1" x="85" y="0.21040970055089758"/><rect fill="#2563EB" height="0.7536654244016188" stroke="#EFF6FF" stroke-width="0.01" width="1" x="86" y="0.24633457559838123"/><rect fill="#2563EB" height="0.8484674758024615" stroke="#EFF6FF" stroke-width="0.01" width="1" x="87" y="0.1515325241975385"/><rect fill="#2563EB" height="0.7779893873603546" stroke="#EFF6FF" stroke-width="0.01" width="1" x="88" y="0.2220106126396454"/><rect fill="#2563EB" height="0.7411061605078032" stroke="#EFF6FF" stroke-width="0.01" width="1" x="89" y="0.2588938394921968"/><rect fill="#2563EB" height="0.9166012383287975" stroke="#EFF6FF" stroke-width="0.01" width="1" x="90" y="0.08339876167120253"/><rect fill="#2563EB" height="0.7420844540650441" stroke="#EFF6FF" stroke-width="0.01" width="1" x="91" y="0.2579155459349559"/><rect fill="#2563EB" height="0.7176400176292499" stroke="#EFF6FF" stroke-width="0.01" width="1" x="92" y="0.2823599823707501"/><rect fill="#2563EB" height="0.8414233433644887" stroke="#EFF6FF" stroke-width="0.01" width="1" x="93" y="0.15857665663551135"/><rect fill="#2563EB" height="0.7864272360453439" stroke="#EFF6FF" stroke-width="0.01" width="1" x="94" y="0.21357276395465608"/><rect fill="#2563EB" height="0.790256394782323" stroke="#EFF6FF" stroke-width="0.01" width="1" x="95" y="0.209743605217677"/><rect fill="#2563EB" height="0.419571337214348" stroke="#EFF6FF" stroke-width="0.01" width="1" x="96" y="0.5804286627856521"/><rect fill="#2563EB" height="0.3439067942564366" stroke="#EFF6FF" stroke-width="0.01" width="1" x="97" y="0.6560932057435633"/><rect fill="#2563EB" height="0.5276714745492549" stroke="#EFF6FF" stroke-width="0.01" width="1" x="98" y="0.4723285254507451"/><rect fill="#2563EB" height="0.3537432363021501" stroke="#EFF6FF" stroke-width="0.01" width="1" x="99" y="0.6462567636978499"/></svg>