<svg xmlns="http://www.w3.org/2000/svg" preserveAspectRatio="none" viewBox="0 0 100 1"><rect fill="#2563EB" height="0.6531579737612515" stroke="#EFF6FF" stroke-width="0.01" width="1" x="0" y="0.3468420262387485"/><rect fill="#2563EB" height="0.5959867264363612" stroke="#EFF6FF" stroke-width="0.01" width="1" x="1" y="0.4040132735636388"/><rect fill="#2563EB" height="0.6519903530760416" stroke="#EFF6FF" stroke-width="0.01" width="1" x="2" y="0.3480096469239584"/><rect fill="#2563EB" height="0.6184909751172378" stroke="#EFF6FF" stroke-width="0.01" width="1" x="3" y="0.38150902488276217"/><rect fill="#2563EB" height="0.7469066674254643" stroke="#EFF6FF" stroke-width="0.01" width="1" x="4" y="0.2530933325745357"/><rect fill="#2563EB" height="0.8574323009870082" stroke="#EFF6FF" stroke-width="0.01" width="1" x="5" y="0.14256769901299182"/><rect fill="#2563EB" height="0.6692618623708215" stroke="#EFF6FF" stroke-width="0.01" width="1" x="6" y="0.3307381376291785"/><rect fill="#2563EB" height="0.5388795762937009" stroke="#EFF6FF" stroke-width="0.01" width="1" x="7" y="0.46112042370629913"/><rect fill="#2563EB" height="0.5673201025497595" stroke="#EFF6FF" stroke-width="0.01" width="1" x="8" y="0.4326798974502405"/><rect fill="#2563EB" height="0.5719855317576543" stroke="#EFF6FF" stroke-width="0.01" width="1" x="9" y="0.4280144682423457"/><rect fill="#2563EB" height="0.7867266033318608" stroke="#EFF6FF" stroke-width="0.01" width="1" x="10" y="0.21327339666813916"/><rect fill="#2563EB" height="0.6443682078487236" stroke="#EFF6FF" stroke-width="0.01" width="1" x="11" y="0.3556317921512764"/><rect fill="#2563EB" height="0.5907326789838566" stroke="#EFF6FF" stroke-width="0.01" width="1" x="12" y="0.4092673210161434"/><rect fill="#2563EB" height="0.5913516558556214" stroke="#EFF6FF" stroke-width="0.01" width="1" x="13" y="0.40864834414437856"/><rect fill="#2563EB" height="0.6821257282395264" stroke="#EFF6FF" stroke-width="0.01" width="1" x="14" y="0.31787427176047356"/><rect fill="#2563EB" height="0.7833386863787564" stroke="#EFF6FF" stroke-width="0.01" width="1" x="15" y="0.21666131362124363"/><rect fill="#2563EB" height="0.5808769394143528" stroke="#EFF6FF" stroke-width="0.01" width="1" x="16" y="0.4191230605856472"/><rect fill="#2563EB" height="0.5647363030247504" stroke="#EFF6FF" stroke-width="0.01" width="1" x="17" y="0.4352636969752496"/><rect fill="#2563EB" height="0.5253810754810866" stroke="#EFF6FF" stroke-width="0.01" width="1" x="18" y="0.4746189245189134"/><rect fill="#2563EB" height="0.7048844977634428" stroke="#EFF6FF" stroke-width="0.01" width="1" x="19" y="0.29511550223655725"/><rect fill="#2563EB" height="0.8221449359321228" stroke="#EFF6FF" stroke-width="0.01" width="1" x="20" y="0.1778550640678772"/><rect fill="#2563EB" height="0.7285962833887671" stroke="#EFF6FF" stroke-width="0.01" width="1" x="21" y="0.27140371661123286"/><rect fill="#2563EB" height="0.7194175899959605" stroke="#EFF6FF" stroke-width="0.01" width="1" x="22" y="0.2805824100040395"/><rect fill="#2563EB" height="0.6668259001962843" stroke="#EFF6FF" stroke-width="0.01" width="1" x="23" y="0.3331740998037157"/><rect fill="#2563EB" height="0.7486516536968603" stroke="#EFF6FF" stroke-width="0.01" width="1" x="24" y="0.25134834630313974"/><rect fill="#2563EB" height="0.8967270641522302" stroke="#EFF6FF" stroke-width="0.01" width="1" x="25" y="0.10327293584776975"/><rect fill="#2563EB" height="0.6794507292494484" stroke="#EFF6FF" stroke-width="0.01" width="1" x="26" y="0.3205492707505516"/><rect fill="#2563EB" height="0.6456047960893081" stroke="#EFF6FF" stroke-width="0.01" width="1" x="27" y="0.3543952039106919"/><rect fill="#2563EB" height="0.6389686784565987" stroke="#EFF6FF" stroke-width="0.01" width="1" x="28" y="0.36103132154340134"/><rect fill="#2563EB" height="0.7377104671045073" stroke="#EFF6FF" stroke-width="0.01" width="1" x="29" y="0.2622895328954927"/><rect fill="#2563EB" height="0.8067734721032249" stroke="#EFF6FF" stroke-width="0.01" width="1" x="30" y="0.19322652789677508"/><rect fill="#2563EB" height="0.7202244197916978" stroke="#EFF6FF" stroke-width="0.01" width="1" x="31" y="0.2797755802083022"/><rect fill="#2563EB" height="0.6381197307759252" stroke="#EFF6FF" stroke-width="0.01" width="1" x="32" y="0.3618802692240748"/><rect fill="#2563EB" height="0.646220505323633" stroke="#EFF6FF" stroke-width="0.01" width="1" x="33" y="0.35377949467636705"/><rect fill="#2563EB" height="0.7531394467259188" stroke="#EFF6FF" stroke-width="0.01" width="1" x="34" y="0.24686055327408118"/><rect fill="#2563EB" height="0.7827058517909843" stroke="#EFF6FF" stroke-width="0.01" width="1" x="35" y="0.21729414820901571"/><rect fill="#2563EB" height="0.5973597191249771" stroke="#EFF6FF" stroke-width="0.01" width="1" x="36" y="0.4026402808750229"/><rect fill="#2563EB" height="0.5777573692842026" stroke="#EFF6FF" stroke-width="0.01" width="1" x="37" y="0.4222426307157974"/><rect fill="#2563EB" height="0.6384197138648494" stroke="#EFF6FF" stroke-width="0.01" width="1" x="38" y="0.3615802861351506"/><rect fill="#2563EB" height="0.7218780108275673" stroke="#EFF6FF" stroke-width="0.01" width="1" x="39" y="0.2781219891724327"/><rect fill="#2563EB" height="0.7167113335506925" stroke="#EFF6FF" stroke-width="0.01" width="1" x="40" y="0.2832886664493075"/><rect fill="#2563EB" height="0.5069581021224376" stroke="#EFF6FF" stroke-width="0.01" width="1" x="41" y="0.49304189787756236"/><rect fill="#2563EB" height="0.5287046374701895" stroke="#EFF6FF" stroke-width="0.01" width="1" x="42" y="0.4712953625298105"/><rect fill="#2563EB" height="0.5257565174809161" stroke="#EFF6FF" stroke-width="0.01" width="1" x="43" y="0.4742434825190839"/><rect fill="#2563EB" height="0.5127589178767404" stroke="#EFF6FF" stroke-width="0.01" width="1" x="44" y="0.48724108212325956"/><rect fill="#2563EB" height="0.5510349149286381" stroke="#EFF6FF" stroke-width="0.01" width="1" x="45" y="0.4489650850713619"/><rect fill="#2563EB" height="0.4342625964736973" stroke="#EFF6FF" stroke-width="0.01" width="1" x="46" y="0.5657374035263028"/><rect fill="#2563EB" height="0.4657885089293774" stroke="#EFF6FF" stroke-width="0.01" width="1" x="47" y="0.5342114910706226"/><rect fill="#2563EB" height="0.5291607262815932" stroke="#EFF6FF" stroke-width="0.01" width="1" x="48" y="0.47083927371840684"/><rect fill="#2563EB" height="0.48033836389244405" stroke="#EFF6FF" stroke-width="0.01" width="1" x="49" y="0.5196616361075559"/><rect fill="#2563EB" height="0.614100809513768" stroke="#EFF6FF" stroke-width="0.01" width="1" x="50" y="0.385899190486232"/><rect fill="#2563EB" height="0.5420980922400096" stroke="#EFF6FF" stroke-width="0.01" width="1" x="51" y="0.4579019077599904"/><rect fill="#2563EB" height="0.5204182508461872" stroke="#EFF6FF" stroke-width="0.01" width="1" x="52" y="0.4795817491538128"/><rect fill="#2563EB" height="0.502212979410547" stroke="#EFF6FF" stroke-width="0.01" width="1" x="53" y="0.497787020589453"/><rect fill="#2563EB" height="0.4848588647661151" stroke="#EFF6FF" stroke-width="0.01" width="1" x="54" y="0.5151411352338848"/><rect fill="#2563EB" height="0.5661977052536317" stroke="#EFF6FF" stroke-width="0.01" width="1" x="55" y="0.43380229474636833"/><rect fill="#2563EB" height="0.5475870684229527" stroke="#EFF6FF" stroke-width="0.01" width="1" x="56" y="0.4524129315770473"/><rect fill="#2563EB" height="0.5200226058470144" stroke="#EFF6FF" stroke-width="0.01" width="1" x="57" y="0.47997739415298557"/><rect fill="#2563EB" height="0.5044976463389452" stroke="#EFF6FF" stroke-width="0.01" width="1" x="58" y="0.4955023536610548"/><rect fill="#2563EB" height="0.5285518014218797" stroke="#EFF6FF" stroke-width="0.01" width="1" x="59" y="0.47144819857812026"/><rect fill="#2563EB" height="0.6903357200602189" stroke="#EFF6FF" stroke-width="0.01" width="1" x="60" y="0.3096642799397811"/><rect fill="#2563EB" height="0.5127267674300562" stroke="#EFF6FF" stroke-width="0.01" width="1" x="61" y="0.4872732325699438"/><rect fill="#2563EB" height="0.5334814392476295" stroke="#EFF6FF" stroke-width="0.01" width="1" x="62" y="0.4665185607523705"/><rect fill="#2563EB" height="0.5771191142066894" stroke="#EFF6FF" stroke-width="0.01" width="1" x="63" y="0.4228808857933106"/><rect fill="#2563EB" height="0.5827334419282715" stroke="#EFF6FF" stroke-width="0.01" width="1" x="64" y="0.4172665580717285"/><rect fill="#2563EB" height="0.6953486751381254" stroke="#EFF6FF" stroke-width="0.01" width="1" x="65" y="0.30465132486187463"/><rect fill="#2563EB" height="0.43128297084733913" stroke="#EFF6FF" stroke-width="0.01" width="1" x="66" y="0.5687170291526609"/><rect fill="#2563EB" height="0.5103469786603609" stroke="#EFF6FF" stroke-width="0.01" width="1" x="67" y="0.48965302133963906"/><rect fill="#2563EB" height="0.5569418848194211" stroke="#EFF6FF" stroke-width="0.01" width="1" x="68" y="0.4430581151805789"/><rect fill="#2563EB" height="0.4830068750686182" stroke="#EFF6FF" stroke-width="0.01" width="1" x="69" y="0.5169931249313817"/><rect fill="#2563EB" height="0.6005757169958026" stroke="#EFF6FF" stroke-width="0.01" width="1" x="70" y="0.3994242830041974"/><rect fill="#2563EB" height="0.49138619239490094" stroke="#EFF6FF" stroke-width="0.01" width="1" x="71" y="0.508613807605099"/><rect fill="#2563EB" height="0.4472279110155038" stroke="#EFF6FF" stroke-width="0.01" width="1" x="72" y="0.5527720889844963"/><rect fill="#2563EB" height="0.5738033066893466" stroke="#EFF6FF" stroke-width="0.01" width="1" x="73" y="0.42619669331065335"/><rect fill="#2563EB" height="0.519966956893829" stroke="#EFF6FF" stroke-width="0.01" width="1" x="74" y="0.480033043106171"/><rect fill="#2563EB" height="0.6139884568479617" stroke="#EFF6FF" stroke-width="0.01" width="1" x="75" y="0.38601154315203834"/><rect fill="#2563EB" height="0.621554238985441" stroke="#EFF6FF" stroke-width="0.01" width="1" x="76" y="0.37844576101455896"/><rect fill="#2563EB" height="0.6920367138904745" stroke="#EFF6FF" stroke-width="0.01" width="1" x="77" y="0.3079632861095255"/><rect fill="#2563EB" height="0.7259144460599594" stroke="#EFF6FF" stroke-width="0.01" width="1" x="78" y="0.27408555394004064"/><rect fill="#2563EB" height="0.6774619442184632" stroke="#EFF6FF" stroke-width="0.01" width="1" x="79" y="0.3225380557815368"/><rect fill="#2563EB" height="1" stroke="#EFF6FF" stroke-width="0.01" width="1" x="80" y="0"/><rect fill="#2563EB" height="0.476923451859273" stroke="#EFF6FF" stroke-width="0.01" width="1" x="81" y="0.523076548140727"/><rect fill="#2563EB" height="0.3857495472633016" stroke="#EFF6FF" stroke-width="0.01" width="1" x="82" y="0.6142504527366984"/><rect fill="#2563EB" height="0.3286999391877799" stroke="#EFF6FF" stroke-width="0.01" width="1" x="83" y="0.6713000608122202"/><rect fill="#2563EB" height="0.43384710726654596" stroke="#EFF6FF" stroke-width="0.01" width="1" x="84" y="0.566152892733454"/><rect fill="#2563EB" height="0.560025225856712" stroke="#EFF6FF" stroke-width="0.01" width="1" x="85" y="0.439974774143288"/><rect fill="#2563EB" height="0.29217745128405775" stroke="#EFF6FF" stroke-width="0.01" width="1" x="86" y="0.7078225487159422"/><rect fill="#2563EB" height="0.3124844818048889" stroke="#EFF6FF" stroke-width="0.01" width="1" x="87" y="0.6875155181951111"/><rect fill="#2563EB" height="0.3387981696603665" stroke="#EFF6FF" stroke-width="0.01" width="1" x="88" y="0.6612018303396334"/><rect fill="#2563EB" height="0.3042780181072575" stroke="#EFF6FF" stroke-width="0.01" width="1" x="89" y="0.6957219818927425"/><rect fill="#2563EB" height="0.46612142920404354" stroke="#EFF6FF" stroke-width="0.01" width="1" x="90" y="0.5338785707959565"/><rect fill="#2563EB" height="0.3258371473522427" stroke="#EFF6FF" stroke-width="0.01" width="1" x="91" y="0.6741628526477573"/><rect fill="#2563EB" height="0.28490185660950634" stroke="#EFF6FF" stroke-width="0.01" width="1" x="92" y="0.7150981433904937"/><rect fill="#2563EB" height="0.3251773880767714" stroke="#EFF6FF" stroke-width="0.01" width="1" x="93" y="0.6748226119232286"/><rect fill="#2563EB" height="0.37322640041697974" stroke="#EFF6FF" stroke-width="0.01" width="1" x="94" y="0.6267735995830203"/><rect fill="#2563EB" height="0.43446130273388284" stroke="#EFF6FF" stroke-width="0.01" width="1" x="95" y="0.5655386972661172"/><rect fill="#2563EB" height="0.46520832311902693" stroke="#EFF6FF" stroke-width="0.01" width="1" x="96" y="0.5347916768809731"/><rect fill="#2563EB" height="0.4819357152764219" stroke="#EFF6FF" stroke-width="0.01" width="1" x="97" y="0.5180642847235781"/><rect fill="#2563EB" height="0.5013227007430893" stroke="#EFF6FF" stroke-width="0.01" width="1" x="98" y="0.49867729925691073"/><rect fill="#2563EB" height="0.3824379205584201" stroke="#EFF6FF" stroke-width="0.01" width="1" x="99" y="0.6175620794415799"/></svg>