<svg xmlns="http://www.w3.org/2000/svg" preserveAspectRatio="none" viewBox="0 0 100 1"><rect fill="#2563EB" height="0.4912465809313903" stroke="#EFF6FF" stroke-width="0.01" width="1" x="0" y="0.5087534190686097"/><rect fill="#2563EB" height="0.5801886088311939" stroke="#EFF6FF" stroke-width="0.01" width="1" x="1" y="0.41981139116880606"/><rect fill="#2563EB" height="0.6559862878203997" stroke="#EFF6FF" stroke-width="0.01" width="1" x="2" y="0.3440137121796003"/><rect fill="#2563EB" height="0.47420095398863626" stroke="#EFF6FF" stroke-width="0.01" width="1" x="3" y="0.5257990460113637"/><rect fill="#2563EB" height="0.5141006839329187" stroke="#EFF6FF" stroke-width="0.01" width="1" x="4" y="0.48589931606708125"/><rect fill="#2563EB" height="0.6243533944252465" stroke="#EFF6FF" stroke-width="0.01" width="1" x="5" y="0.3756466055747535"/><rect fill="#2563EB" height="0.5279097009118175" stroke="#EFF6FF" stroke-width="0.01" width="1" x="6" y="0.47209029908818245"/><rect fill="#2563EB" height="0.6213205020953526" stroke="#EFF6FF" stroke-width="0.01" width="1" x="7" y="0.3786794979046474"/><rect fill="#2563EB" height="0.5261039279854636" stroke="#EFF6FF" stroke-width="0.01" width="1" x="8" y="0.47389607201453643"/><rect fill="#2563EB" height="0.5185568265356363" stroke="#EFF6FF" stroke-width="0.01" width="1" x="9" y="0.4814431734643637"/><rect fill="#2563EB" height="0.7482077978366591" stroke="#EFF6FF" stroke-width="0.01" width="1" x="10" y="0.25179220216334086"/><rect fill="#2563EB" height="0.6755147953880474" stroke="#EFF6FF" stroke-width="0.01" width="1" x="11" y="0.3244852046119526"/><rect fill="#2563EB" height="0.7951915169084154" stroke="#EFF6FF" stroke-width="0.01" width="1" x="12" y="0.20480848309158461"/><rect fill="#2563EB" height="0.5936510303573708" stroke="#EFF6FF" stroke-width="0.01" width="1" x="13" y="0.40634896964262923"/><rect fill="#2563EB" height="0.6411610539144206" stroke="#EFF6FF" stroke-width="0.01" width="1" x="14" y="0.3588389460855794"/><rect fill="#2563EB" height="0.7004694544791634" stroke="#EFF6FF" stroke-width="0.01" width="1" x="15" y="0.2995305455208366"/><rect fill="#2563EB" height="0.6426945490492619" stroke="#EFF6FF" stroke-width="0.01" width="1" x="16" y="0.35730545095073807"/><rect fill="#2563EB" height="0.7344296959213545" stroke="#EFF6FF" stroke-width="0.01" width="1" x="17" y="0.26557030407864546"/><rect fill="#2563EB" height="0.6454937501506716" stroke="#EFF6FF" stroke-width="0.01" width="1" x="18" y="0.35450624984932844"/><rect fill="#2563EB" height="0.680927697874679" stroke="#EFF6FF" stroke-width="0.01" width="1" x="19" y="0.319072302125321"/><rect fill="#2563EB" height="0.7466288937210274" stroke="#EFF6FF" stroke-width="0.01" width="1" x="20" y="0.25337110627897264"/><rect fill="#2563EB" height="0.6192441149013036" stroke="#EFF6FF" stroke-width="0.01" width="1" x="21" y="0.3807558850986964"/><rect fill="#2563EB" height="0.6683003900900423" stroke="#EFF6FF" stroke-width="0.01" width="1" x="22" y="0.3316996099099577"/><rect fill="#2563EB" height="0.5834571034431325" stroke="#EFF6FF" stroke-width="0.01" width="1" x="23" y="0.4165428965568675"/><rect fill="#2563EB" height="0.6136611975713065" stroke="#EFF6FF" stroke-width="0.01" width="1" x="24" y="0.38633880242869345"/><rect fill="#2563EB" height="0.8270001851818001" stroke="#EFF6FF" stroke-width="0.01" width="1" x="25" y="0.17299981481819993"/><rect fill="#2563EB" height="0.6393619928599729" stroke="#EFF6FF" stroke-width="0.01" width="1" x="26" y="0.36063800714002714"/><rect fill="#2563EB" height="0.7244857383376572" stroke="#EFF6FF" stroke-width="0.01" width="1" x="27" y="0.27551426166234283"/><rect fill="#2563EB" height="0.6855292027650439" stroke="#EFF6FF" stroke-width="0.01" width="1" x="28" y="0.3144707972349561"/><rect fill="#2563EB" height="0.66786878246663" stroke="#EFF6FF" stroke-width="0.01" width="1" x="29" y="0.33213121753337005"/><rect fill="#2563EB" height="0.8503108651263013" stroke="#EFF6FF" stroke-width="0.01" width="1" x="30" y="0.14968913487369873"/><rect fill="#2563EB" height="0.6832025090599381" stroke="#EFF6FF" stroke-width="0.01" width="1" x="31" y="0.31679749094006193"/><rect fill="#2563EB" height="0.8849062303729046" stroke="#EFF6FF" stroke-width="0.01" width="1" x="32" y="0.11509376962709539"/><rect fill="#2563EB" height="0.6201871946637155" stroke="#EFF6FF" stroke-width="0.01" width="1" x="33" y="0.3798128053362845"/><rect fill="#2563EB" height="0.6470909922874832" stroke="#EFF6FF" stroke-width="0.01" width="1" x="34" y="0.35290900771251676"/><rect fill="#2563EB" height="0.7565793652797274" stroke="#EFF6FF" stroke-width="0.01" width="1" x="35" y="0.24342063472027264"/><rect fill="#2563EB" height="0.6612183489796658" stroke="#EFF6FF" stroke-width="0.01" width="1" x="36" y="0.3387816510203342"/><rect fill="#2563EB" height="0.781498870539715" stroke="#EFF6FF" stroke-width="0.01" width="1" x="37" y="0.218501129460285"/><rect fill="#2563EB" height="0.9946302588846602" stroke="#EFF6FF" stroke-width="0.01" width="1" x="38" y="0.005369741115339832"/><rect fill="#2563EB" height="0.8496732735413268" stroke="#EFF6FF" stroke-width="0.01" width="1" x="39" y="0.15032672645867318"/><rect fill="#2563EB" height="0.8726346483716164" stroke="#EFF6FF" stroke-width="0.01" width="1" x="40" y="0.12736535162838358"/><rect fill="#2563EB" height="0.6546775376155416" stroke="#EFF6FF" stroke-width="0.01" width="1" x="41" y="0.3453224623844584"/><rect fill="#2563EB" height="1" stroke="#EFF6FF" stroke-width="0.01" width="1" x="42" y="0"/><rect fill="#2563EB" height="0.5973012515571415" stroke="#EFF6FF" stroke-width="0.01" width="1" x="43" y="0.40269874844285847"/><rect fill="#2563EB" height="0.6576597894292386" stroke="#EFF6FF" stroke-width="0.01" width="1" x="44" y="0.34234021057076136"/><rect fill="#2563EB" height="0.7983755356420219" stroke="#EFF6FF" stroke-width="0.01" width="1" x="45" y="0.2016244643579781"/><rect fill="#2563EB" height="0.6029496957917158" stroke="#EFF6FF" stroke-width="0.01" width="1" x="46" y="0.39705030420828424"/><rect fill="#2563EB" height="0.8273365025376673" stroke="#EFF6FF" stroke-width="0.01" width="1" x="47" y="0.17266349746233267"/><rect fill="#2563EB" height="0.9397821679800337" stroke="#EFF6FF" stroke-width="0.01" width="1" x="48" y="0.06021783201996633"/><rect fill="#2563EB" height="0.8831613927578017" stroke="#EFF6FF" stroke-width="0.01" width="1" x="49" y="0.1168386072421983"/><rect fill="#2563EB" height="0.799132413799171" stroke="#EFF6FF" stroke-width="0.01" width="1" x="50" y="0.200867586200829"/><rect fill="#2563EB" height="0.706522339134166" stroke="#EFF6FF" stroke-width="0.01" width="1" x="51" y="0.29347766086583404"/><rect fill="#2563EB" height="0.9419932205834576" stroke="#EFF6FF" stroke-width="0.01" width="1" x="52" y="0.05800677941654242"/><rect fill="#2563EB" height="0.721362793534263" stroke="#EFF6FF" stroke-width="0.01" width="1" x="53" y="0.278637206465737"/><rect fill="#2563EB" height="0.6400913368359945" stroke="#EFF6FF" stroke-width="0.01" width="1" x="54" y="0.3599086631640055"/><rect fill="#2563EB" height="0.8196831455415974" stroke="#EFF6FF" stroke-width="0.01" width="1" x="55" y="0.18031685445840262"/><rect fill="#2563EB" height="0.6570375282109754" stroke="#EFF6FF" stroke-width="0.01" width="1" x="56" y="0.3429624717890246"/><rect fill="#2563EB" height="0.8471081488126946" stroke="#EFF6FF" stroke-width="0.01" width="1" x="57" y="0.15289185118730542"/><rect fill="#2563EB" height="0.6183644177845217" stroke="#EFF6FF" stroke-width="0.01" width="1" x="58" y="0.38163558221547833"/><rect fill="#2563EB" height="0.7339832846922183" stroke="#EFF6FF" stroke-width="0.01" width="1" x="59" y="0.2660167153077817"/><rect fill="#2563EB" height="0.826012366878092" stroke="#EFF6FF" stroke-width="0.01" width="1" x="60" y="0.17398763312190801"/><rect fill="#2563EB" height="0.7016729909268299" stroke="#EFF6FF" stroke-width="0.01" width="1" x="61" y="0.2983270090731701"/><rect fill="#2563EB" height="0.8600485628411357" stroke="#EFF6FF" stroke-width="0.01" width="1" x="62" y="0.13995143715886427"/><rect fill="#2563EB" height="0.7130298475042768" stroke="#EFF6FF" stroke-width="0.01" width="1" x="63" y="0.2869701524957232"/><rect fill="#2563EB" height="0.7639032214599205" stroke="#EFF6FF" stroke-width="0.01" width="1" x="64" y="0.2360967785400795"/><rect fill="#2563EB" height="0.8427195002572593" stroke="#EFF6FF" stroke-width="0.01" width="1" x="65" y="0.15728049974274072"/><rect fill="#2563EB" height="0.63293260795326" stroke="#EFF6FF" stroke-width="0.01" width="1" x="66" y="0.36706739204674"/><rect fill="#2563EB" height="0.8017908950798146" stroke="#EFF6FF" stroke-width="0.01" width="1" x="67" y="0.1982091049201854"/><rect fill="#2563EB" height="0.5252637869314599" stroke="#EFF6FF" stroke-width="0.01" width="1" x="68" y="0.4747362130685401"/><rect fill="#2563EB" height="0.7084882597599547" stroke="#EFF6FF" stroke-width="0.01" width="1" x="69" y="0.29151174024004534"/><rect fill="#2563EB" height="0.47216868665815526" stroke="#EFF6FF" stroke-width="0.01" width="1" x="70" y="0.5278313133418447"/><rect fill="#2563EB" height="0.43130771693335584" stroke="#EFF6FF" stroke-width="0.01" width="1" x="71" y="0.5686922830666441"/><rect fill="#2563EB" height="0.38948906921469023" stroke="#EFF6FF" stroke-width="0.01" width="1" x="72" y="0.6105109307853098"/><rect fill="#2563EB" height="0.31653571905636513" stroke="#EFF6FF" stroke-width="0.01" width="1" x="73" y="0.6834642809436349"/><rect fill="#2563EB" height="0.41183340707978333" stroke="#EFF6FF" stroke-width="0.01" width="1" x="74" y="0.5881665929202167"/><rect fill="#2563EB" height="0.33923144098377755" stroke="#EFF6FF" stroke-width="0.01" width="1" x="75" y="0.6607685590162224"/><rect fill="#2563EB" height="0.38200591983090965" stroke="#EFF6FF" stroke-width="0.01" width="1" x="76" y="0.6179940801690904"/><rect fill="#2563EB" height="0.33693009094064136" stroke="#EFF6FF" stroke-width="0.01" width="1" x="77" y="0.6630699090593586"/><rect fill="#2563EB" height="0.3723574316755448" stroke="#EFF6FF" stroke-width="0.01" width="1" x="78" y="0.6276425683244552"/><rect fill="#2563EB" height="0.37990886522081796" stroke="#EFF6FF" stroke-width="0.01" width="1" x="79" y="0.620091134779182"/><rect fill="#2563EB" height="0.3715016403321015" stroke="#EFF6FF" stroke-width="0.01" width="1" x="80" y="0.6284983596678986"/><rect fill="#2563EB" height="0.4239547921434438" stroke="#EFF6FF" stroke-width="0.01" width="1" x="81" y="0.5760452078565562"/><rect fill="#2563EB" height="0.3858806312605905" stroke="#EFF6FF" stroke-width="0.01" width="1" x="82" y="0.6141193687394095"/><rect fill="#2563EB" height="0.3218570917766009" stroke="#EFF6FF" stroke-width="0.01" width="1" x="83" y="0.6781429082233992"/><rect fill="#2563EB" height="0.4102041828565553" stroke="#EFF6FF" stroke-width="0.01" width="1" x="84" y="0.5897958171434448"/><rect fill="#2563EB" height="0.3376381685791057" stroke="#EFF6FF" stroke-width="0.01" width="1" x="85" y="0.6623618314208943"/><rect fill="#2563EB" height="0.3675495818305477" stroke="#EFF6FF" stroke-width="0.01" width="1" x="86" y="0.6324504181694524"/><rect fill="#2563EB" height="0.3618324111796955" stroke="#EFF6FF" stroke-width="0.01" width="1" x="87" y="0.6381675888203044"/><rect fill="#2563EB" height="0.33256587016202743" stroke="#EFF6FF" stroke-width="0.01" width="1" x="88" y="0.6674341298379726"/><rect fill="#2563EB" height="0.550513175683275" stroke="#EFF6FF" stroke-width="0.01" width="1" x="89" y="0.44948682431672504"/><rect fill="#2563EB" height="0.6122762959691785" stroke="#EFF6FF" stroke-width="0.01" width="1" x="90" y="0.38772370403082146"/><rect fill="#2563EB" height="0.037063504851066915" stroke="#EFF6FF" stroke-width="0.01" width="1" x="91" y="0.9629364951489331"/><rect fill="#2563EB" height="0.0008676424201940878" stroke="#EFF6FF" stroke-width="0.01" width="1" x="92" y="0.9991323575798059"/><rect fill="#2563EB" height="0.00000677449934008457" stroke="#EFF6FF" stroke-width="0.01" width="1" x="93" y="0.9999932255006599"/><rect fill="#2563EB" height="0" stroke="#EFF6FF" stroke-width="0.01" width="1" x="94" y="1"/><rect fill="#2563EB" height="0" stroke="#EFF6FF" stroke-width="0.01" width="1" x="95" y="1"/><rect fill="#2563EB" height="0" stroke="#EFF6FF" stroke-width="0.01" width="1" x="96" y="1"/><rect fill="#2563EB" height="0" stroke="#EFF6FF" stroke-width="0.01" width="1" x="97" y="1"/><rect fill="#2563EB" height="0" stroke="#EFF6FF" stroke-width="0.01" width="1" x="98" y="1"/><rect fill="#2563EB" height="0" stroke="#EFF6FF" stroke-width="0.01" width="1" x="99" y="1"/></svg>