<svg xmlns="http://www.w3.org/2000/svg" preserveAspectRatio="none" viewBox="0 0 100 1"><rect fill="#2563EB" height="0.5733658058784443" stroke="#EFF6FF" stroke-width="0.01" width="1" x="0" y="0.4266341941215557"/><rect fill="#2563EB" height="0.7125006771399051" stroke="#EFF6FF" stroke-width="0.01" width="1" x="1" y="0.28749932286009494"/><rect fill="#2563EB" height="0.6217226401208711" stroke="#EFF6FF" stroke-width="0.01" width="1" x="2" y="0.3782773598791289"/><rect fill="#2563EB" height="0.5816811845786843" stroke="#EFF6FF" stroke-width="0.01" width="1" x="3" y="0.41831881542131566"/><rect fill="#2563EB" height="0.733195547009065" stroke="#EFF6FF" stroke-width="0.01" width="1" x="4" y="0.266804452990935"/><rect fill="#2563EB" height="0.80944407581099" stroke="#EFF6FF" stroke-width="0.01" width="1" x="5" y="0.19055592418901002"/><rect fill="#2563EB" height="0.6346943214335609" stroke="#EFF6FF" stroke-width="0.01" width="1" x="6" y="0.36530567856643914"/><rect fill="#2563EB" height="0.6627288040475087" stroke="#EFF6FF" stroke-width="0.01" width="1" x="7" y="0.33727119595249133"/><rect fill="#2563EB" height="0.6787156023776181" stroke="#EFF6FF" stroke-width="0.01" width="1" x="8" y="0.3212843976223819"/><rect fill="#2563EB" height="0.6654325836161303" stroke="#EFF6FF" stroke-width="0.01" width="1" x="9" y="0.33456741638386966"/><rect fill="#2563EB" height="0.6493332921997261" stroke="#EFF6FF" stroke-width="0.01" width="1" x="10" y="0.35066670780027387"/><rect fill="#2563EB" height="0.6845401689264969" stroke="#EFF6FF" stroke-width="0.01" width="1" x="11" y="0.31545983107350306"/><rect fill="#2563EB" height="0.6859367222629341" stroke="#EFF6FF" stroke-width="0.01" width="1" x="12" y="0.3140632777370659"/><rect fill="#2563EB" height="0.6744994485503201" stroke="#EFF6FF" stroke-width="0.01" width="1" x="13" y="0.32550055144967993"/><rect fill="#2563EB" height="0.8255441645908865" stroke="#EFF6FF" stroke-width="0.01" width="1" x="14" y="0.17445583540911347"/><rect fill="#2563EB" height="0.6471210085421829" stroke="#EFF6FF" stroke-width="0.01" width="1" x="15" y="0.3528789914578171"/><rect fill="#2563EB" height="0.7152290903502274" stroke="#EFF6FF" stroke-width="0.01" width="1" x="16" y="0.2847709096497726"/><rect fill="#2563EB" height="0.6418534202841722" stroke="#EFF6FF" stroke-width="0.01" width="1" x="17" y="0.35814657971582775"/><rect fill="#2563EB" height="0.7246453262827925" stroke="#EFF6FF" stroke-width="0.01" width="1" x="18" y="0.27535467371720745"/><rect fill="#2563EB" height="0.6711817654809064" stroke="#EFF6FF" stroke-width="0.01" width="1" x="19" y="0.32881823451909364"/><rect fill="#2563EB" height="0.706046574308153" stroke="#EFF6FF" stroke-width="0.01" width="1" x="20" y="0.293953425691847"/><rect fill="#2563EB" height="0.6483009705086812" stroke="#EFF6FF" stroke-width="0.01" width="1" x="21" y="0.3516990294913188"/><rect fill="#2563EB" height="0.7002122431334272" stroke="#EFF6FF" stroke-width="0.01" width="1" x="22" y="0.2997877568665728"/><rect fill="#2563EB" height="0.6496340524190853" stroke="#EFF6FF" stroke-width="0.01" width="1" x="23" y="0.35036594758091466"/><rect fill="#2563EB" height="0.6775711526687815" stroke="#EFF6FF" stroke-width="0.01" width="1" x="24" y="0.32242884733121846"/><rect fill="#2563EB" height="0.742021257672125" stroke="#EFF6FF" stroke-width="0.01" width="1" x="25" y="0.257978742327875"/><rect fill="#2563EB" height="0.6980279033823912" stroke="#EFF6FF" stroke-width="0.01" width="1" x="26" y="0.3019720966176088"/><rect fill="#2563EB" height="0.6480151925018706" stroke="#EFF6FF" stroke-width="0.01" width="1" x="27" y="0.35198480749812944"/><rect fill="#2563EB" height="0.6752165746134703" stroke="#EFF6FF" stroke-width="0.01" width="1" x="28" y="0.3247834253865297"/><rect fill="#2563EB" height="0.7174856513536837" stroke="#EFF6FF" stroke-width="0.01" width="1" x="29" y="0.2825143486463163"/><rect fill="#2563EB" height="0.6903607805297838" stroke="#EFF6FF" stroke-width="0.01" width="1" x="30" y="0.3096392194702162"/><rect fill="#2563EB" height="0.6534024698470597" stroke="#EFF6FF" stroke-width="0.01" width="1" x="31" y="0.34659753015294026"/><rect fill="#2563EB" height="0.6436755926006423" stroke="#EFF6FF" stroke-width="0.01" width="1" x="32" y="0.35632440739935767"/><rect fill="#2563EB" height="0.6919335189754987" stroke="#EFF6FF" stroke-width="0.01" width="1" x="33" y="0.3080664810245013"/><rect fill="#2563EB" height="0.6550324304782907" stroke="#EFF6FF" stroke-width="0.01" width="1" x="34" y="0.34496756952170926"/><rect fill="#2563EB" height="0.785770686563182" stroke="#EFF6FF" stroke-width="0.01" width="1" x="35" y="0.21422931343681795"/><rect fill="#2563EB" height="0.540987919936165" stroke="#EFF6FF" stroke-width="0.01" width="1" x="36" y="0.459012080063835"/><rect fill="#2563EB" height="0.7427531418237238" stroke="#EFF6FF" stroke-width="0.01" width="1" x="37" y="0.25724685817627624"/><rect fill="#2563EB" height="0.8431147561063874" stroke="#EFF6FF" stroke-width="0.01" width="1" x="38" y="0.15688524389361258"/><rect fill="#2563EB" height="0.8617925632649958" stroke="#EFF6FF" stroke-width="0.01" width="1" x="39" y="0.13820743673500424"/><rect fill="#2563EB" height="0.5903774760796722" stroke="#EFF6FF" stroke-width="0.01" width="1" x="40" y="0.40962252392032783"/><rect fill="#2563EB" height="0.6494168536175214" stroke="#EFF6FF" stroke-width="0.01" width="1" x="41" y="0.35058314638247856"/><rect fill="#2563EB" height="0.6403038635579394" stroke="#EFF6FF" stroke-width="0.01" width="1" x="42" y="0.35969613644206055"/><rect fill="#2563EB" height="0.6713941672992763" stroke="#EFF6FF" stroke-width="0.01" width="1" x="43" y="0.32860583270072374"/><rect fill="#2563EB" height="0.7430629417457641" stroke="#EFF6FF" stroke-width="0.01" width="1" x="44" y="0.25693705825423585"/><rect fill="#2563EB" height="0.8004505117596828" stroke="#EFF6FF" stroke-width="0.01" width="1" x="45" y="0.19954948824031715"/><rect fill="#2563EB" height="0.6937358243417439" stroke="#EFF6FF" stroke-width="0.01" width="1" x="46" y="0.30626417565825614"/><rect fill="#2563EB" height="0.6383339290484412" stroke="#EFF6FF" stroke-width="0.01" width="1" x="47" y="0.3616660709515588"/><rect fill="#2563EB" height="0.6407137575604817" stroke="#EFF6FF" stroke-width="0.01" width="1" x="48" y="0.35928624243951834"/><rect fill="#2563EB" height="0.6005905817981311" stroke="#EFF6FF" stroke-width="0.01" width="1" x="49" y="0.3994094182018689"/><rect fill="#2563EB" height="0.7551412986622366" stroke="#EFF6FF" stroke-width="0.01" width="1" x="50" y="0.24485870133776344"/><rect fill="#2563EB" height="0.5909044079988993" stroke="#EFF6FF" stroke-width="0.01" width="1" x="51" y="0.4090955920011007"/><rect fill="#2563EB" height="0.6475352991180912" stroke="#EFF6FF" stroke-width="0.01" width="1" x="52" y="0.35246470088190884"/><rect fill="#2563EB" height="0.6000256259359374" stroke="#EFF6FF" stroke-width="0.01" width="1" x="53" y="0.39997437406406255"/><rect fill="#2563EB" height="0.6041488084049105" stroke="#EFF6FF" stroke-width="0.01" width="1" x="54" y="0.3958511915950895"/><rect fill="#2563EB" height="0.6295077711620046" stroke="#EFF6FF" stroke-width="0.01" width="1" x="55" y="0.3704922288379954"/><rect fill="#2563EB" height="0.7259725196624507" stroke="#EFF6FF" stroke-width="0.01" width="1" x="56" y="0.2740274803375493"/><rect fill="#2563EB" height="1" stroke="#EFF6FF" stroke-width="0.01" width="1" x="57" y="0"/><rect fill="#2563EB" height="0.8125178360102986" stroke="#EFF6FF" stroke-width="0.01" width="1" x="58" y="0.1874821639897014"/><rect fill="#2563EB" height="0.7991855279734194" stroke="#EFF6FF" stroke-width="0.01" width="1" x="59" y="0.20081447202658065"/><rect fill="#2563EB" height="0.6971543101478502" stroke="#EFF6FF" stroke-width="0.01" width="1" x="60" y="0.30284568985214977"/><rect fill="#2563EB" height="0.6175604549787682" stroke="#EFF6FF" stroke-width="0.01" width="1" x="61" y="0.3824395450212318"/><rect fill="#2563EB" height="0.6620288054707669" stroke="#EFF6FF" stroke-width="0.01" width="1" x="62" y="0.3379711945292331"/><rect fill="#2563EB" height="0.6687468499318233" stroke="#EFF6FF" stroke-width="0.01" width="1" x="63" y="0.3312531500681767"/><rect fill="#2563EB" height="0.6414836011607629" stroke="#EFF6FF" stroke-width="0.01" width="1" x="64" y="0.35851639883923714"/><rect fill="#2563EB" height="0.6256617373152307" stroke="#EFF6FF" stroke-width="0.01" width="1" x="65" y="0.37433826268476933"/><rect fill="#2563EB" height="0.8967556057785345" stroke="#EFF6FF" stroke-width="0.01" width="1" x="66" y="0.10324439422146547"/><rect fill="#2563EB" height="0.9117808413903778" stroke="#EFF6FF" stroke-width="0.01" width="1" x="67" y="0.08821915860962215"/><rect fill="#2563EB" height="0.6659950612649234" stroke="#EFF6FF" stroke-width="0.01" width="1" x="68" y="0.33400493873507664"/><rect fill="#2563EB" height="0.6291449496561603" stroke="#EFF6FF" stroke-width="0.01" width="1" x="69" y="0.3708550503438397"/><rect fill="#2563EB" height="0.5948941185222094" stroke="#EFF6FF" stroke-width="0.01" width="1" x="70" y="0.4051058814777906"/><rect fill="#2563EB" height="0.6852166622978485" stroke="#EFF6FF" stroke-width="0.01" width="1" x="71" y="0.3147833377021515"/><rect fill="#2563EB" height="0.6702960001824604" stroke="#EFF6FF" stroke-width="0.01" width="1" x="72" y="0.3297039998175396"/><rect fill="#2563EB" height="0.6939367241788074" stroke="#EFF6FF" stroke-width="0.01" width="1" x="73" y="0.30606327582119264"/><rect fill="#2563EB" height="0.8464430499401884" stroke="#EFF6FF" stroke-width="0.01" width="1" x="74" y="0.15355695005981163"/><rect fill="#2563EB" height="0.7813330083136671" stroke="#EFF6FF" stroke-width="0.01" width="1" x="75" y="0.21866699168633286"/><rect fill="#2563EB" height="0.7934781450585522" stroke="#EFF6FF" stroke-width="0.01" width="1" x="76" y="0.2065218549414478"/><rect fill="#2563EB" height="0.7273143124708704" stroke="#EFF6FF" stroke-width="0.01" width="1" x="77" y="0.2726856875291296"/><rect fill="#2563EB" height="0.720375220800397" stroke="#EFF6FF" stroke-width="0.01" width="1" x="78" y="0.27962477919960305"/><rect fill="#2563EB" height="0.6665825633781399" stroke="#EFF6FF" stroke-width="0.01" width="1" x="79" y="0.3334174366218601"/><rect fill="#2563EB" height="0.7570878401817389" stroke="#EFF6FF" stroke-width="0.01" width="1" x="80" y="0.2429121598182611"/><rect fill="#2563EB" height="0.6117829246432742" stroke="#EFF6FF" stroke-width="0.01" width="1" x="81" y="0.3882170753567258"/><rect fill="#2563EB" height="0.6966527349722873" stroke="#EFF6FF" stroke-width="0.01" width="1" x="82" y="0.3033472650277127"/><rect fill="#2563EB" height="0.6640432104876455" stroke="#EFF6FF" stroke-width="0.01" width="1" x="83" y="0.3359567895123545"/><rect fill="#2563EB" height="0.5482385893316165" stroke="#EFF6FF" stroke-width="0.01" width="1" x="84" y="0.4517614106683835"/><rect fill="#2563EB" height="0.39240892043510095" stroke="#EFF6FF" stroke-width="0.01" width="1" x="85" y="0.6075910795648991"/><rect fill="#2563EB" height="0.4417088817534243" stroke="#EFF6FF" stroke-width="0.01" width="1" x="86" y="0.5582911182465757"/><rect fill="#2563EB" height="0.32349299972563006" stroke="#EFF6FF" stroke-width="0.01" width="1" x="87" y="0.6765070002743699"/><rect fill="#2563EB" height="0.296756865781827" stroke="#EFF6FF" stroke-width="0.01" width="1" x="88" y="0.7032431342181731"/><rect fill="#2563EB" height="0.3186007610491842" stroke="#EFF6FF" stroke-width="0.01" width="1" x="89" y="0.6813992389508158"/><rect fill="#2563EB" height="0.37408342624136726" stroke="#EFF6FF" stroke-width="0.01" width="1" x="90" y="0.6259165737586327"/><rect fill="#2563EB" height="0.29848221353695037" stroke="#EFF6FF" stroke-width="0.01" width="1" x="91" y="0.7015177864630496"/><rect fill="#2563EB" height="0.32391058389006644" stroke="#EFF6FF" stroke-width="0.01" width="1" x="92" y="0.6760894161099336"/><rect fill="#2563EB" height="0.35966750740272824" stroke="#EFF6FF" stroke-width="0.01" width="1" x="93" y="0.6403324925972718"/><rect fill="#2563EB" height="0.2999837377694103" stroke="#EFF6FF" stroke-width="0.01" width="1" x="94" y="0.7000162622305897"/><rect fill="#2563EB" height="0.3102888347561509" stroke="#EFF6FF" stroke-width="0.01" width="1" x="95" y="0.6897111652438491"/><rect fill="#2563EB" height="0.2966416515133832" stroke="#EFF6FF" stroke-width="0.01" width="1" x="96" y="0.7033583484866168"/><rect fill="#2563EB" height="0.452483222833918" stroke="#EFF6FF" stroke-width="0.01" width="1" x="97" y="0.547516777166082"/><rect fill="#2563EB" height="0.34573765885217705" stroke="#EFF6FF" stroke-width="0.01" width="1" x="98" y="0.654262341147823"/><rect fill="#2563EB" height="0.3197430361938253" stroke="#EFF6FF" stroke-width="0.01" width="1" x="99" y="0.6802569638061746"/></svg>