<svg xmlns="http://www.w3.org/2000/svg" preserveAspectRatio="none" viewBox="0 0 100 1"><rect fill="#2563EB" height="0.4441662115002428" stroke="#EFF6FF" stroke-width="0.01" width="1" x="0" y="0.5558337884997572"/><rect fill="#2563EB" height="0.5180157974919977" stroke="#EFF6FF" stroke-width="0.01" width="1" x="1" y="0.48198420250800234"/><rect fill="#2563EB" height="0.5648095024504348" stroke="#EFF6FF" stroke-width="0.01" width="1" x="2" y="0.4351904975495652"/><rect fill="#2563EB" height="0.5653744797513237" stroke="#EFF6FF" stroke-width="0.01" width="1" x="3" y="0.4346255202486763"/><rect fill="#2563EB" height="0.5416524946578979" stroke="#EFF6FF" stroke-width="0.01" width="1" x="4" y="0.4583475053421021"/><rect fill="#2563EB" height="0.5533569073496668" stroke="#EFF6FF" stroke-width="0.01" width="1" x="5" y="0.4466430926503332"/><rect fill="#2563EB" height="0.5466836650918305" stroke="#EFF6FF" stroke-width="0.01" width="1" x="6" y="0.45331633490816947"/><rect fill="#2563EB" height="0.5961674561347184" stroke="#EFF6FF" stroke-width="0.01" width="1" x="7" y="0.40383254386528156"/><rect fill="#2563EB" height="0.5570097207732326" stroke="#EFF6FF" stroke-width="0.01" width="1" x="8" y="0.44299027922676737"/><rect fill="#2563EB" height="0.6021679502266438" stroke="#EFF6FF" stroke-width="0.01" width="1" x="9" y="0.3978320497733562"/><rect fill="#2563EB" height="0.5402927248537075" stroke="#EFF6FF" stroke-width="0.01" width="1" x="10" y="0.4597072751462925"/><rect fill="#2563EB" height="0.6334593873305558" stroke="#EFF6FF" stroke-width="0.01" width="1" x="11" y="0.36654061266944415"/><rect fill="#2563EB" height="0.6560739153012778" stroke="#EFF6FF" stroke-width="0.01" width="1" x="12" y="0.3439260846987222"/><rect fill="#2563EB" height="0.6403296589164329" stroke="#EFF6FF" stroke-width="0.01" width="1" x="13" y="0.3596703410835671"/><rect fill="#2563EB" height="0.5987352694739743" stroke="#EFF6FF" stroke-width="0.01" width="1" x="14" y="0.40126473052602574"/><rect fill="#2563EB" height="0.6414871361459549" stroke="#EFF6FF" stroke-width="0.01" width="1" x="15" y="0.3585128638540451"/><rect fill="#2563EB" height="0.6727719329646462" stroke="#EFF6FF" stroke-width="0.01" width="1" x="16" y="0.3272280670353538"/><rect fill="#2563EB" height="0.6702171929895452" stroke="#EFF6FF" stroke-width="0.01" width="1" x="17" y="0.3297828070104548"/><rect fill="#2563EB" height="0.6697995595464654" stroke="#EFF6FF" stroke-width="0.01" width="1" x="18" y="0.3302004404535346"/><rect fill="#2563EB" height="0.659594225511814" stroke="#EFF6FF" stroke-width="0.01" width="1" x="19" y="0.340405774488186"/><rect fill="#2563EB" height="0.9308071598306089" stroke="#EFF6FF" stroke-width="0.01" width="1" x="20" y="0.06919284016939109"/><rect fill="#2563EB" height="0.8875161912805875" stroke="#EFF6FF" stroke-width="0.01" width="1" x="21" y="0.11248380871941255"/><rect fill="#2563EB" height="0.803514045708542" stroke="#EFF6FF" stroke-width="0.01" width="1" x="22" y="0.196485954291458"/><rect fill="#2563EB" height="0.8183629480842916" stroke="#EFF6FF" stroke-width="0.01" width="1" x="23" y="0.18163705191570845"/><rect fill="#2563EB" height="0.7513701119182364" stroke="#EFF6FF" stroke-width="0.01" width="1" x="24" y="0.24862988808176356"/><rect fill="#2563EB" height="0.8319998265438644" stroke="#EFF6FF" stroke-width="0.01" width="1" x="25" y="0.1680001734561356"/><rect fill="#2563EB" height="0.905587469489958" stroke="#EFF6FF" stroke-width="0.01" width="1" x="26" y="0.09441253051004195"/><rect fill="#2563EB" height="0.8442173327742731" stroke="#EFF6FF" stroke-width="0.01" width="1" x="27" y="0.15578266722572687"/><rect fill="#2563EB" height="0.8897334664195549" stroke="#EFF6FF" stroke-width="0.01" width="1" x="28" y="0.11026653358044514"/><rect fill="#2563EB" height="0.8565911549529283" stroke="#EFF6FF" stroke-width="0.01" width="1" x="29" y="0.14340884504707174"/><rect fill="#2563EB" height="0.8315706217129272" stroke="#EFF6FF" stroke-width="0.01" width="1" x="30" y="0.16842937828707283"/><rect fill="#2563EB" height="0.8510769338563626" stroke="#EFF6FF" stroke-width="0.01" width="1" x="31" y="0.14892306614363737"/><rect fill="#2563EB" height="0.8273906599554338" stroke="#EFF6FF" stroke-width="0.01" width="1" x="32" y="0.17260934004456618"/><rect fill="#2563EB" height="0.74876199892682" stroke="#EFF6FF" stroke-width="0.01" width="1" x="33" y="0.25123800107317995"/><rect fill="#2563EB" height="0.7087705767623468" stroke="#EFF6FF" stroke-width="0.01" width="1" x="34" y="0.2912294232376532"/><rect fill="#2563EB" height="0.7481229588353494" stroke="#EFF6FF" stroke-width="0.01" width="1" x="35" y="0.2518770411646506"/><rect fill="#2563EB" height="0.8423682552817281" stroke="#EFF6FF" stroke-width="0.01" width="1" x="36" y="0.1576317447182719"/><rect fill="#2563EB" height="0.8942995257009201" stroke="#EFF6FF" stroke-width="0.01" width="1" x="37" y="0.10570047429907992"/><rect fill="#2563EB" height="0.8463034165666812" stroke="#EFF6FF" stroke-width="0.01" width="1" x="38" y="0.15369658343331882"/><rect fill="#2563EB" height="0.7914834953181111" stroke="#EFF6FF" stroke-width="0.01" width="1" x="39" y="0.20851650468188887"/><rect fill="#2563EB" height="0.7933106473663923" stroke="#EFF6FF" stroke-width="0.01" width="1" x="40" y="0.20668935263360766"/><rect fill="#2563EB" height="0.8203920884031253" stroke="#EFF6FF" stroke-width="0.01" width="1" x="41" y="0.17960791159687473"/><rect fill="#2563EB" height="0.8290806288516736" stroke="#EFF6FF" stroke-width="0.01" width="1" x="42" y="0.17091937114832645"/><rect fill="#2563EB" height="0.8393769223600341" stroke="#EFF6FF" stroke-width="0.01" width="1" x="43" y="0.16062307763996586"/><rect fill="#2563EB" height="0.8658854599681918" stroke="#EFF6FF" stroke-width="0.01" width="1" x="44" y="0.13411454003180823"/><rect fill="#2563EB" height="0.9499794899887232" stroke="#EFF6FF" stroke-width="0.01" width="1" x="45" y="0.05002051001127683"/><rect fill="#2563EB" height="0.9281538183178362" stroke="#EFF6FF" stroke-width="0.01" width="1" x="46" y="0.07184618168216383"/><rect fill="#2563EB" height="0.9209760369793175" stroke="#EFF6FF" stroke-width="0.01" width="1" x="47" y="0.07902396302068249"/><rect fill="#2563EB" height="0.8801999175671411" stroke="#EFF6FF" stroke-width="0.01" width="1" x="48" y="0.11980008243285889"/><rect fill="#2563EB" height="0.7898956980198192" stroke="#EFF6FF" stroke-width="0.01" width="1" x="49" y="0.21010430198018082"/><rect fill="#2563EB" height="0.8488947736513001" stroke="#EFF6FF" stroke-width="0.01" width="1" x="50" y="0.15110522634869994"/><rect fill="#2563EB" height="0.8746949010115357" stroke="#EFF6FF" stroke-width="0.01" width="1" x="51" y="0.12530509898846431"/><rect fill="#2563EB" height="0.7050887405132719" stroke="#EFF6FF" stroke-width="0.01" width="1" x="52" y="0.29491125948672814"/><rect fill="#2563EB" height="0.7540903702825462" stroke="#EFF6FF" stroke-width="0.01" width="1" x="53" y="0.24590962971745378"/><rect fill="#2563EB" height="0.9465990342187679" stroke="#EFF6FF" stroke-width="0.01" width="1" x="54" y="0.0534009657812321"/><rect fill="#2563EB" height="0.869152594240318" stroke="#EFF6FF" stroke-width="0.01" width="1" x="55" y="0.130847405759682"/><rect fill="#2563EB" height="0.9286966817297174" stroke="#EFF6FF" stroke-width="0.01" width="1" x="56" y="0.07130331827028258"/><rect fill="#2563EB" height="0.9415725021780905" stroke="#EFF6FF" stroke-width="0.01" width="1" x="57" y="0.05842749782190948"/><rect fill="#2563EB" height="0.8134817397305468" stroke="#EFF6FF" stroke-width="0.01" width="1" x="58" y="0.18651826026945317"/><rect fill="#2563EB" height="0.7407697569115659" stroke="#EFF6FF" stroke-width="0.01" width="1" x="59" y="0.2592302430884341"/><rect fill="#2563EB" height="0.7344041628138452" stroke="#EFF6FF" stroke-width="0.01" width="1" x="60" y="0.26559583718615476"/><rect fill="#2563EB" height="0.8305526418688969" stroke="#EFF6FF" stroke-width="0.01" width="1" x="61" y="0.16944735813110312"/><rect fill="#2563EB" height="0.8308916650318855" stroke="#EFF6FF" stroke-width="0.01" width="1" x="62" y="0.1691083349681145"/><rect fill="#2563EB" height="0.909046010978219" stroke="#EFF6FF" stroke-width="0.01" width="1" x="63" y="0.09095398902178098"/><rect fill="#2563EB" height="0.8947982011348017" stroke="#EFF6FF" stroke-width="0.01" width="1" x="64" y="0.10520179886519831"/><rect fill="#2563EB" height="0.888444193338023" stroke="#EFF6FF" stroke-width="0.01" width="1" x="65" y="0.11155580666197695"/><rect fill="#2563EB" height="0.9112345547697295" stroke="#EFF6FF" stroke-width="0.01" width="1" x="66" y="0.08876544523027052"/><rect fill="#2563EB" height="0.9068417121091774" stroke="#EFF6FF" stroke-width="0.01" width="1" x="67" y="0.09315828789082259"/><rect fill="#2563EB" height="0.916170319632808" stroke="#EFF6FF" stroke-width="0.01" width="1" x="68" y="0.08382968036719196"/><rect fill="#2563EB" height="0.8874429995802293" stroke="#EFF6FF" stroke-width="0.01" width="1" x="69" y="0.11255700041977068"/><rect fill="#2563EB" height="0.9258559831917486" stroke="#EFF6FF" stroke-width="0.01" width="1" x="70" y="0.07414401680825145"/><rect fill="#2563EB" height="0.9681059997937314" stroke="#EFF6FF" stroke-width="0.01" width="1" x="71" y="0.03189400020626865"/><rect fill="#2563EB" height="1" stroke="#EFF6FF" stroke-width="0.01" width="1" x="72" y="0"/><rect fill="#2563EB" height="0.9869408014245479" stroke="#EFF6FF" stroke-width="0.01" width="1" x="73" y="0.013059198575452124"/><rect fill="#2563EB" height="0.8396180628267801" stroke="#EFF6FF" stroke-width="0.01" width="1" x="74" y="0.1603819371732199"/><rect fill="#2563EB" height="0.884394361827515" stroke="#EFF6FF" stroke-width="0.01" width="1" x="75" y="0.11560563817248504"/><rect fill="#2563EB" height="0.9176616757354871" stroke="#EFF6FF" stroke-width="0.01" width="1" x="76" y="0.08233832426451293"/><rect fill="#2563EB" height="0.8352430078425456" stroke="#EFF6FF" stroke-width="0.01" width="1" x="77" y="0.16475699215745443"/><rect fill="#2563EB" height="0.8180188350603247" stroke="#EFF6FF" stroke-width="0.01" width="1" x="78" y="0.1819811649396753"/><rect fill="#2563EB" height="0.8234327976296741" stroke="#EFF6FF" stroke-width="0.01" width="1" x="79" y="0.17656720237032586"/><rect fill="#2563EB" height="0.8630995133883095" stroke="#EFF6FF" stroke-width="0.01" width="1" x="80" y="0.13690048661169052"/><rect fill="#2563EB" height="0.8852878510352487" stroke="#EFF6FF" stroke-width="0.01" width="1" x="81" y="0.11471214896475135"/><rect fill="#2563EB" height="0.9045146871041394" stroke="#EFF6FF" stroke-width="0.01" width="1" x="82" y="0.0954853128958606"/><rect fill="#2563EB" height="0.85877850963656" stroke="#EFF6FF" stroke-width="0.01" width="1" x="83" y="0.14122149036344"/><rect fill="#2563EB" height="0.8237249238493086" stroke="#EFF6FF" stroke-width="0.01" width="1" x="84" y="0.17627507615069138"/><rect fill="#2563EB" height="0.5140695960228999" stroke="#EFF6FF" stroke-width="0.01" width="1" x="85" y="0.4859304039771001"/><rect fill="#2563EB" height="0.46287531975970747" stroke="#EFF6FF" stroke-width="0.01" width="1" x="86" y="0.5371246802402925"/><rect fill="#2563EB" height="0.500678676661233" stroke="#EFF6FF" stroke-width="0.01" width="1" x="87" y="0.499321323338767"/><rect fill="#2563EB" height="0.47116077064279066" stroke="#EFF6FF" stroke-width="0.01" width="1" x="88" y="0.5288392293572093"/><rect fill="#2563EB" height="0.49697317751495823" stroke="#EFF6FF" stroke-width="0.01" width="1" x="89" y="0.5030268224850418"/><rect fill="#2563EB" height="0.5248178177289755" stroke="#EFF6FF" stroke-width="0.01" width="1" x="90" y="0.4751821822710245"/><rect fill="#2563EB" height="0.4287600504809471" stroke="#EFF6FF" stroke-width="0.01" width="1" x="91" y="0.5712399495190529"/><rect fill="#2563EB" height="0.42590325265615886" stroke="#EFF6FF" stroke-width="0.01" width="1" x="92" y="0.5740967473438412"/><rect fill="#2563EB" height="0.43402731821993445" stroke="#EFF6FF" stroke-width="0.01" width="1" x="93" y="0.5659726817800655"/><rect fill="#2563EB" height="0.3733555879057019" stroke="#EFF6FF" stroke-width="0.01" width="1" x="94" y="0.6266444120942981"/><rect fill="#2563EB" height="0.5275647596456768" stroke="#EFF6FF" stroke-width="0.01" width="1" x="95" y="0.47243524035432316"/><rect fill="#2563EB" height="0.4871663944449907" stroke="#EFF6FF" stroke-width="0.01" width="1" x="96" y="0.5128336055550093"/><rect fill="#2563EB" height="0.44692036697413945" stroke="#EFF6FF" stroke-width="0.01" width="1" x="97" y="0.5530796330258605"/><rect fill="#2563EB" height="0.4785727769171148" stroke="#EFF6FF" stroke-width="0.01" width="1" x="98" y="0.5214272230828851"/><rect fill="#2563EB" height="0.4573657448607984" stroke="#EFF6FF" stroke-width="0.01" width="1" x="99" y="0.5426342551392016"/></svg>