<svg xmlns="http://www.w3.org/2000/svg" preserveAspectRatio="none" viewBox="0 0 100 1"><rect fill="#2563EB" height="0.8340411006752192" stroke="#EFF6FF" stroke-width="0.01" width="1" x="0" y="0.1659588993247808"/><rect fill="#2563EB" height="0.7547031608103089" stroke="#EFF6FF" stroke-width="0.01" width="1" x="1" y="0.24529683918969114"/><rect fill="#2563EB" height="0.5921709684587496" stroke="#EFF6FF" stroke-width="0.01" width="1" x="2" y="0.4078290315412504"/><rect fill="#2563EB" height="0.5130924401886253" stroke="#EFF6FF" stroke-width="0.01" width="1" x="3" y="0.4869075598113747"/><rect fill="#2563EB" height="0.4295753824943126" stroke="#EFF6FF" stroke-width="0.01" width="1" x="4" y="0.5704246175056874"/><rect fill="#2563EB" height="0.6850013966647023" stroke="#EFF6FF" stroke-width="0.01" width="1" x="5" y="0.3149986033352977"/><rect fill="#2563EB" height="0.5332742883035998" stroke="#EFF6FF" stroke-width="0.01" width="1" x="6" y="0.4667257116964002"/><rect fill="#2563EB" height="0.3378609282105322" stroke="#EFF6FF" stroke-width="0.01" width="1" x="7" y="0.6621390717894677"/><rect fill="#2563EB" height="0.40728308710046945" stroke="#EFF6FF" stroke-width="0.01" width="1" x="8" y="0.5927169128995305"/><rect fill="#2563EB" height="0.3740966641029013" stroke="#EFF6FF" stroke-width="0.01" width="1" x="9" y="0.6259033358970987"/><rect fill="#2563EB" height="0.2954151667687526" stroke="#EFF6FF" stroke-width="0.01" width="1" x="10" y="0.7045848332312474"/><rect fill="#2563EB" height="0.47640886470620925" stroke="#EFF6FF" stroke-width="0.01" width="1" x="11" y="0.5235911352937908"/><rect fill="#2563EB" height="0.7295345771602911" stroke="#EFF6FF" stroke-width="0.01" width="1" x="12" y="0.27046542283970887"/><rect fill="#2563EB" height="0.8340907112003207" stroke="#EFF6FF" stroke-width="0.01" width="1" x="13" y="0.16590928879967926"/><rect fill="#2563EB" height="0.9321165472316417" stroke="#EFF6FF" stroke-width="0.01" width="1" x="14" y="0.06788345276835828"/><rect fill="#2563EB" height="0.6754758987712616" stroke="#EFF6FF" stroke-width="0.01" width="1" x="15" y="0.3245241012287384"/><rect fill="#2563EB" height="0.5894295937127362" stroke="#EFF6FF" stroke-width="0.01" width="1" x="16" y="0.4105704062872638"/><rect fill="#2563EB" height="0.672685884771599" stroke="#EFF6FF" stroke-width="0.01" width="1" x="17" y="0.32731411522840104"/><rect fill="#2563EB" height="0.6878147765242522" stroke="#EFF6FF" stroke-width="0.01" width="1" x="18" y="0.31218522347574784"/><rect fill="#2563EB" height="0.6018775956761645" stroke="#EFF6FF" stroke-width="0.01" width="1" x="19" y="0.3981224043238355"/><rect fill="#2563EB" height="0.49763910936984945" stroke="#EFF6FF" stroke-width="0.01" width="1" x="20" y="0.5023608906301505"/><rect fill="#2563EB" height="0.36326583459490885" stroke="#EFF6FF" stroke-width="0.01" width="1" x="21" y="0.6367341654050911"/><rect fill="#2563EB" height="0.4283695348077008" stroke="#EFF6FF" stroke-width="0.01" width="1" x="22" y="0.5716304651922992"/><rect fill="#2563EB" height="0.41512366187255717" stroke="#EFF6FF" stroke-width="0.01" width="1" x="23" y="0.5848763381274429"/><rect fill="#2563EB" height="0.3383127176624415" stroke="#EFF6FF" stroke-width="0.01" width="1" x="24" y="0.6616872823375586"/><rect fill="#2563EB" height="0.9644163750419448" stroke="#EFF6FF" stroke-width="0.01" width="1" x="25" y="0.03558362495805523"/><rect fill="#2563EB" height="0.7281304337028877" stroke="#EFF6FF" stroke-width="0.01" width="1" x="26" y="0.27186956629711234"/><rect fill="#2563EB" height="0.5541906889564251" stroke="#EFF6FF" stroke-width="0.01" width="1" x="27" y="0.4458093110435749"/><rect fill="#2563EB" height="0.5935865090186592" stroke="#EFF6FF" stroke-width="0.01" width="1" x="28" y="0.40641349098134083"/><rect fill="#2563EB" height="0.656228472558954" stroke="#EFF6FF" stroke-width="0.01" width="1" x="29" y="0.343771527441046"/><rect fill="#2563EB" height="0.746444849764225" stroke="#EFF6FF" stroke-width="0.01" width="1" x="30" y="0.253555150235775"/><rect fill="#2563EB" height="0.5056301494009133" stroke="#EFF6FF" stroke-width="0.01" width="1" x="31" y="0.49436985059908667"/><rect fill="#2563EB" height="0.38935197474165467" stroke="#EFF6FF" stroke-width="0.01" width="1" x="32" y="0.6106480252583453"/><rect fill="#2563EB" height="0.6448516676728988" stroke="#EFF6FF" stroke-width="0.01" width="1" x="33" y="0.3551483323271012"/><rect fill="#2563EB" height="0.6284514718505204" stroke="#EFF6FF" stroke-width="0.01" width="1" x="34" y="0.3715485281494796"/><rect fill="#2563EB" height="0.3855048843340024" stroke="#EFF6FF" stroke-width="0.01" width="1" x="35" y="0.6144951156659977"/><rect fill="#2563EB" height="0.4408173212627432" stroke="#EFF6FF" stroke-width="0.01" width="1" x="36" y="0.5591826787372568"/><rect fill="#2563EB" height="0.6305468092433794" stroke="#EFF6FF" stroke-width="0.01" width="1" x="37" y="0.36945319075662064"/><rect fill="#2563EB" height="0.8262225109558898" stroke="#EFF6FF" stroke-width="0.01" width="1" x="38" y="0.17377748904411017"/><rect fill="#2563EB" height="0.5462878696345425" stroke="#EFF6FF" stroke-width="0.01" width="1" x="39" y="0.45371213036545754"/><rect fill="#2563EB" height="0.5533244520472692" stroke="#EFF6FF" stroke-width="0.01" width="1" x="40" y="0.4466755479527308"/><rect fill="#2563EB" height="0.39838995365284735" stroke="#EFF6FF" stroke-width="0.01" width="1" x="41" y="0.6016100463471526"/><rect fill="#2563EB" height="0.5795617752731508" stroke="#EFF6FF" stroke-width="0.01" width="1" x="42" y="0.4204382247268492"/><rect fill="#2563EB" height="0.598822575050602" stroke="#EFF6FF" stroke-width="0.01" width="1" x="43" y="0.401177424949398"/><rect fill="#2563EB" height="0.3450933874727239" stroke="#EFF6FF" stroke-width="0.01" width="1" x="44" y="0.6549066125272761"/><rect fill="#2563EB" height="0.2670527724796212" stroke="#EFF6FF" stroke-width="0.01" width="1" x="45" y="0.7329472275203788"/><rect fill="#2563EB" height="0.2909179807368842" stroke="#EFF6FF" stroke-width="0.01" width="1" x="46" y="0.7090820192631158"/><rect fill="#2563EB" height="0.45715993088583956" stroke="#EFF6FF" stroke-width="0.01" width="1" x="47" y="0.5428400691141604"/><rect fill="#2563EB" height="0.4083831202492984" stroke="#EFF6FF" stroke-width="0.01" width="1" x="48" y="0.5916168797507015"/><rect fill="#2563EB" height="0.28325177352307157" stroke="#EFF6FF" stroke-width="0.01" width="1" x="49" y="0.7167482264769285"/><rect fill="#2563EB" height="0.9943030252737023" stroke="#EFF6FF" stroke-width="0.01" width="1" x="50" y="0.00569697472629771"/><rect fill="#2563EB" height="0.7565008667039539" stroke="#EFF6FF" stroke-width="0.01" width="1" x="51" y="0.2434991332960461"/><rect fill="#2563EB" height="0.8350723236932197" stroke="#EFF6FF" stroke-width="0.01" width="1" x="52" y="0.1649276763067803"/><rect fill="#2563EB" height="0.5749352789953294" stroke="#EFF6FF" stroke-width="0.01" width="1" x="53" y="0.42506472100467063"/><rect fill="#2563EB" height="0.6217135981035642" stroke="#EFF6FF" stroke-width="0.01" width="1" x="54" y="0.3782864018964358"/><rect fill="#2563EB" height="0.6619624317257071" stroke="#EFF6FF" stroke-width="0.01" width="1" x="55" y="0.3380375682742929"/><rect fill="#2563EB" height="0.5233388506123122" stroke="#EFF6FF" stroke-width="0.01" width="1" x="56" y="0.4766611493876878"/><rect fill="#2563EB" height="0.49326255857310164" stroke="#EFF6FF" stroke-width="0.01" width="1" x="57" y="0.5067374414268984"/><rect fill="#2563EB" height="0.5548269222224921" stroke="#EFF6FF" stroke-width="0.01" width="1" x="58" y="0.4451730777775079"/><rect fill="#2563EB" height="0.6246853129286463" stroke="#EFF6FF" stroke-width="0.01" width="1" x="59" y="0.37531468707135374"/><rect fill="#2563EB" height="0.5457947147541482" stroke="#EFF6FF" stroke-width="0.01" width="1" x="60" y="0.4542052852458518"/><rect fill="#2563EB" height="0.7265196313947908" stroke="#EFF6FF" stroke-width="0.01" width="1" x="61" y="0.2734803686052092"/><rect fill="#2563EB" height="0.7312991461795784" stroke="#EFF6FF" stroke-width="0.01" width="1" x="62" y="0.26870085382042164"/><rect fill="#2563EB" height="0.72072915844067" stroke="#EFF6FF" stroke-width="0.01" width="1" x="63" y="0.27927084155933"/><rect fill="#2563EB" height="0.738483473646488" stroke="#EFF6FF" stroke-width="0.01" width="1" x="64" y="0.26151652635351197"/><rect fill="#2563EB" height="0.6850968955104265" stroke="#EFF6FF" stroke-width="0.01" width="1" x="65" y="0.3149031044895735"/><rect fill="#2563EB" height="0.47537402241627036" stroke="#EFF6FF" stroke-width="0.01" width="1" x="66" y="0.5246259775837296"/><rect fill="#2563EB" height="0.6003036464672904" stroke="#EFF6FF" stroke-width="0.01" width="1" x="67" y="0.3996963535327096"/><rect fill="#2563EB" height="0.5959599390008664" stroke="#EFF6FF" stroke-width="0.01" width="1" x="68" y="0.4040400609991336"/><rect fill="#2563EB" height="0.4761483244384723" stroke="#EFF6FF" stroke-width="0.01" width="1" x="69" y="0.5238516755615277"/><rect fill="#2563EB" height="0.4121858921410989" stroke="#EFF6FF" stroke-width="0.01" width="1" x="70" y="0.5878141078589011"/><rect fill="#2563EB" height="0.41073618263992007" stroke="#EFF6FF" stroke-width="0.01" width="1" x="71" y="0.5892638173600799"/><rect fill="#2563EB" height="0.4440842807246436" stroke="#EFF6FF" stroke-width="0.01" width="1" x="72" y="0.5559157192753563"/><rect fill="#2563EB" height="0.504312373440703" stroke="#EFF6FF" stroke-width="0.01" width="1" x="73" y="0.495687626559297"/><rect fill="#2563EB" height="0.4484929516404761" stroke="#EFF6FF" stroke-width="0.01" width="1" x="74" y="0.5515070483595239"/><rect fill="#2563EB" height="1" stroke="#EFF6FF" stroke-width="0.01" width="1" x="75" y="0"/><rect fill="#2563EB" height="0.6175460918490612" stroke="#EFF6FF" stroke-width="0.01" width="1" x="76" y="0.3824539081509388"/><rect fill="#2563EB" height="0.3984225810777199" stroke="#EFF6FF" stroke-width="0.01" width="1" x="77" y="0.6015774189222801"/><rect fill="#2563EB" height="0.47603862683882375" stroke="#EFF6FF" stroke-width="0.01" width="1" x="78" y="0.5239613731611763"/><rect fill="#2563EB" height="0.5786596770912594" stroke="#EFF6FF" stroke-width="0.01" width="1" x="79" y="0.42134032290874057"/><rect fill="#2563EB" height="0.8079132409838105" stroke="#EFF6FF" stroke-width="0.01" width="1" x="80" y="0.19208675901618955"/><rect fill="#2563EB" height="0.5807840133679465" stroke="#EFF6FF" stroke-width="0.01" width="1" x="81" y="0.4192159866320535"/><rect fill="#2563EB" height="0.4984612153807056" stroke="#EFF6FF" stroke-width="0.01" width="1" x="82" y="0.5015387846192945"/><rect fill="#2563EB" height="0.6322406510800228" stroke="#EFF6FF" stroke-width="0.01" width="1" x="83" y="0.3677593489199772"/><rect fill="#2563EB" height="0.5873533494601676" stroke="#EFF6FF" stroke-width="0.01" width="1" x="84" y="0.4126466505398324"/><rect fill="#2563EB" height="0.3975451014745781" stroke="#EFF6FF" stroke-width="0.01" width="1" x="85" y="0.6024548985254219"/><rect fill="#2563EB" height="0.5310883886731995" stroke="#EFF6FF" stroke-width="0.01" width="1" x="86" y="0.4689116113268005"/><rect fill="#2563EB" height="0.5962000734800625" stroke="#EFF6FF" stroke-width="0.01" width="1" x="87" y="0.40379992651993746"/><rect fill="#2563EB" height="0.5651088764237556" stroke="#EFF6FF" stroke-width="0.01" width="1" x="88" y="0.4348911235762444"/><rect fill="#2563EB" height="0.5801114514081054" stroke="#EFF6FF" stroke-width="0.01" width="1" x="89" y="0.4198885485918946"/><rect fill="#2563EB" height="0.5790231637860485" stroke="#EFF6FF" stroke-width="0.01" width="1" x="90" y="0.42097683621395154"/><rect fill="#2563EB" height="0.49779900316229775" stroke="#EFF6FF" stroke-width="0.01" width="1" x="91" y="0.5022009968377023"/><rect fill="#2563EB" height="0.7418480791491167" stroke="#EFF6FF" stroke-width="0.01" width="1" x="92" y="0.25815192085088334"/><rect fill="#2563EB" height="0.8150151265340101" stroke="#EFF6FF" stroke-width="0.01" width="1" x="93" y="0.1849848734659899"/><rect fill="#2563EB" height="0.4561025759815033" stroke="#EFF6FF" stroke-width="0.01" width="1" x="94" y="0.5438974240184967"/><rect fill="#2563EB" height="0.3067369769133951" stroke="#EFF6FF" stroke-width="0.01" width="1" x="95" y="0.6932630230866049"/><rect fill="#2563EB" height="0.22910957497406637" stroke="#EFF6FF" stroke-width="0.01" width="1" x="96" y="0.7708904250259336"/><rect fill="#2563EB" height="0.6082851785810354" stroke="#EFF6FF" stroke-width="0.01" width="1" x="97" y="0.39171482141896463"/><rect fill="#2563EB" height="0.3162491024620023" stroke="#EFF6FF" stroke-width="0.01" width="1" x="98" y="0.6837508975379978"/><rect fill="#2563EB" height="0.15244337782598777" stroke="#EFF6FF" stroke-width="0.01" width="1" x="99" y="0.8475566221740123"/></svg>