<svg xmlns="http://www.w3.org/2000/svg" preserveAspectRatio="none" viewBox="0 0 100 1"><rect fill="#2563EB" height="0.9208283197612088" stroke="#EFF6FF" stroke-width="0.01" width="1" x="0" y="0.07917168023879118"/><rect fill="#2563EB" height="0.8714475573768122" stroke="#EFF6FF" stroke-width="0.01" width="1" x="1" y="0.12855244262318777"/><rect fill="#2563EB" height="0.8496097125718375" stroke="#EFF6FF" stroke-width="0.01" width="1" x="2" y="0.15039028742816252"/><rect fill="#2563EB" height="0.9208086370732058" stroke="#EFF6FF" stroke-width="0.01" width="1" x="3" y="0.07919136292679418"/><rect fill="#2563EB" height="0.8566679732840804" stroke="#EFF6FF" stroke-width="0.01" width="1" x="4" y="0.1433320267159196"/><rect fill="#2563EB" height="0.7238217434025296" stroke="#EFF6FF" stroke-width="0.01" width="1" x="5" y="0.2761782565974704"/><rect fill="#2563EB" height="0.934891337082128" stroke="#EFF6FF" stroke-width="0.01" width="1" x="6" y="0.06510866291787198"/><rect fill="#2563EB" height="0.838826117898456" stroke="#EFF6FF" stroke-width="0.01" width="1" x="7" y="0.16117388210154404"/><rect fill="#2563EB" height="0.7727105696334678" stroke="#EFF6FF" stroke-width="0.01" width="1" x="8" y="0.22728943036653215"/><rect fill="#2563EB" height="0.8191622372361034" stroke="#EFF6FF" stroke-width="0.01" width="1" x="9" y="0.18083776276389663"/><rect fill="#2563EB" height="0.8467467917939373" stroke="#EFF6FF" stroke-width="0.01" width="1" x="10" y="0.1532532082060627"/><rect fill="#2563EB" height="0.7497118651962" stroke="#EFF6FF" stroke-width="0.01" width="1" x="11" y="0.25028813480379997"/><rect fill="#2563EB" height="0.9017897791719077" stroke="#EFF6FF" stroke-width="0.01" width="1" x="12" y="0.09821022082809228"/><rect fill="#2563EB" height="0.7799591617457918" stroke="#EFF6FF" stroke-width="0.01" width="1" x="13" y="0.22004083825420817"/><rect fill="#2563EB" height="0.8012431147678442" stroke="#EFF6FF" stroke-width="0.01" width="1" x="14" y="0.19875688523215584"/><rect fill="#2563EB" height="0.7324906034262797" stroke="#EFF6FF" stroke-width="0.01" width="1" x="15" y="0.2675093965737203"/><rect fill="#2563EB" height="0.7556245873564553" stroke="#EFF6FF" stroke-width="0.01" width="1" x="16" y="0.24437541264354468"/><rect fill="#2563EB" height="0.5951765242760383" stroke="#EFF6FF" stroke-width="0.01" width="1" x="17" y="0.4048234757239617"/><rect fill="#2563EB" height="0.9304548174622922" stroke="#EFF6FF" stroke-width="0.01" width="1" x="18" y="0.0695451825377078"/><rect fill="#2563EB" height="0.7999316243359552" stroke="#EFF6FF" stroke-width="0.01" width="1" x="19" y="0.20006837566404478"/><rect fill="#2563EB" height="0.585371982296454" stroke="#EFF6FF" stroke-width="0.01" width="1" x="20" y="0.41462801770354596"/><rect fill="#2563EB" height="0.8211467070530999" stroke="#EFF6FF" stroke-width="0.01" width="1" x="21" y="0.1788532929469001"/><rect fill="#2563EB" height="0.8066491732589028" stroke="#EFF6FF" stroke-width="0.01" width="1" x="22" y="0.19335082674109716"/><rect fill="#2563EB" height="0.8083986225011621" stroke="#EFF6FF" stroke-width="0.01" width="1" x="23" y="0.19160137749883788"/><rect fill="#2563EB" height="0.9611226600987114" stroke="#EFF6FF" stroke-width="0.01" width="1" x="24" y="0.03887733990128861"/><rect fill="#2563EB" height="0.9542349335211358" stroke="#EFF6FF" stroke-width="0.01" width="1" x="25" y="0.04576506647886425"/><rect fill="#2563EB" height="0.7014249640930073" stroke="#EFF6FF" stroke-width="0.01" width="1" x="26" y="0.29857503590699275"/><rect fill="#2563EB" height="0.8802611288337799" stroke="#EFF6FF" stroke-width="0.01" width="1" x="27" y="0.11973887116622006"/><rect fill="#2563EB" height="0.9937419215042699" stroke="#EFF6FF" stroke-width="0.01" width="1" x="28" y="0.006258078495730124"/><rect fill="#2563EB" height="0.8621846618037831" stroke="#EFF6FF" stroke-width="0.01" width="1" x="29" y="0.13781533819621694"/><rect fill="#2563EB" height="0.8433871706424553" stroke="#EFF6FF" stroke-width="0.01" width="1" x="30" y="0.15661282935754473"/><rect fill="#2563EB" height="0.8316454631434984" stroke="#EFF6FF" stroke-width="0.01" width="1" x="31" y="0.1683545368565016"/><rect fill="#2563EB" height="0.7933977789883203" stroke="#EFF6FF" stroke-width="0.01" width="1" x="32" y="0.2066022210116797"/><rect fill="#2563EB" height="0.8234633516127555" stroke="#EFF6FF" stroke-width="0.01" width="1" x="33" y="0.17653664838724448"/><rect fill="#2563EB" height="0.8042720838869305" stroke="#EFF6FF" stroke-width="0.01" width="1" x="34" y="0.1957279161130695"/><rect fill="#2563EB" height="0.7550028451889864" stroke="#EFF6FF" stroke-width="0.01" width="1" x="35" y="0.24499715481101358"/><rect fill="#2563EB" height="0.7529051318138776" stroke="#EFF6FF" stroke-width="0.01" width="1" x="36" y="0.24709486818612236"/><rect fill="#2563EB" height="0.7920032699465333" stroke="#EFF6FF" stroke-width="0.01" width="1" x="37" y="0.20799673005346675"/><rect fill="#2563EB" height="0.7179621962332746" stroke="#EFF6FF" stroke-width="0.01" width="1" x="38" y="0.2820378037667254"/><rect fill="#2563EB" height="0.7465004161867992" stroke="#EFF6FF" stroke-width="0.01" width="1" x="39" y="0.2534995838132008"/><rect fill="#2563EB" height="0.8811235060281133" stroke="#EFF6FF" stroke-width="0.01" width="1" x="40" y="0.11887649397188671"/><rect fill="#2563EB" height="0.6607868174382205" stroke="#EFF6FF" stroke-width="0.01" width="1" x="41" y="0.33921318256177946"/><rect fill="#2563EB" height="0.800788780082592" stroke="#EFF6FF" stroke-width="0.01" width="1" x="42" y="0.19921121991740798"/><rect fill="#2563EB" height="0.8532044746128316" stroke="#EFF6FF" stroke-width="0.01" width="1" x="43" y="0.14679552538716845"/><rect fill="#2563EB" height="0.8046138303764165" stroke="#EFF6FF" stroke-width="0.01" width="1" x="44" y="0.19538616962358346"/><rect fill="#2563EB" height="0.8308130037394001" stroke="#EFF6FF" stroke-width="0.01" width="1" x="45" y="0.16918699626059985"/><rect fill="#2563EB" height="0.9091025692725971" stroke="#EFF6FF" stroke-width="0.01" width="1" x="46" y="0.09089743072740286"/><rect fill="#2563EB" height="0.8891004610105455" stroke="#EFF6FF" stroke-width="0.01" width="1" x="47" y="0.11089953898945448"/><rect fill="#2563EB" height="0.80620504168922" stroke="#EFF6FF" stroke-width="0.01" width="1" x="48" y="0.19379495831077997"/><rect fill="#2563EB" height="0.8792185789662874" stroke="#EFF6FF" stroke-width="0.01" width="1" x="49" y="0.12078142103371259"/><rect fill="#2563EB" height="0.9176139039303417" stroke="#EFF6FF" stroke-width="0.01" width="1" x="50" y="0.0823860960696583"/><rect fill="#2563EB" height="0.7372337477027289" stroke="#EFF6FF" stroke-width="0.01" width="1" x="51" y="0.26276625229727113"/><rect fill="#2563EB" height="0.6806986219454803" stroke="#EFF6FF" stroke-width="0.01" width="1" x="52" y="0.31930137805451975"/><rect fill="#2563EB" height="0.8129944464045622" stroke="#EFF6FF" stroke-width="0.01" width="1" x="53" y="0.1870055535954378"/><rect fill="#2563EB" height="0.7724971594812413" stroke="#EFF6FF" stroke-width="0.01" width="1" x="54" y="0.2275028405187587"/><rect fill="#2563EB" height="0.8107441442644194" stroke="#EFF6FF" stroke-width="0.01" width="1" x="55" y="0.18925585573558057"/><rect fill="#2563EB" height="1" stroke="#EFF6FF" stroke-width="0.01" width="1" x="56" y="0"/><rect fill="#2563EB" height="0.7143093371390431" stroke="#EFF6FF" stroke-width="0.01" width="1" x="57" y="0.2856906628609569"/><rect fill="#2563EB" height="0.8052616753778966" stroke="#EFF6FF" stroke-width="0.01" width="1" x="58" y="0.1947383246221034"/><rect fill="#2563EB" height="0.9042534363371002" stroke="#EFF6FF" stroke-width="0.01" width="1" x="59" y="0.0957465636628998"/><rect fill="#2563EB" height="0.9577180437850149" stroke="#EFF6FF" stroke-width="0.01" width="1" x="60" y="0.042281956214985095"/><rect fill="#2563EB" height="0.9080656077850846" stroke="#EFF6FF" stroke-width="0.01" width="1" x="61" y="0.0919343922149154"/><rect fill="#2563EB" height="0.9005905283134591" stroke="#EFF6FF" stroke-width="0.01" width="1" x="62" y="0.0994094716865409"/><rect fill="#2563EB" height="0.7458010364685679" stroke="#EFF6FF" stroke-width="0.01" width="1" x="63" y="0.2541989635314321"/><rect fill="#2563EB" height="0.7625019777185976" stroke="#EFF6FF" stroke-width="0.01" width="1" x="64" y="0.23749802228140238"/><rect fill="#2563EB" height="0.8797518185203319" stroke="#EFF6FF" stroke-width="0.01" width="1" x="65" y="0.12024818147966809"/><rect fill="#2563EB" height="0.6995465700824011" stroke="#EFF6FF" stroke-width="0.01" width="1" x="66" y="0.30045342991759894"/><rect fill="#2563EB" height="0.6389222256980871" stroke="#EFF6FF" stroke-width="0.01" width="1" x="67" y="0.3610777743019129"/><rect fill="#2563EB" height="0.6309532962913624" stroke="#EFF6FF" stroke-width="0.01" width="1" x="68" y="0.36904670370863757"/><rect fill="#2563EB" height="0.6925024972466262" stroke="#EFF6FF" stroke-width="0.01" width="1" x="69" y="0.30749750275337384"/><rect fill="#2563EB" height="0.7757485437101539" stroke="#EFF6FF" stroke-width="0.01" width="1" x="70" y="0.2242514562898461"/><rect fill="#2563EB" height="0.7440333641362157" stroke="#EFF6FF" stroke-width="0.01" width="1" x="71" y="0.2559666358637843"/><rect fill="#2563EB" height="0.8174046684993241" stroke="#EFF6FF" stroke-width="0.01" width="1" x="72" y="0.18259533150067586"/><rect fill="#2563EB" height="0.8462092797774101" stroke="#EFF6FF" stroke-width="0.01" width="1" x="73" y="0.15379072022258988"/><rect fill="#2563EB" height="0.8825621897917117" stroke="#EFF6FF" stroke-width="0.01" width="1" x="74" y="0.11743781020828825"/><rect fill="#2563EB" height="0.8574322385862334" stroke="#EFF6FF" stroke-width="0.01" width="1" x="75" y="0.1425677614137666"/><rect fill="#2563EB" height="0.822872467471147" stroke="#EFF6FF" stroke-width="0.01" width="1" x="76" y="0.17712753252885305"/><rect fill="#2563EB" height="0.7996626491955104" stroke="#EFF6FF" stroke-width="0.01" width="1" x="77" y="0.20033735080448956"/><rect fill="#2563EB" height="0.7681063691854016" stroke="#EFF6FF" stroke-width="0.01" width="1" x="78" y="0.23189363081459835"/><rect fill="#2563EB" height="0.8268120874769135" stroke="#EFF6FF" stroke-width="0.01" width="1" x="79" y="0.17318791252308652"/><rect fill="#2563EB" height="0.8840782505773354" stroke="#EFF6FF" stroke-width="0.01" width="1" x="80" y="0.11592174942266464"/><rect fill="#2563EB" height="0.7060325617871565" stroke="#EFF6FF" stroke-width="0.01" width="1" x="81" y="0.29396743821284355"/><rect fill="#2563EB" height="0.8763801142233181" stroke="#EFF6FF" stroke-width="0.01" width="1" x="82" y="0.12361988577668193"/><rect fill="#2563EB" height="0.8480087431686919" stroke="#EFF6FF" stroke-width="0.01" width="1" x="83" y="0.1519912568313081"/><rect fill="#2563EB" height="0.725720795630579" stroke="#EFF6FF" stroke-width="0.01" width="1" x="84" y="0.274279204369421"/><rect fill="#2563EB" height="0.7616414862159627" stroke="#EFF6FF" stroke-width="0.01" width="1" x="85" y="0.23835851378403727"/><rect fill="#2563EB" height="0.826533283226095" stroke="#EFF6FF" stroke-width="0.01" width="1" x="86" y="0.17346671677390502"/><rect fill="#2563EB" height="0.7660050468263775" stroke="#EFF6FF" stroke-width="0.01" width="1" x="87" y="0.2339949531736225"/><rect fill="#2563EB" height="0.764206192891169" stroke="#EFF6FF" stroke-width="0.01" width="1" x="88" y="0.23579380710883102"/><rect fill="#2563EB" height="0.8084312726936264" stroke="#EFF6FF" stroke-width="0.01" width="1" x="89" y="0.19156872730637364"/><rect fill="#2563EB" height="0.8442577286397719" stroke="#EFF6FF" stroke-width="0.01" width="1" x="90" y="0.1557422713602281"/><rect fill="#2563EB" height="0.9031214879365856" stroke="#EFF6FF" stroke-width="0.01" width="1" x="91" y="0.09687851206341436"/><rect fill="#2563EB" height="0.7887697390583857" stroke="#EFF6FF" stroke-width="0.01" width="1" x="92" y="0.21123026094161435"/><rect fill="#2563EB" height="0.505231194514273" stroke="#EFF6FF" stroke-width="0.01" width="1" x="93" y="0.494768805485727"/><rect fill="#2563EB" height="0.4726739830349356" stroke="#EFF6FF" stroke-width="0.01" width="1" x="94" y="0.5273260169650644"/><rect fill="#2563EB" height="0.45459743778685197" stroke="#EFF6FF" stroke-width="0.01" width="1" x="95" y="0.545402562213148"/><rect fill="#2563EB" height="0.40474072522979393" stroke="#EFF6FF" stroke-width="0.01" width="1" x="96" y="0.5952592747702061"/><rect fill="#2563EB" height="0.42888315495778917" stroke="#EFF6FF" stroke-width="0.01" width="1" x="97" y="0.5711168450422108"/><rect fill="#2563EB" height="0.5425932997064143" stroke="#EFF6FF" stroke-width="0.01" width="1" x="98" y="0.45740670029358566"/><rect fill="#2563EB" height="0.40603591868209543" stroke="#EFF6FF" stroke-width="0.01" width="1" x="99" y="0.5939640813179046"/></svg>