<svg xmlns="http://www.w3.org/2000/svg" preserveAspectRatio="none" viewBox="0 0 100 1"><rect fill="#2563EB" height="0.47585310605742515" stroke="#EFF6FF" stroke-width="0.01" width="1" x="0" y="0.5241468939425749"/><rect fill="#2563EB" height="0.5456906606800707" stroke="#EFF6FF" stroke-width="0.01" width="1" x="1" y="0.45430933931992934"/><rect fill="#2563EB" height="0.5386511627438271" stroke="#EFF6FF" stroke-width="0.01" width="1" x="2" y="0.46134883725617293"/><rect fill="#2563EB" height="0.4349212155929969" stroke="#EFF6FF" stroke-width="0.01" width="1" x="3" y="0.5650787844070031"/><rect fill="#2563EB" height="0.4042074575432626" stroke="#EFF6FF" stroke-width="0.01" width="1" x="4" y="0.5957925424567374"/><rect fill="#2563EB" height="0.5135010548282005" stroke="#EFF6FF" stroke-width="0.01" width="1" x="5" y="0.4864989451717995"/><rect fill="#2563EB" height="0.6311568490824901" stroke="#EFF6FF" stroke-width="0.01" width="1" x="6" y="0.36884315091750985"/><rect fill="#2563EB" height="0.6155944550547384" stroke="#EFF6FF" stroke-width="0.01" width="1" x="7" y="0.3844055449452616"/><rect fill="#2563EB" height="0.6155762203762112" stroke="#EFF6FF" stroke-width="0.01" width="1" x="8" y="0.3844237796237888"/><rect fill="#2563EB" height="0.7373414692146734" stroke="#EFF6FF" stroke-width="0.01" width="1" x="9" y="0.26265853078532664"/><rect fill="#2563EB" height="0.6909375083013627" stroke="#EFF6FF" stroke-width="0.01" width="1" x="10" y="0.3090624916986373"/><rect fill="#2563EB" height="0.7040053972049013" stroke="#EFF6FF" stroke-width="0.01" width="1" x="11" y="0.2959946027950987"/><rect fill="#2563EB" height="0.6182723332021134" stroke="#EFF6FF" stroke-width="0.01" width="1" x="12" y="0.3817276667978866"/><rect fill="#2563EB" height="0.7181668339954284" stroke="#EFF6FF" stroke-width="0.01" width="1" x="13" y="0.28183316600457164"/><rect fill="#2563EB" height="0.7549025830639697" stroke="#EFF6FF" stroke-width="0.01" width="1" x="14" y="0.24509741693603027"/><rect fill="#2563EB" height="0.6908964584784775" stroke="#EFF6FF" stroke-width="0.01" width="1" x="15" y="0.30910354152152253"/><rect fill="#2563EB" height="0.6674456221118334" stroke="#EFF6FF" stroke-width="0.01" width="1" x="16" y="0.33255437788816655"/><rect fill="#2563EB" height="0.6327650438246613" stroke="#EFF6FF" stroke-width="0.01" width="1" x="17" y="0.36723495617533874"/><rect fill="#2563EB" height="0.7772135992093359" stroke="#EFF6FF" stroke-width="0.01" width="1" x="18" y="0.22278640079066414"/><rect fill="#2563EB" height="0.8860314971174352" stroke="#EFF6FF" stroke-width="0.01" width="1" x="19" y="0.11396850288256477"/><rect fill="#2563EB" height="0.8961005304027757" stroke="#EFF6FF" stroke-width="0.01" width="1" x="20" y="0.10389946959722429"/><rect fill="#2563EB" height="0.7306008571266304" stroke="#EFF6FF" stroke-width="0.01" width="1" x="21" y="0.26939914287336963"/><rect fill="#2563EB" height="0.7971413789843456" stroke="#EFF6FF" stroke-width="0.01" width="1" x="22" y="0.20285862101565444"/><rect fill="#2563EB" height="0.7216764963327146" stroke="#EFF6FF" stroke-width="0.01" width="1" x="23" y="0.2783235036672854"/><rect fill="#2563EB" height="0.7559684753672132" stroke="#EFF6FF" stroke-width="0.01" width="1" x="24" y="0.24403152463278677"/><rect fill="#2563EB" height="1" stroke="#EFF6FF" stroke-width="0.01" width="1" x="25" y="0"/><rect fill="#2563EB" height="0.9699816343689779" stroke="#EFF6FF" stroke-width="0.01" width="1" x="26" y="0.030018365631022115"/><rect fill="#2563EB" height="0.9232709484699749" stroke="#EFF6FF" stroke-width="0.01" width="1" x="27" y="0.07672905153002507"/><rect fill="#2563EB" height="0.9042014160941753" stroke="#EFF6FF" stroke-width="0.01" width="1" x="28" y="0.09579858390582474"/><rect fill="#2563EB" height="0.775027135013375" stroke="#EFF6FF" stroke-width="0.01" width="1" x="29" y="0.22497286498662505"/><rect fill="#2563EB" height="0.7481218242890497" stroke="#EFF6FF" stroke-width="0.01" width="1" x="30" y="0.2518781757109503"/><rect fill="#2563EB" height="0.9284842934081106" stroke="#EFF6FF" stroke-width="0.01" width="1" x="31" y="0.07151570659188944"/><rect fill="#2563EB" height="0.9769094430989329" stroke="#EFF6FF" stroke-width="0.01" width="1" x="32" y="0.023090556901067094"/><rect fill="#2563EB" height="0.8472732136359693" stroke="#EFF6FF" stroke-width="0.01" width="1" x="33" y="0.1527267863640307"/><rect fill="#2563EB" height="0.7886478643860739" stroke="#EFF6FF" stroke-width="0.01" width="1" x="34" y="0.21135213561392607"/><rect fill="#2563EB" height="0.7412239143638737" stroke="#EFF6FF" stroke-width="0.01" width="1" x="35" y="0.2587760856361263"/><rect fill="#2563EB" height="0.8627829641676018" stroke="#EFF6FF" stroke-width="0.01" width="1" x="36" y="0.1372170358323982"/><rect fill="#2563EB" height="0.8835330487792207" stroke="#EFF6FF" stroke-width="0.01" width="1" x="37" y="0.11646695122077932"/><rect fill="#2563EB" height="0.7969258099606064" stroke="#EFF6FF" stroke-width="0.01" width="1" x="38" y="0.20307419003939364"/><rect fill="#2563EB" height="0.7538152290053574" stroke="#EFF6FF" stroke-width="0.01" width="1" x="39" y="0.24618477099464264"/><rect fill="#2563EB" height="0.787543440042662" stroke="#EFF6FF" stroke-width="0.01" width="1" x="40" y="0.21245655995733803"/><rect fill="#2563EB" height="0.7308324753172426" stroke="#EFF6FF" stroke-width="0.01" width="1" x="41" y="0.2691675246827574"/><rect fill="#2563EB" height="0.6928970309006856" stroke="#EFF6FF" stroke-width="0.01" width="1" x="42" y="0.30710296909931445"/><rect fill="#2563EB" height="0.790409914448425" stroke="#EFF6FF" stroke-width="0.01" width="1" x="43" y="0.209590085551575"/><rect fill="#2563EB" height="0.7736733100890366" stroke="#EFF6FF" stroke-width="0.01" width="1" x="44" y="0.22632668991096339"/><rect fill="#2563EB" height="0.6860463969872735" stroke="#EFF6FF" stroke-width="0.01" width="1" x="45" y="0.31395360301272646"/><rect fill="#2563EB" height="0.666363896168733" stroke="#EFF6FF" stroke-width="0.01" width="1" x="46" y="0.33363610383126696"/><rect fill="#2563EB" height="0.575023994556402" stroke="#EFF6FF" stroke-width="0.01" width="1" x="47" y="0.42497600544359804"/><rect fill="#2563EB" height="0.5822554254504847" stroke="#EFF6FF" stroke-width="0.01" width="1" x="48" y="0.4177445745495153"/><rect fill="#2563EB" height="0.6692926957757073" stroke="#EFF6FF" stroke-width="0.01" width="1" x="49" y="0.33070730422429273"/><rect fill="#2563EB" height="0.7270183421486048" stroke="#EFF6FF" stroke-width="0.01" width="1" x="50" y="0.27298165785139517"/><rect fill="#2563EB" height="0.46437826864474147" stroke="#EFF6FF" stroke-width="0.01" width="1" x="51" y="0.5356217313552585"/><rect fill="#2563EB" height="0.6749800475806437" stroke="#EFF6FF" stroke-width="0.01" width="1" x="52" y="0.32501995241935633"/><rect fill="#2563EB" height="0.6341877628638962" stroke="#EFF6FF" stroke-width="0.01" width="1" x="53" y="0.3658122371361038"/><rect fill="#2563EB" height="0.7410028247117668" stroke="#EFF6FF" stroke-width="0.01" width="1" x="54" y="0.2589971752882332"/><rect fill="#2563EB" height="0.5299431199571831" stroke="#EFF6FF" stroke-width="0.01" width="1" x="55" y="0.47005688004281687"/><rect fill="#2563EB" height="0.5724737044845108" stroke="#EFF6FF" stroke-width="0.01" width="1" x="56" y="0.42752629551548915"/><rect fill="#2563EB" height="0.5359196978135128" stroke="#EFF6FF" stroke-width="0.01" width="1" x="57" y="0.4640803021864872"/><rect fill="#2563EB" height="0.5064979303214454" stroke="#EFF6FF" stroke-width="0.01" width="1" x="58" y="0.4935020696785546"/><rect fill="#2563EB" height="0.6354509375541844" stroke="#EFF6FF" stroke-width="0.01" width="1" x="59" y="0.36454906244581564"/><rect fill="#2563EB" height="0.5881707985008823" stroke="#EFF6FF" stroke-width="0.01" width="1" x="60" y="0.4118292014991177"/><rect fill="#2563EB" height="0.6867271453426165" stroke="#EFF6FF" stroke-width="0.01" width="1" x="61" y="0.3132728546573835"/><rect fill="#2563EB" height="0.4819472714508035" stroke="#EFF6FF" stroke-width="0.01" width="1" x="62" y="0.5180527285491965"/><rect fill="#2563EB" height="0.6060608725730642" stroke="#EFF6FF" stroke-width="0.01" width="1" x="63" y="0.3939391274269358"/><rect fill="#2563EB" height="0.42899615485299675" stroke="#EFF6FF" stroke-width="0.01" width="1" x="64" y="0.5710038451470032"/><rect fill="#2563EB" height="0.565558192537321" stroke="#EFF6FF" stroke-width="0.01" width="1" x="65" y="0.434441807462679"/><rect fill="#2563EB" height="0.4109476469291605" stroke="#EFF6FF" stroke-width="0.01" width="1" x="66" y="0.5890523530708395"/><rect fill="#2563EB" height="0.7175673462577198" stroke="#EFF6FF" stroke-width="0.01" width="1" x="67" y="0.2824326537422802"/><rect fill="#2563EB" height="0.6663132624269057" stroke="#EFF6FF" stroke-width="0.01" width="1" x="68" y="0.3336867375730943"/><rect fill="#2563EB" height="0.6285622389693102" stroke="#EFF6FF" stroke-width="0.01" width="1" x="69" y="0.3714377610306898"/><rect fill="#2563EB" height="0.6278568777846932" stroke="#EFF6FF" stroke-width="0.01" width="1" x="70" y="0.37214312221530677"/><rect fill="#2563EB" height="0.6517977230254024" stroke="#EFF6FF" stroke-width="0.01" width="1" x="71" y="0.3482022769745976"/><rect fill="#2563EB" height="0.5024398079633979" stroke="#EFF6FF" stroke-width="0.01" width="1" x="72" y="0.49756019203660207"/><rect fill="#2563EB" height="0.38932288900565276" stroke="#EFF6FF" stroke-width="0.01" width="1" x="73" y="0.6106771109943472"/><rect fill="#2563EB" height="0.5526605045864869" stroke="#EFF6FF" stroke-width="0.01" width="1" x="74" y="0.44733949541351314"/><rect fill="#2563EB" height="0.4812561169141092" stroke="#EFF6FF" stroke-width="0.01" width="1" x="75" y="0.5187438830858908"/><rect fill="#2563EB" height="0.7070539305258776" stroke="#EFF6FF" stroke-width="0.01" width="1" x="76" y="0.2929460694741224"/><rect fill="#2563EB" height="0.6933913513732655" stroke="#EFF6FF" stroke-width="0.01" width="1" x="77" y="0.30660864862673454"/><rect fill="#2563EB" height="0.8922420578302819" stroke="#EFF6FF" stroke-width="0.01" width="1" x="78" y="0.10775794216971812"/><rect fill="#2563EB" height="0.6602089093239881" stroke="#EFF6FF" stroke-width="0.01" width="1" x="79" y="0.3397910906760119"/><rect fill="#2563EB" height="0.6587881170652781" stroke="#EFF6FF" stroke-width="0.01" width="1" x="80" y="0.34121188293472193"/><rect fill="#2563EB" height="0.48050514111662035" stroke="#EFF6FF" stroke-width="0.01" width="1" x="81" y="0.5194948588833797"/><rect fill="#2563EB" height="0.5132669197044046" stroke="#EFF6FF" stroke-width="0.01" width="1" x="82" y="0.48673308029559537"/><rect fill="#2563EB" height="0.5058433425776482" stroke="#EFF6FF" stroke-width="0.01" width="1" x="83" y="0.4941566574223518"/><rect fill="#2563EB" height="0.6192319286518675" stroke="#EFF6FF" stroke-width="0.01" width="1" x="84" y="0.3807680713481325"/><rect fill="#2563EB" height="0.5944026279402075" stroke="#EFF6FF" stroke-width="0.01" width="1" x="85" y="0.4055973720597925"/><rect fill="#2563EB" height="0.40000416632222685" stroke="#EFF6FF" stroke-width="0.01" width="1" x="86" y="0.5999958336777731"/><rect fill="#2563EB" height="0.4286689379421273" stroke="#EFF6FF" stroke-width="0.01" width="1" x="87" y="0.5713310620578727"/><rect fill="#2563EB" height="0.5989710098127072" stroke="#EFF6FF" stroke-width="0.01" width="1" x="88" y="0.40102899018729277"/><rect fill="#2563EB" height="0.5856429739965605" stroke="#EFF6FF" stroke-width="0.01" width="1" x="89" y="0.4143570260034395"/><rect fill="#2563EB" height="0.4352731804241332" stroke="#EFF6FF" stroke-width="0.01" width="1" x="90" y="0.5647268195758668"/><rect fill="#2563EB" height="0.4135924322045205" stroke="#EFF6FF" stroke-width="0.01" width="1" x="91" y="0.5864075677954794"/><rect fill="#2563EB" height="0.4222707824155603" stroke="#EFF6FF" stroke-width="0.01" width="1" x="92" y="0.5777292175844397"/><rect fill="#2563EB" height="0.409280086113683" stroke="#EFF6FF" stroke-width="0.01" width="1" x="93" y="0.5907199138863171"/><rect fill="#2563EB" height="0.42436893706932677" stroke="#EFF6FF" stroke-width="0.01" width="1" x="94" y="0.5756310629306732"/><rect fill="#2563EB" height="0.43236299647061804" stroke="#EFF6FF" stroke-width="0.01" width="1" x="95" y="0.567637003529382"/><rect fill="#2563EB" height="0.5899030460009197" stroke="#EFF6FF" stroke-width="0.01" width="1" x="96" y="0.4100969539990803"/><rect fill="#2563EB" height="0.5134036194069739" stroke="#EFF6FF" stroke-width="0.01" width="1" x="97" y="0.4865963805930261"/><rect fill="#2563EB" height="0.42981331021337427" stroke="#EFF6FF" stroke-width="0.01" width="1" x="98" y="0.5701866897866257"/><rect fill="#2563EB" height="0.3790709289963675" stroke="#EFF6FF" stroke-width="0.01" width="1" x="99" y="0.6209290710036325"/></svg>