<svg xmlns="http://www.w3.org/2000/svg" preserveAspectRatio="none" viewBox="0 0 100 1"><rect fill="#2563EB" height="0.8911393505426318" stroke="#EFF6FF" stroke-width="0.01" width="1" x="0" y="0.10886064945736817"/><rect fill="#2563EB" height="0.8726092338850012" stroke="#EFF6FF" stroke-width="0.01" width="1" x="1" y="0.12739076611499878"/><rect fill="#2563EB" height="0.8228455676591868" stroke="#EFF6FF" stroke-width="0.01" width="1" x="2" y="0.17715443234081318"/><rect fill="#2563EB" height="0.8188495376104362" stroke="#EFF6FF" stroke-width="0.01" width="1" x="3" y="0.18115046238956378"/><rect fill="#2563EB" height="0.8654730149239126" stroke="#EFF6FF" stroke-width="0.01" width="1" x="4" y="0.1345269850760874"/><rect fill="#2563EB" height="0.9053721419580308" stroke="#EFF6FF" stroke-width="0.01" width="1" x="5" y="0.09462785804196916"/><rect fill="#2563EB" height="0.8386493275357794" stroke="#EFF6FF" stroke-width="0.01" width="1" x="6" y="0.16135067246422063"/><rect fill="#2563EB" height="0.7686837499551618" stroke="#EFF6FF" stroke-width="0.01" width="1" x="7" y="0.23131625004483825"/><rect fill="#2563EB" height="0.7746354799121656" stroke="#EFF6FF" stroke-width="0.01" width="1" x="8" y="0.22536452008783436"/><rect fill="#2563EB" height="0.7952658491711158" stroke="#EFF6FF" stroke-width="0.01" width="1" x="9" y="0.20473415082888424"/><rect fill="#2563EB" height="0.8955292990198601" stroke="#EFF6FF" stroke-width="0.01" width="1" x="10" y="0.10447070098013989"/><rect fill="#2563EB" height="0.9076516823875855" stroke="#EFF6FF" stroke-width="0.01" width="1" x="11" y="0.09234831761241447"/><rect fill="#2563EB" height="0.7805522576718001" stroke="#EFF6FF" stroke-width="0.01" width="1" x="12" y="0.21944774232819986"/><rect fill="#2563EB" height="0.8497524905764058" stroke="#EFF6FF" stroke-width="0.01" width="1" x="13" y="0.15024750942359422"/><rect fill="#2563EB" height="0.8737820315024656" stroke="#EFF6FF" stroke-width="0.01" width="1" x="14" y="0.12621796849753442"/><rect fill="#2563EB" height="0.9443618421470016" stroke="#EFF6FF" stroke-width="0.01" width="1" x="15" y="0.055638157852998416"/><rect fill="#2563EB" height="0.8649093285593004" stroke="#EFF6FF" stroke-width="0.01" width="1" x="16" y="0.13509067144069964"/><rect fill="#2563EB" height="0.8124395361309388" stroke="#EFF6FF" stroke-width="0.01" width="1" x="17" y="0.18756046386906122"/><rect fill="#2563EB" height="0.8571252798998661" stroke="#EFF6FF" stroke-width="0.01" width="1" x="18" y="0.1428747201001339"/><rect fill="#2563EB" height="0.8732956994817668" stroke="#EFF6FF" stroke-width="0.01" width="1" x="19" y="0.12670430051823323"/><rect fill="#2563EB" height="0.8982202422713148" stroke="#EFF6FF" stroke-width="0.01" width="1" x="20" y="0.1017797577286852"/><rect fill="#2563EB" height="0.8992630345220418" stroke="#EFF6FF" stroke-width="0.01" width="1" x="21" y="0.10073696547795818"/><rect fill="#2563EB" height="0.8134707490916622" stroke="#EFF6FF" stroke-width="0.01" width="1" x="22" y="0.18652925090833783"/><rect fill="#2563EB" height="0.7833671479182543" stroke="#EFF6FF" stroke-width="0.01" width="1" x="23" y="0.21663285208174565"/><rect fill="#2563EB" height="0.9363508820552938" stroke="#EFF6FF" stroke-width="0.01" width="1" x="24" y="0.06364911794470618"/><rect fill="#2563EB" height="0.8992143119257825" stroke="#EFF6FF" stroke-width="0.01" width="1" x="25" y="0.1007856880742175"/><rect fill="#2563EB" height="0.8164490885534352" stroke="#EFF6FF" stroke-width="0.01" width="1" x="26" y="0.18355091144656477"/><rect fill="#2563EB" height="0.8972713571281806" stroke="#EFF6FF" stroke-width="0.01" width="1" x="27" y="0.10272864287181938"/><rect fill="#2563EB" height="0.7505669509980003" stroke="#EFF6FF" stroke-width="0.01" width="1" x="28" y="0.2494330490019997"/><rect fill="#2563EB" height="0.859247406676808" stroke="#EFF6FF" stroke-width="0.01" width="1" x="29" y="0.140752593323192"/><rect fill="#2563EB" height="0.8023319097362087" stroke="#EFF6FF" stroke-width="0.01" width="1" x="30" y="0.19766809026379129"/><rect fill="#2563EB" height="0.8049018786150228" stroke="#EFF6FF" stroke-width="0.01" width="1" x="31" y="0.19509812138497717"/><rect fill="#2563EB" height="0.8189355024637478" stroke="#EFF6FF" stroke-width="0.01" width="1" x="32" y="0.1810644975362522"/><rect fill="#2563EB" height="0.7432782427854265" stroke="#EFF6FF" stroke-width="0.01" width="1" x="33" y="0.25672175721457346"/><rect fill="#2563EB" height="0.8576274765698806" stroke="#EFF6FF" stroke-width="0.01" width="1" x="34" y="0.1423725234301194"/><rect fill="#2563EB" height="0.8837360823182732" stroke="#EFF6FF" stroke-width="0.01" width="1" x="35" y="0.11626391768172684"/><rect fill="#2563EB" height="0.8655847365409272" stroke="#EFF6FF" stroke-width="0.01" width="1" x="36" y="0.13441526345907284"/><rect fill="#2563EB" height="0.8266209319424739" stroke="#EFF6FF" stroke-width="0.01" width="1" x="37" y="0.17337906805752612"/><rect fill="#2563EB" height="0.8100452340851907" stroke="#EFF6FF" stroke-width="0.01" width="1" x="38" y="0.1899547659148093"/><rect fill="#2563EB" height="0.8997364243817307" stroke="#EFF6FF" stroke-width="0.01" width="1" x="39" y="0.10026357561826926"/><rect fill="#2563EB" height="0.9634634880177925" stroke="#EFF6FF" stroke-width="0.01" width="1" x="40" y="0.03653651198220753"/><rect fill="#2563EB" height="0.8177937323429245" stroke="#EFF6FF" stroke-width="0.01" width="1" x="41" y="0.18220626765707548"/><rect fill="#2563EB" height="0.8449127741792338" stroke="#EFF6FF" stroke-width="0.01" width="1" x="42" y="0.15508722582076617"/><rect fill="#2563EB" height="0.8692553792593374" stroke="#EFF6FF" stroke-width="0.01" width="1" x="43" y="0.13074462074066262"/><rect fill="#2563EB" height="0.8084982446985192" stroke="#EFF6FF" stroke-width="0.01" width="1" x="44" y="0.19150175530148084"/><rect fill="#2563EB" height="0.8895887478346001" stroke="#EFF6FF" stroke-width="0.01" width="1" x="45" y="0.11041125216539993"/><rect fill="#2563EB" height="0.9374121097907497" stroke="#EFF6FF" stroke-width="0.01" width="1" x="46" y="0.06258789020925026"/><rect fill="#2563EB" height="0.8917755983334011" stroke="#EFF6FF" stroke-width="0.01" width="1" x="47" y="0.10822440166659886"/><rect fill="#2563EB" height="0.7449288256882918" stroke="#EFF6FF" stroke-width="0.01" width="1" x="48" y="0.2550711743117082"/><rect fill="#2563EB" height="0.7659517553009345" stroke="#EFF6FF" stroke-width="0.01" width="1" x="49" y="0.2340482446990655"/><rect fill="#2563EB" height="0.79551219712766" stroke="#EFF6FF" stroke-width="0.01" width="1" x="50" y="0.20448780287234003"/><rect fill="#2563EB" height="0.8434212372544903" stroke="#EFF6FF" stroke-width="0.01" width="1" x="51" y="0.15657876274550975"/><rect fill="#2563EB" height="0.8124859393978137" stroke="#EFF6FF" stroke-width="0.01" width="1" x="52" y="0.18751406060218634"/><rect fill="#2563EB" height="0.8278202808588955" stroke="#EFF6FF" stroke-width="0.01" width="1" x="53" y="0.17217971914110453"/><rect fill="#2563EB" height="0.7246096996981823" stroke="#EFF6FF" stroke-width="0.01" width="1" x="54" y="0.27539030030181766"/><rect fill="#2563EB" height="0.7717058225350771" stroke="#EFF6FF" stroke-width="0.01" width="1" x="55" y="0.22829417746492287"/><rect fill="#2563EB" height="0.8365209242189039" stroke="#EFF6FF" stroke-width="0.01" width="1" x="56" y="0.1634790757810961"/><rect fill="#2563EB" height="0.810770729253613" stroke="#EFF6FF" stroke-width="0.01" width="1" x="57" y="0.18922927074638696"/><rect fill="#2563EB" height="0.898821400705864" stroke="#EFF6FF" stroke-width="0.01" width="1" x="58" y="0.10117859929413597"/><rect fill="#2563EB" height="0.9631677796193041" stroke="#EFF6FF" stroke-width="0.01" width="1" x="59" y="0.03683222038069589"/><rect fill="#2563EB" height="0.7362342503769798" stroke="#EFF6FF" stroke-width="0.01" width="1" x="60" y="0.26376574962302024"/><rect fill="#2563EB" height="0.9010095250615872" stroke="#EFF6FF" stroke-width="0.01" width="1" x="61" y="0.09899047493841284"/><rect fill="#2563EB" height="1" stroke="#EFF6FF" stroke-width="0.01" width="1" x="62" y="0"/><rect fill="#2563EB" height="0.9648439001261764" stroke="#EFF6FF" stroke-width="0.01" width="1" x="63" y="0.03515609987382362"/><rect fill="#2563EB" height="0.8775526413648185" stroke="#EFF6FF" stroke-width="0.01" width="1" x="64" y="0.12244735863518152"/><rect fill="#2563EB" height="0.7956481626637594" stroke="#EFF6FF" stroke-width="0.01" width="1" x="65" y="0.20435183733624063"/><rect fill="#2563EB" height="0.9792034859500859" stroke="#EFF6FF" stroke-width="0.01" width="1" x="66" y="0.020796514049914117"/><rect fill="#2563EB" height="0.963885566685217" stroke="#EFF6FF" stroke-width="0.01" width="1" x="67" y="0.036114433314783034"/><rect fill="#2563EB" height="0.9735216827816036" stroke="#EFF6FF" stroke-width="0.01" width="1" x="68" y="0.02647831721839644"/><rect fill="#2563EB" height="0.8773919039831845" stroke="#EFF6FF" stroke-width="0.01" width="1" x="69" y="0.12260809601681555"/><rect fill="#2563EB" height="0.8704436411846584" stroke="#EFF6FF" stroke-width="0.01" width="1" x="70" y="0.12955635881534155"/><rect fill="#2563EB" height="0.8515979163848029" stroke="#EFF6FF" stroke-width="0.01" width="1" x="71" y="0.14840208361519713"/><rect fill="#2563EB" height="0.8428576194669055" stroke="#EFF6FF" stroke-width="0.01" width="1" x="72" y="0.15714238053309448"/><rect fill="#2563EB" height="0.8940512522524353" stroke="#EFF6FF" stroke-width="0.01" width="1" x="73" y="0.10594874774756469"/><rect fill="#2563EB" height="0.931162455626311" stroke="#EFF6FF" stroke-width="0.01" width="1" x="74" y="0.06883754437368905"/><rect fill="#2563EB" height="0.8076499425283294" stroke="#EFF6FF" stroke-width="0.01" width="1" x="75" y="0.19235005747167055"/><rect fill="#2563EB" height="0.8583401134665414" stroke="#EFF6FF" stroke-width="0.01" width="1" x="76" y="0.14165988653345862"/><rect fill="#2563EB" height="0.924027952109112" stroke="#EFF6FF" stroke-width="0.01" width="1" x="77" y="0.07597204789088796"/><rect fill="#2563EB" height="0.976829511687158" stroke="#EFF6FF" stroke-width="0.01" width="1" x="78" y="0.023170488312841964"/><rect fill="#2563EB" height="0.9419519502878176" stroke="#EFF6FF" stroke-width="0.01" width="1" x="79" y="0.05804804971218236"/><rect fill="#2563EB" height="0.8879157634960855" stroke="#EFF6FF" stroke-width="0.01" width="1" x="80" y="0.11208423650391452"/><rect fill="#2563EB" height="0.762586775582996" stroke="#EFF6FF" stroke-width="0.01" width="1" x="81" y="0.23741322441700397"/><rect fill="#2563EB" height="0.8435758476223959" stroke="#EFF6FF" stroke-width="0.01" width="1" x="82" y="0.1564241523776041"/><rect fill="#2563EB" height="0.8988406600084827" stroke="#EFF6FF" stroke-width="0.01" width="1" x="83" y="0.10115933999151727"/><rect fill="#2563EB" height="0.8501529593490056" stroke="#EFF6FF" stroke-width="0.01" width="1" x="84" y="0.1498470406509944"/><rect fill="#2563EB" height="0.8864340084876167" stroke="#EFF6FF" stroke-width="0.01" width="1" x="85" y="0.11356599151238334"/><rect fill="#2563EB" height="0.8080655322748803" stroke="#EFF6FF" stroke-width="0.01" width="1" x="86" y="0.19193446772511968"/><rect fill="#2563EB" height="0.9062730042757277" stroke="#EFF6FF" stroke-width="0.01" width="1" x="87" y="0.09372699572427234"/><rect fill="#2563EB" height="0.9864652151380201" stroke="#EFF6FF" stroke-width="0.01" width="1" x="88" y="0.013534784861979898"/><rect fill="#2563EB" height="0.9585985776611077" stroke="#EFF6FF" stroke-width="0.01" width="1" x="89" y="0.041401422338892324"/><rect fill="#2563EB" height="0.8658405587463188" stroke="#EFF6FF" stroke-width="0.01" width="1" x="90" y="0.13415944125368118"/><rect fill="#2563EB" height="0.8030356385894926" stroke="#EFF6FF" stroke-width="0.01" width="1" x="91" y="0.19696436141050744"/><rect fill="#2563EB" height="0.8611322073683129" stroke="#EFF6FF" stroke-width="0.01" width="1" x="92" y="0.13886779263168714"/><rect fill="#2563EB" height="0.8078163492190511" stroke="#EFF6FF" stroke-width="0.01" width="1" x="93" y="0.1921836507809489"/><rect fill="#2563EB" height="0.49230126391964435" stroke="#EFF6FF" stroke-width="0.01" width="1" x="94" y="0.5076987360803557"/><rect fill="#2563EB" height="0.5063374895825973" stroke="#EFF6FF" stroke-width="0.01" width="1" x="95" y="0.4936625104174027"/><rect fill="#2563EB" height="0.4128196117830531" stroke="#EFF6FF" stroke-width="0.01" width="1" x="96" y="0.5871803882169468"/><rect fill="#2563EB" height="0.4204500248544263" stroke="#EFF6FF" stroke-width="0.01" width="1" x="97" y="0.5795499751455737"/><rect fill="#2563EB" height="0.44888609479926467" stroke="#EFF6FF" stroke-width="0.01" width="1" x="98" y="0.5511139052007353"/><rect fill="#2563EB" height="0.5009198116331239" stroke="#EFF6FF" stroke-width="0.01" width="1" x="99" y="0.49908018836687607"/></svg>