<svg xmlns="http://www.w3.org/2000/svg" preserveAspectRatio="none" viewBox="0 0 100 1"><rect fill="#2563EB" height="0.5055707950887329" stroke="#EFF6FF" stroke-width="0.01" width="1" x="0" y="0.4944292049112671"/><rect fill="#2563EB" height="0.4415785040424577" stroke="#EFF6FF" stroke-width="0.01" width="1" x="1" y="0.5584214959575423"/><rect fill="#2563EB" height="0.49360735962128366" stroke="#EFF6FF" stroke-width="0.01" width="1" x="2" y="0.5063926403787163"/><rect fill="#2563EB" height="0.60419671005441" stroke="#EFF6FF" stroke-width="0.01" width="1" x="3" y="0.39580328994559"/><rect fill="#2563EB" height="0.5903347032703607" stroke="#EFF6FF" stroke-width="0.01" width="1" x="4" y="0.40966529672963925"/><rect fill="#2563EB" height="0.4516675251504254" stroke="#EFF6FF" stroke-width="0.01" width="1" x="5" y="0.5483324748495746"/><rect fill="#2563EB" height="0.6195471846125808" stroke="#EFF6FF" stroke-width="0.01" width="1" x="6" y="0.38045281538741915"/><rect fill="#2563EB" height="0.5980658060125255" stroke="#EFF6FF" stroke-width="0.01" width="1" x="7" y="0.40193419398747454"/><rect fill="#2563EB" height="0.5540020300421116" stroke="#EFF6FF" stroke-width="0.01" width="1" x="8" y="0.44599796995788843"/><rect fill="#2563EB" height="0.5446184764495674" stroke="#EFF6FF" stroke-width="0.01" width="1" x="9" y="0.4553815235504326"/><rect fill="#2563EB" height="0.6066883396085639" stroke="#EFF6FF" stroke-width="0.01" width="1" x="10" y="0.39331166039143606"/><rect fill="#2563EB" height="0.5770119983683695" stroke="#EFF6FF" stroke-width="0.01" width="1" x="11" y="0.42298800163163053"/><rect fill="#2563EB" height="0.5125811002774356" stroke="#EFF6FF" stroke-width="0.01" width="1" x="12" y="0.48741889972256436"/><rect fill="#2563EB" height="0.6171017287909933" stroke="#EFF6FF" stroke-width="0.01" width="1" x="13" y="0.38289827120900666"/><rect fill="#2563EB" height="0.62596956062411" stroke="#EFF6FF" stroke-width="0.01" width="1" x="14" y="0.37403043937589"/><rect fill="#2563EB" height="0.464480076304112" stroke="#EFF6FF" stroke-width="0.01" width="1" x="15" y="0.5355199236958881"/><rect fill="#2563EB" height="0.8479085848069449" stroke="#EFF6FF" stroke-width="0.01" width="1" x="16" y="0.15209141519305514"/><rect fill="#2563EB" height="0.8642647624042196" stroke="#EFF6FF" stroke-width="0.01" width="1" x="17" y="0.13573523759578043"/><rect fill="#2563EB" height="0.8486618869513343" stroke="#EFF6FF" stroke-width="0.01" width="1" x="18" y="0.15133811304866573"/><rect fill="#2563EB" height="0.8428739951339523" stroke="#EFF6FF" stroke-width="0.01" width="1" x="19" y="0.15712600486604766"/><rect fill="#2563EB" height="0.8900434802294529" stroke="#EFF6FF" stroke-width="0.01" width="1" x="20" y="0.1099565197705471"/><rect fill="#2563EB" height="0.8782151640540468" stroke="#EFF6FF" stroke-width="0.01" width="1" x="21" y="0.12178483594595324"/><rect fill="#2563EB" height="0.805018821139987" stroke="#EFF6FF" stroke-width="0.01" width="1" x="22" y="0.19498117886001298"/><rect fill="#2563EB" height="0.8226570924906886" stroke="#EFF6FF" stroke-width="0.01" width="1" x="23" y="0.17734290750931136"/><rect fill="#2563EB" height="0.812739888647693" stroke="#EFF6FF" stroke-width="0.01" width="1" x="24" y="0.18726011135230702"/><rect fill="#2563EB" height="0.9371157961784876" stroke="#EFF6FF" stroke-width="0.01" width="1" x="25" y="0.06288420382151239"/><rect fill="#2563EB" height="0.8249006303036936" stroke="#EFF6FF" stroke-width="0.01" width="1" x="26" y="0.17509936969630635"/><rect fill="#2563EB" height="0.8900813092028921" stroke="#EFF6FF" stroke-width="0.01" width="1" x="27" y="0.10991869079710792"/><rect fill="#2563EB" height="0.9263387739397606" stroke="#EFF6FF" stroke-width="0.01" width="1" x="28" y="0.0736612260602394"/><rect fill="#2563EB" height="0.9341652826572155" stroke="#EFF6FF" stroke-width="0.01" width="1" x="29" y="0.06583471734278445"/><rect fill="#2563EB" height="0.8463913843458519" stroke="#EFF6FF" stroke-width="0.01" width="1" x="30" y="0.15360861565414807"/><rect fill="#2563EB" height="0.934096606000536" stroke="#EFF6FF" stroke-width="0.01" width="1" x="31" y="0.06590339399946399"/><rect fill="#2563EB" height="0.9787185607425768" stroke="#EFF6FF" stroke-width="0.01" width="1" x="32" y="0.021281439257423207"/><rect fill="#2563EB" height="0.865193925398056" stroke="#EFF6FF" stroke-width="0.01" width="1" x="33" y="0.13480607460194405"/><rect fill="#2563EB" height="0.9174072270793062" stroke="#EFF6FF" stroke-width="0.01" width="1" x="34" y="0.08259277292069378"/><rect fill="#2563EB" height="0.9066047412178102" stroke="#EFF6FF" stroke-width="0.01" width="1" x="35" y="0.0933952587821898"/><rect fill="#2563EB" height="0.8996584400988371" stroke="#EFF6FF" stroke-width="0.01" width="1" x="36" y="0.10034155990116289"/><rect fill="#2563EB" height="0.9450034381250962" stroke="#EFF6FF" stroke-width="0.01" width="1" x="37" y="0.05499656187490376"/><rect fill="#2563EB" height="0.8802543637702527" stroke="#EFF6FF" stroke-width="0.01" width="1" x="38" y="0.11974563622974732"/><rect fill="#2563EB" height="0.9074908207404286" stroke="#EFF6FF" stroke-width="0.01" width="1" x="39" y="0.09250917925957136"/><rect fill="#2563EB" height="0.9029535604490502" stroke="#EFF6FF" stroke-width="0.01" width="1" x="40" y="0.09704643955094983"/><rect fill="#2563EB" height="0.9207253618932811" stroke="#EFF6FF" stroke-width="0.01" width="1" x="41" y="0.07927463810671886"/><rect fill="#2563EB" height="0.8906560571266223" stroke="#EFF6FF" stroke-width="0.01" width="1" x="42" y="0.10934394287337768"/><rect fill="#2563EB" height="0.9828555588657092" stroke="#EFF6FF" stroke-width="0.01" width="1" x="43" y="0.01714444113429081"/><rect fill="#2563EB" height="0.9724892407151268" stroke="#EFF6FF" stroke-width="0.01" width="1" x="44" y="0.027510759284873232"/><rect fill="#2563EB" height="0.87643999020939" stroke="#EFF6FF" stroke-width="0.01" width="1" x="45" y="0.12356000979060999"/><rect fill="#2563EB" height="0.9299012184893846" stroke="#EFF6FF" stroke-width="0.01" width="1" x="46" y="0.07009878151061544"/><rect fill="#2563EB" height="0.8215377371225682" stroke="#EFF6FF" stroke-width="0.01" width="1" x="47" y="0.17846226287743183"/><rect fill="#2563EB" height="0.9042440092706827" stroke="#EFF6FF" stroke-width="0.01" width="1" x="48" y="0.09575599072931729"/><rect fill="#2563EB" height="0.9226688561699573" stroke="#EFF6FF" stroke-width="0.01" width="1" x="49" y="0.07733114383004269"/><rect fill="#2563EB" height="0.9604064612102898" stroke="#EFF6FF" stroke-width="0.01" width="1" x="50" y="0.03959353878971017"/><rect fill="#2563EB" height="0.8973397356891639" stroke="#EFF6FF" stroke-width="0.01" width="1" x="51" y="0.10266026431083608"/><rect fill="#2563EB" height="0.8828614502139513" stroke="#EFF6FF" stroke-width="0.01" width="1" x="52" y="0.11713854978604865"/><rect fill="#2563EB" height="0.9508882757653572" stroke="#EFF6FF" stroke-width="0.01" width="1" x="53" y="0.04911172423464283"/><rect fill="#2563EB" height="0.9339369928052205" stroke="#EFF6FF" stroke-width="0.01" width="1" x="54" y="0.06606300719477953"/><rect fill="#2563EB" height="0.9212541754080257" stroke="#EFF6FF" stroke-width="0.01" width="1" x="55" y="0.07874582459197432"/><rect fill="#2563EB" height="0.915186759640365" stroke="#EFF6FF" stroke-width="0.01" width="1" x="56" y="0.084813240359635"/><rect fill="#2563EB" height="0.9228981925990077" stroke="#EFF6FF" stroke-width="0.01" width="1" x="57" y="0.07710180740099226"/><rect fill="#2563EB" height="0.9357200342624657" stroke="#EFF6FF" stroke-width="0.01" width="1" x="58" y="0.06427996573753425"/><rect fill="#2563EB" height="0.9107021515391776" stroke="#EFF6FF" stroke-width="0.01" width="1" x="59" y="0.08929784846082245"/><rect fill="#2563EB" height="0.9195665655056814" stroke="#EFF6FF" stroke-width="0.01" width="1" x="60" y="0.08043343449431861"/><rect fill="#2563EB" height="0.9045076487599036" stroke="#EFF6FF" stroke-width="0.01" width="1" x="61" y="0.09549235124009636"/><rect fill="#2563EB" height="0.8890654740031482" stroke="#EFF6FF" stroke-width="0.01" width="1" x="62" y="0.11093452599685183"/><rect fill="#2563EB" height="0.9343453030707146" stroke="#EFF6FF" stroke-width="0.01" width="1" x="63" y="0.06565469692928538"/><rect fill="#2563EB" height="0.949881894346423" stroke="#EFF6FF" stroke-width="0.01" width="1" x="64" y="0.050118105653576994"/><rect fill="#2563EB" height="0.8823204249325837" stroke="#EFF6FF" stroke-width="0.01" width="1" x="65" y="0.11767957506741633"/><rect fill="#2563EB" height="0.9408369822993643" stroke="#EFF6FF" stroke-width="0.01" width="1" x="66" y="0.0591630177006357"/><rect fill="#2563EB" height="0.96006265376572" stroke="#EFF6FF" stroke-width="0.01" width="1" x="67" y="0.039937346234280025"/><rect fill="#2563EB" height="0.9669706532438467" stroke="#EFF6FF" stroke-width="0.01" width="1" x="68" y="0.03302934675615332"/><rect fill="#2563EB" height="0.9269634986374066" stroke="#EFF6FF" stroke-width="0.01" width="1" x="69" y="0.07303650136259343"/><rect fill="#2563EB" height="0.9520328233470408" stroke="#EFF6FF" stroke-width="0.01" width="1" x="70" y="0.04796717665295924"/><rect fill="#2563EB" height="0.9790971348757749" stroke="#EFF6FF" stroke-width="0.01" width="1" x="71" y="0.020902865124225123"/><rect fill="#2563EB" height="0.955253555812464" stroke="#EFF6FF" stroke-width="0.01" width="1" x="72" y="0.04474644418753604"/><rect fill="#2563EB" height="0.9659245412923216" stroke="#EFF6FF" stroke-width="0.01" width="1" x="73" y="0.03407545870767836"/><rect fill="#2563EB" height="0.9037310947421157" stroke="#EFF6FF" stroke-width="0.01" width="1" x="74" y="0.09626890525788434"/><rect fill="#2563EB" height="0.9488944600908932" stroke="#EFF6FF" stroke-width="0.01" width="1" x="75" y="0.05110553990910682"/><rect fill="#2563EB" height="0.8904564908666632" stroke="#EFF6FF" stroke-width="0.01" width="1" x="76" y="0.10954350913333677"/><rect fill="#2563EB" height="0.9705161332787695" stroke="#EFF6FF" stroke-width="0.01" width="1" x="77" y="0.02948386672123049"/><rect fill="#2563EB" height="1" stroke="#EFF6FF" stroke-width="0.01" width="1" x="78" y="0"/><rect fill="#2563EB" height="0.849304202645798" stroke="#EFF6FF" stroke-width="0.01" width="1" x="79" y="0.15069579735420202"/><rect fill="#2563EB" height="0.9383789989250243" stroke="#EFF6FF" stroke-width="0.01" width="1" x="80" y="0.0616210010749757"/><rect fill="#2563EB" height="0.984150028294865" stroke="#EFF6FF" stroke-width="0.01" width="1" x="81" y="0.015849971705135024"/><rect fill="#2563EB" height="0.9911064737857284" stroke="#EFF6FF" stroke-width="0.01" width="1" x="82" y="0.008893526214271641"/><rect fill="#2563EB" height="0.9065958161042165" stroke="#EFF6FF" stroke-width="0.01" width="1" x="83" y="0.09340418389578353"/><rect fill="#2563EB" height="0.971963730188694" stroke="#EFF6FF" stroke-width="0.01" width="1" x="84" y="0.028036269811306025"/><rect fill="#2563EB" height="0.9496932433405563" stroke="#EFF6FF" stroke-width="0.01" width="1" x="85" y="0.05030675665944373"/><rect fill="#2563EB" height="0.8953487618658544" stroke="#EFF6FF" stroke-width="0.01" width="1" x="86" y="0.10465123813414556"/><rect fill="#2563EB" height="0.949854854033997" stroke="#EFF6FF" stroke-width="0.01" width="1" x="87" y="0.050145145966002946"/><rect fill="#2563EB" height="0.9643043602534157" stroke="#EFF6FF" stroke-width="0.01" width="1" x="88" y="0.035695639746584296"/><rect fill="#2563EB" height="0.9322643825853028" stroke="#EFF6FF" stroke-width="0.01" width="1" x="89" y="0.06773561741469725"/><rect fill="#2563EB" height="0.892067272552351" stroke="#EFF6FF" stroke-width="0.01" width="1" x="90" y="0.10793272744764904"/><rect fill="#2563EB" height="0.982933423111517" stroke="#EFF6FF" stroke-width="0.01" width="1" x="91" y="0.01706657688848301"/><rect fill="#2563EB" height="0.9339163519619358" stroke="#EFF6FF" stroke-width="0.01" width="1" x="92" y="0.06608364803806421"/><rect fill="#2563EB" height="0.9462531611099988" stroke="#EFF6FF" stroke-width="0.01" width="1" x="93" y="0.0537468388900012"/><rect fill="#2563EB" height="0.9261456841563934" stroke="#EFF6FF" stroke-width="0.01" width="1" x="94" y="0.07385431584360658"/><rect fill="#2563EB" height="0.6615654486637463" stroke="#EFF6FF" stroke-width="0.01" width="1" x="95" y="0.33843455133625366"/><rect fill="#2563EB" height="0.6644801364157503" stroke="#EFF6FF" stroke-width="0.01" width="1" x="96" y="0.3355198635842497"/><rect fill="#2563EB" height="0.5107940225299287" stroke="#EFF6FF" stroke-width="0.01" width="1" x="97" y="0.48920597747007133"/><rect fill="#2563EB" height="0.5215049567239881" stroke="#EFF6FF" stroke-width="0.01" width="1" x="98" y="0.4784950432760119"/><rect fill="#2563EB" height="0.4674440891095013" stroke="#EFF6FF" stroke-width="0.01" width="1" x="99" y="0.5325559108904987"/></svg>